<?xml version="1.0" encoding="UTF-8"?>
<svg id="Layer_2" data-name="Layer 2" xmlns="http://www.w3.org/2000/svg" viewBox="0 0 86.93 127.74">
  <defs>
    <style>
      .cls-1 {
        stroke-width: 0px;
      }
    </style>
  </defs>
  <g id="Ebene_1" data-name="Ebene 1">
    <g>
      <path class="cls-1" d="m86.93,25.72c-4.52,18.93-8.99,37.65-13.49,56.53-19.02-10.36-37.93-20.67-57.11-31.12,23.61-8.5,46.99-16.92,70.6-25.41Z"/>
      <path class="cls-1" d="m14.95,48.16C19.11,31.99,23.19,16.09,27.32,0c16.33,8.71,32.52,17.34,48.93,26.09-20.51,7.38-40.79,14.68-61.3,22.06Z"/>
      <path class="cls-1" d="m60.85,79.24C40.4,68.08,20.29,57.11,0,46.04c3.76,13.87,7.47,27.57,11.22,41.38l22.66-3.74-4.38,28.28,31.26,15.77-11.78-46.55,11.86-1.96Zm-5.36,41.92l-22.14-11.17,4.17-26.9,8.01-1.32,9.96,39.39Z"/>
    </g>
  </g>
</svg>