<?xml version="1.0" encoding="UTF-8"?>
<svg id="Layer_2" data-name="Layer 2" xmlns="http://www.w3.org/2000/svg" viewBox="0 0 84.35 126.32">
  <defs>
    <style>
      .cls-1 {
        fill: #fff;
        stroke-width: 0px;
      }
    </style>
  </defs>
  <g id="Ebene_1" data-name="Ebene 1">
    <g>
      <path class="cls-1" d="m84.35,25.72c-4.34,18.18-8.63,36.17-12.96,54.31-18.27-9.96-36.44-19.86-54.86-29.9,22.68-8.16,45.14-16.25,67.83-24.41Z"/>
      <path class="cls-1" d="m14.96,46.27c3.99-15.54,7.92-30.81,11.89-46.27,15.68,8.36,31.24,16.66,47,25.07-19.7,7.09-39.19,14.11-58.89,21.2Z"/>
      <path class="cls-1" d="m59.19,126.32l-11.81-46.7,11.08-1.83C38.82,67.08,19.5,56.54,0,45.91c3.61,13.33,7.18,26.48,10.78,39.76l22.28-3.67-4.47,28.89,30.61,15.45Zm-14.78-46.21l10.26,40.57-22.79-11.5,4.29-27.71,8.24-1.36Z"/>
    </g>
  </g>
</svg>