%TF.GenerationSoftware,KiCad,Pcbnew,8.0.8*%
%TF.CreationDate,2025-02-27T22:45:34+01:00*%
%TF.ProjectId,BB_LED_Tube,42425f4c-4544-45f5-9475-62652e6b6963,rev?*%
%TF.SameCoordinates,Original*%
%TF.FileFunction,Soldermask,Bot*%
%TF.FilePolarity,Negative*%
%FSLAX46Y46*%
G04 Gerber Fmt 4.6, Leading zero omitted, Abs format (unit mm)*
G04 Created by KiCad (PCBNEW 8.0.8) date 2025-02-27 22:45:34*
%MOMM*%
%LPD*%
G01*
G04 APERTURE LIST*
G04 Aperture macros list*
%AMRoundRect*
0 Rectangle with rounded corners*
0 $1 Rounding radius*
0 $2 $3 $4 $5 $6 $7 $8 $9 X,Y pos of 4 corners*
0 Add a 4 corners polygon primitive as box body*
4,1,4,$2,$3,$4,$5,$6,$7,$8,$9,$2,$3,0*
0 Add four circle primitives for the rounded corners*
1,1,$1+$1,$2,$3*
1,1,$1+$1,$4,$5*
1,1,$1+$1,$6,$7*
1,1,$1+$1,$8,$9*
0 Add four rect primitives between the rounded corners*
20,1,$1+$1,$2,$3,$4,$5,0*
20,1,$1+$1,$4,$5,$6,$7,0*
20,1,$1+$1,$6,$7,$8,$9,0*
20,1,$1+$1,$8,$9,$2,$3,0*%
G04 Aperture macros list end*
%ADD10C,3.000000*%
%ADD11C,2.000000*%
%ADD12C,2.700000*%
%ADD13RoundRect,0.225000X0.250000X-0.225000X0.250000X0.225000X-0.250000X0.225000X-0.250000X-0.225000X0*%
%ADD14RoundRect,0.250000X-0.475000X0.250000X-0.475000X-0.250000X0.475000X-0.250000X0.475000X0.250000X0*%
%ADD15RoundRect,0.250000X0.700000X-1.950000X0.700000X1.950000X-0.700000X1.950000X-0.700000X-1.950000X0*%
%ADD16R,1.500000X0.900000*%
%ADD17R,0.900000X1.500000*%
%ADD18C,0.600000*%
%ADD19R,4.200000X4.200000*%
%ADD20RoundRect,0.200000X-0.275000X0.200000X-0.275000X-0.200000X0.275000X-0.200000X0.275000X0.200000X0*%
G04 APERTURE END LIST*
D10*
%TO.C,GND4*%
X71600000Y-135915000D03*
%TD*%
D11*
%TO.C,DMX_B1*%
X58800000Y-117915000D03*
%TD*%
D10*
%TO.C,GND5*%
X77600000Y-135915000D03*
%TD*%
%TO.C,GND2*%
X59600000Y-135915000D03*
%TD*%
%TO.C,VCC5*%
X77600000Y-129515000D03*
%TD*%
%TO.C,GND3*%
X65600000Y-135915000D03*
%TD*%
%TO.C,VCC3*%
X65600000Y-129515000D03*
%TD*%
D11*
%TO.C,LED_Data1*%
X58800000Y-122315000D03*
%TD*%
D10*
%TO.C,VCC1*%
X83600000Y-129515000D03*
%TD*%
D11*
%TO.C,GND6*%
X58800000Y-111115000D03*
%TD*%
D12*
%TO.C,H1*%
X59800000Y-85115000D03*
%TD*%
D10*
%TO.C,VCC2*%
X59600000Y-129515000D03*
%TD*%
%TO.C,GND1*%
X83600000Y-135915000D03*
%TD*%
%TO.C,VCC4*%
X71600000Y-129515000D03*
%TD*%
D11*
%TO.C,DMX_A1*%
X58800000Y-114515000D03*
%TD*%
D12*
%TO.C,H2*%
X83400000Y-85115000D03*
%TD*%
D13*
%TO.C,C1*%
X82600000Y-91175000D03*
X82600000Y-89625000D03*
%TD*%
D14*
%TO.C,C10*%
X74600000Y-131765000D03*
X74600000Y-133665000D03*
%TD*%
D15*
%TO.C,C9*%
X79200000Y-124465000D03*
X79200000Y-115765000D03*
%TD*%
D14*
%TO.C,C11*%
X68600000Y-131765000D03*
X68600000Y-133665000D03*
%TD*%
D16*
%TO.C,U1*%
X80350000Y-89665000D03*
X80350000Y-90935000D03*
X80350000Y-92205000D03*
X80350000Y-93475000D03*
X80350000Y-94745000D03*
X80350000Y-96015000D03*
X80350000Y-97285000D03*
X80350000Y-98555000D03*
X80350000Y-99825000D03*
X80350000Y-101095000D03*
X80350000Y-102365000D03*
X80350000Y-103635000D03*
X80350000Y-104905000D03*
X80350000Y-106175000D03*
D17*
X77310000Y-107425000D03*
X76040000Y-107425000D03*
X74770000Y-107425000D03*
X73500000Y-107425000D03*
X72230000Y-107425000D03*
X70960000Y-107425000D03*
X69690000Y-107425000D03*
X68420000Y-107425000D03*
X67150000Y-107425000D03*
X65880000Y-107425000D03*
D16*
X62850000Y-106175000D03*
X62850000Y-104905000D03*
X62850000Y-103635000D03*
X62850000Y-102365000D03*
X62850000Y-101095000D03*
X62850000Y-99825000D03*
X62850000Y-98555000D03*
X62850000Y-97285000D03*
X62850000Y-96015000D03*
X62850000Y-94745000D03*
X62850000Y-93475000D03*
X62850000Y-92205000D03*
X62850000Y-90935000D03*
X62850000Y-89665000D03*
D18*
X73805000Y-97767500D03*
X73805000Y-96242500D03*
X73042500Y-98530000D03*
X73042500Y-97005000D03*
X73042500Y-95480000D03*
X72280000Y-97767500D03*
D19*
X72280000Y-97005000D03*
D18*
X72280000Y-96242500D03*
X71517500Y-98530000D03*
X71517500Y-97005000D03*
X71517500Y-95480000D03*
X70755000Y-97767500D03*
X70755000Y-96242500D03*
%TD*%
D15*
%TO.C,C8*%
X66400000Y-124465000D03*
X66400000Y-115765000D03*
%TD*%
D20*
%TO.C,R1*%
X82600000Y-92775000D03*
X82600000Y-94425000D03*
%TD*%
M02*
