M48
; DRILL file {KiCad 8.0.8} date 2025-02-27T22:45:30+0100
; FORMAT={-:-/ absolute / inch / decimal}
; #@! TF.CreationDate,2025-02-27T22:45:30+01:00
; #@! TF.GenerationSoftware,Kicad,Pcbnew,8.0.8
; #@! TF.FileFunction,Plated,1,2,PTH
FMAT,2
INCH
; #@! TA.AperFunction,Plated,PTH,ComponentDrill
T1C0.0079
; #@! TA.AperFunction,Plated,PTH,ViaDrill
T2C0.0118
; #@! TA.AperFunction,Plated,PTH,ComponentDrill
T3C0.0394
; #@! TA.AperFunction,Plated,PTH,ComponentDrill
T4C0.0591
%
G90
G05
T1
X2.7856Y-3.7891
X2.7856Y-3.8491
X2.8156Y-3.7591
X2.8156Y-3.8191
X2.8156Y-3.8791
X2.8457Y-3.7891
X2.8457Y-3.8491
X2.8757Y-3.7591
X2.8757Y-3.8191
X2.8757Y-3.8791
X2.9057Y-3.7891
X2.9057Y-3.8491
T2
X2.2913Y-3.9258
X2.2913Y-4.0911
X2.2913Y-4.1305
X2.3386Y-3.9258
X2.3622Y-3.5321
X2.3622Y-3.5715
X2.3937Y-3.9022
X2.4016Y-3.5321
X2.4016Y-3.5715
X2.4252Y-4.2959
X2.5591Y-4.2959
X2.5748Y-4.6974
X2.5748Y-4.7368
X2.6142Y-4.6974
X2.6142Y-4.7368
X2.6535Y-4.6974
X2.6535Y-4.7368
X2.7323Y-4.4061
X2.7323Y-4.4455
X2.7323Y-4.4848
X2.7717Y-4.4061
X2.7717Y-4.4455
X2.7717Y-4.4848
X2.9449Y-4.6974
X2.9449Y-4.7368
X2.9843Y-4.6974
X2.9843Y-4.7368
X3.0236Y-4.6974
X3.0236Y-4.7368
X3.0551Y-4.0833
X3.0551Y-4.1226
X3.078Y-4.6667
X3.0945Y-3.5321
X3.0945Y-3.5715
X3.0945Y-4.0833
X3.0945Y-4.1226
X3.2205Y-4.3904
X3.2205Y-4.4297
X3.315Y-3.5085
X3.3307Y-3.7998
X3.3543Y-3.5085
T3
X2.315Y-4.3746
X2.315Y-4.5085
X2.315Y-4.6423
X2.315Y-4.8156
T4
X2.3465Y-5.099
X2.3465Y-5.351
X2.5827Y-5.099
X2.5827Y-5.351
X2.8189Y-5.099
X2.8189Y-5.351
X3.0551Y-5.099
X3.0551Y-5.351
X3.2913Y-5.099
X3.2913Y-5.351
M30
