%TF.GenerationSoftware,KiCad,Pcbnew,8.0.8*%
%TF.CreationDate,2025-02-27T22:45:34+01:00*%
%TF.ProjectId,BB_LED_Tube,42425f4c-4544-45f5-9475-62652e6b6963,rev?*%
%TF.SameCoordinates,Original*%
%TF.FileFunction,Soldermask,Top*%
%TF.FilePolarity,Negative*%
%FSLAX46Y46*%
G04 Gerber Fmt 4.6, Leading zero omitted, Abs format (unit mm)*
G04 Created by KiCad (PCBNEW 8.0.8) date 2025-02-27 22:45:34*
%MOMM*%
%LPD*%
G01*
G04 APERTURE LIST*
G04 Aperture macros list*
%AMRoundRect*
0 Rectangle with rounded corners*
0 $1 Rounding radius*
0 $2 $3 $4 $5 $6 $7 $8 $9 X,Y pos of 4 corners*
0 Add a 4 corners polygon primitive as box body*
4,1,4,$2,$3,$4,$5,$6,$7,$8,$9,$2,$3,0*
0 Add four circle primitives for the rounded corners*
1,1,$1+$1,$2,$3*
1,1,$1+$1,$4,$5*
1,1,$1+$1,$6,$7*
1,1,$1+$1,$8,$9*
0 Add four rect primitives between the rounded corners*
20,1,$1+$1,$2,$3,$4,$5,0*
20,1,$1+$1,$4,$5,$6,$7,0*
20,1,$1+$1,$6,$7,$8,$9,0*
20,1,$1+$1,$8,$9,$2,$3,0*%
G04 Aperture macros list end*
%ADD10RoundRect,0.250000X1.600000X-0.300000X1.600000X0.300000X-1.600000X0.300000X-1.600000X-0.300000X0*%
%ADD11RoundRect,0.225000X0.225000X0.250000X-0.225000X0.250000X-0.225000X-0.250000X0.225000X-0.250000X0*%
%ADD12RoundRect,0.225000X0.250000X-0.225000X0.250000X0.225000X-0.250000X0.225000X-0.250000X-0.225000X0*%
%ADD13C,3.000000*%
%ADD14C,2.000000*%
%ADD15RoundRect,0.200000X-0.275000X0.200000X-0.275000X-0.200000X0.275000X-0.200000X0.275000X0.200000X0*%
%ADD16RoundRect,0.250000X-0.450000X0.262500X-0.450000X-0.262500X0.450000X-0.262500X0.450000X0.262500X0*%
%ADD17RoundRect,0.250000X0.250000X0.475000X-0.250000X0.475000X-0.250000X-0.475000X0.250000X-0.475000X0*%
%ADD18RoundRect,0.150000X-0.512500X-0.150000X0.512500X-0.150000X0.512500X0.150000X-0.512500X0.150000X0*%
%ADD19RoundRect,0.150000X-0.150000X0.825000X-0.150000X-0.825000X0.150000X-0.825000X0.150000X0.825000X0*%
%ADD20RoundRect,0.250000X-0.475000X0.250000X-0.475000X-0.250000X0.475000X-0.250000X0.475000X0.250000X0*%
%ADD21C,2.700000*%
%ADD22RoundRect,0.225000X-0.250000X0.225000X-0.250000X-0.225000X0.250000X-0.225000X0.250000X0.225000X0*%
%ADD23RoundRect,0.250000X0.450000X-0.262500X0.450000X0.262500X-0.450000X0.262500X-0.450000X-0.262500X0*%
%ADD24RoundRect,0.200000X0.275000X-0.200000X0.275000X0.200000X-0.275000X0.200000X-0.275000X-0.200000X0*%
G04 APERTURE END LIST*
D10*
%TO.C,L1*%
X76600000Y-114015000D03*
X76600000Y-111015000D03*
%TD*%
D11*
%TO.C,C3*%
X84375000Y-98115000D03*
X82825000Y-98115000D03*
%TD*%
D12*
%TO.C,C2*%
X80200000Y-102490000D03*
X80200000Y-100940000D03*
%TD*%
D13*
%TO.C,GND4*%
X71600000Y-135915000D03*
%TD*%
D14*
%TO.C,DMX_B1*%
X58800000Y-117915000D03*
%TD*%
D13*
%TO.C,GND5*%
X77600000Y-135915000D03*
%TD*%
D15*
%TO.C,R5*%
X85200000Y-117890000D03*
X85200000Y-119540000D03*
%TD*%
D13*
%TO.C,GND2*%
X59600000Y-135915000D03*
%TD*%
%TO.C,VCC5*%
X77600000Y-129515000D03*
%TD*%
D12*
%TO.C,C6*%
X83600000Y-119490000D03*
X83600000Y-117940000D03*
%TD*%
D13*
%TO.C,GND3*%
X65600000Y-135915000D03*
%TD*%
D15*
%TO.C,R7*%
X80400000Y-117890000D03*
X80400000Y-119540000D03*
%TD*%
D16*
%TO.C,R3*%
X66200000Y-105002500D03*
X66200000Y-106827500D03*
%TD*%
D17*
%TO.C,C4*%
X78150000Y-116315000D03*
X76250000Y-116315000D03*
%TD*%
D18*
%TO.C,U2*%
X82462500Y-100165000D03*
X82462500Y-101115000D03*
X82462500Y-102065000D03*
X84737500Y-102065000D03*
X84737500Y-100165000D03*
%TD*%
D19*
%TO.C,U3*%
X61905000Y-101840000D03*
X60635000Y-101840000D03*
X59365000Y-101840000D03*
X58095000Y-101840000D03*
X58095000Y-106790000D03*
X59365000Y-106790000D03*
X60635000Y-106790000D03*
X61905000Y-106790000D03*
%TD*%
D20*
%TO.C,C7*%
X80200000Y-110165000D03*
X80200000Y-112065000D03*
%TD*%
D13*
%TO.C,VCC3*%
X65600000Y-129515000D03*
%TD*%
D14*
%TO.C,LED_Data1*%
X58800000Y-122315000D03*
%TD*%
D13*
%TO.C,VCC1*%
X83600000Y-129515000D03*
%TD*%
D14*
%TO.C,GND6*%
X58800000Y-111115000D03*
%TD*%
D21*
%TO.C,H1*%
X59800000Y-85115000D03*
%TD*%
D22*
%TO.C,C5*%
X84400000Y-114140000D03*
X84400000Y-115690000D03*
%TD*%
D23*
%TO.C,R2*%
X64000000Y-106827500D03*
X64000000Y-105002500D03*
%TD*%
D24*
%TO.C,R6*%
X82000000Y-119540000D03*
X82000000Y-117890000D03*
%TD*%
D13*
%TO.C,VCC2*%
X59600000Y-129515000D03*
%TD*%
%TO.C,GND1*%
X83600000Y-135915000D03*
%TD*%
%TO.C,VCC4*%
X71600000Y-129515000D03*
%TD*%
D18*
%TO.C,U4*%
X80262500Y-113965000D03*
X80262500Y-114915000D03*
X80262500Y-115865000D03*
X82537500Y-115865000D03*
X82537500Y-114915000D03*
X82537500Y-113965000D03*
%TD*%
D14*
%TO.C,DMX_A1*%
X58800000Y-114515000D03*
%TD*%
D21*
%TO.C,H2*%
X83400000Y-85115000D03*
%TD*%
D23*
%TO.C,R4*%
X68200000Y-106827500D03*
X68200000Y-105002500D03*
%TD*%
M02*
