%TF.GenerationSoftware,KiCad,Pcbnew,8.0.8*%
%TF.CreationDate,2025-02-27T22:45:34+01:00*%
%TF.ProjectId,BB_LED_Tube,42425f4c-4544-45f5-9475-62652e6b6963,rev?*%
%TF.SameCoordinates,Original*%
%TF.FileFunction,Copper,L2,Bot*%
%TF.FilePolarity,Positive*%
%FSLAX46Y46*%
G04 Gerber Fmt 4.6, Leading zero omitted, Abs format (unit mm)*
G04 Created by KiCad (PCBNEW 8.0.8) date 2025-02-27 22:45:34*
%MOMM*%
%LPD*%
G01*
G04 APERTURE LIST*
G04 Aperture macros list*
%AMRoundRect*
0 Rectangle with rounded corners*
0 $1 Rounding radius*
0 $2 $3 $4 $5 $6 $7 $8 $9 X,Y pos of 4 corners*
0 Add a 4 corners polygon primitive as box body*
4,1,4,$2,$3,$4,$5,$6,$7,$8,$9,$2,$3,0*
0 Add four circle primitives for the rounded corners*
1,1,$1+$1,$2,$3*
1,1,$1+$1,$4,$5*
1,1,$1+$1,$6,$7*
1,1,$1+$1,$8,$9*
0 Add four rect primitives between the rounded corners*
20,1,$1+$1,$2,$3,$4,$5,0*
20,1,$1+$1,$4,$5,$6,$7,0*
20,1,$1+$1,$6,$7,$8,$9,0*
20,1,$1+$1,$8,$9,$2,$3,0*%
G04 Aperture macros list end*
%TA.AperFunction,ComponentPad*%
%ADD10C,3.000000*%
%TD*%
%TA.AperFunction,ComponentPad*%
%ADD11C,2.000000*%
%TD*%
%TA.AperFunction,SMDPad,CuDef*%
%ADD12RoundRect,0.225000X0.250000X-0.225000X0.250000X0.225000X-0.250000X0.225000X-0.250000X-0.225000X0*%
%TD*%
%TA.AperFunction,SMDPad,CuDef*%
%ADD13RoundRect,0.250000X-0.475000X0.250000X-0.475000X-0.250000X0.475000X-0.250000X0.475000X0.250000X0*%
%TD*%
%TA.AperFunction,SMDPad,CuDef*%
%ADD14RoundRect,0.250000X0.700000X-1.950000X0.700000X1.950000X-0.700000X1.950000X-0.700000X-1.950000X0*%
%TD*%
%TA.AperFunction,SMDPad,CuDef*%
%ADD15R,1.500000X0.900000*%
%TD*%
%TA.AperFunction,SMDPad,CuDef*%
%ADD16R,0.900000X1.500000*%
%TD*%
%TA.AperFunction,SMDPad,CuDef*%
%ADD17R,1.050000X1.050000*%
%TD*%
%TA.AperFunction,HeatsinkPad*%
%ADD18C,0.600000*%
%TD*%
%TA.AperFunction,HeatsinkPad*%
%ADD19R,4.200000X4.200000*%
%TD*%
%TA.AperFunction,SMDPad,CuDef*%
%ADD20RoundRect,0.200000X-0.275000X0.200000X-0.275000X-0.200000X0.275000X-0.200000X0.275000X0.200000X0*%
%TD*%
%TA.AperFunction,ViaPad*%
%ADD21C,0.700000*%
%TD*%
%TA.AperFunction,Conductor*%
%ADD22C,0.400000*%
%TD*%
G04 APERTURE END LIST*
D10*
%TO.P,GND4,1,1*%
%TO.N,GND*%
X71600000Y-135915000D03*
%TD*%
D11*
%TO.P,DMX_B1,1,1*%
%TO.N,/DMX B*%
X58800000Y-117915000D03*
%TD*%
D10*
%TO.P,GND5,1,1*%
%TO.N,GND*%
X77600000Y-135915000D03*
%TD*%
%TO.P,GND2,1,1*%
%TO.N,GND*%
X59600000Y-135915000D03*
%TD*%
%TO.P,VCC5,1,1*%
%TO.N,VCC*%
X77600000Y-129515000D03*
%TD*%
%TO.P,GND3,1,1*%
%TO.N,GND*%
X65600000Y-135915000D03*
%TD*%
%TO.P,VCC3,1,1*%
%TO.N,VCC*%
X65600000Y-129515000D03*
%TD*%
D11*
%TO.P,LED_Data1,1,1*%
%TO.N,/LED_Data*%
X58800000Y-122315000D03*
%TD*%
D10*
%TO.P,VCC1,1,1*%
%TO.N,VCC*%
X83600000Y-129515000D03*
%TD*%
D11*
%TO.P,GND6,1,1*%
%TO.N,GND*%
X58800000Y-111115000D03*
%TD*%
D10*
%TO.P,VCC2,1,1*%
%TO.N,VCC*%
X59600000Y-129515000D03*
%TD*%
%TO.P,GND1,1,1*%
%TO.N,GND*%
X83600000Y-135915000D03*
%TD*%
%TO.P,VCC4,1,1*%
%TO.N,VCC*%
X71600000Y-129515000D03*
%TD*%
D11*
%TO.P,DMX_A1,1,1*%
%TO.N,/DMX A*%
X58800000Y-114515000D03*
%TD*%
D12*
%TO.P,C1,1*%
%TO.N,+3V3*%
X82600000Y-91175000D03*
%TO.P,C1,2*%
%TO.N,GND*%
X82600000Y-89625000D03*
%TD*%
D13*
%TO.P,C10,1*%
%TO.N,VCC*%
X74600000Y-131765000D03*
%TO.P,C10,2*%
%TO.N,GND*%
X74600000Y-133665000D03*
%TD*%
D14*
%TO.P,C9,1*%
%TO.N,VCC*%
X79200000Y-124465000D03*
%TO.P,C9,2*%
%TO.N,GND*%
X79200000Y-115765000D03*
%TD*%
D13*
%TO.P,C11,1*%
%TO.N,VCC*%
X68600000Y-131765000D03*
%TO.P,C11,2*%
%TO.N,GND*%
X68600000Y-133665000D03*
%TD*%
D15*
%TO.P,U1,1,GND*%
%TO.N,GND*%
X80350000Y-89665000D03*
%TO.P,U1,2,VDD*%
%TO.N,+3V3*%
X80350000Y-90935000D03*
%TO.P,U1,3,EN*%
%TO.N,Net-(U1-EN)*%
X80350000Y-92205000D03*
%TO.P,U1,4,SENSOR_VP*%
%TO.N,unconnected-(U1-SENSOR_VP-Pad4)*%
X80350000Y-93475000D03*
%TO.P,U1,5,SENSOR_VN*%
%TO.N,unconnected-(U1-SENSOR_VN-Pad5)*%
X80350000Y-94745000D03*
%TO.P,U1,6,IO34*%
%TO.N,unconnected-(U1-IO34-Pad6)*%
X80350000Y-96015000D03*
%TO.P,U1,7,IO35*%
%TO.N,unconnected-(U1-IO35-Pad7)*%
X80350000Y-97285000D03*
%TO.P,U1,8,IO32*%
%TO.N,unconnected-(U1-IO32-Pad8)*%
X80350000Y-98555000D03*
%TO.P,U1,9,IO33*%
%TO.N,unconnected-(U1-IO33-Pad9)*%
X80350000Y-99825000D03*
%TO.P,U1,10,IO25*%
%TO.N,unconnected-(U1-IO25-Pad10)*%
X80350000Y-101095000D03*
%TO.P,U1,11,IO26*%
%TO.N,unconnected-(U1-IO26-Pad11)*%
X80350000Y-102365000D03*
%TO.P,U1,12,IO27*%
%TO.N,unconnected-(U1-IO27-Pad12)*%
X80350000Y-103635000D03*
%TO.P,U1,13,IO14*%
%TO.N,unconnected-(U1-IO14-Pad13)*%
X80350000Y-104905000D03*
%TO.P,U1,14,IO12*%
%TO.N,unconnected-(U1-IO12-Pad14)*%
X80350000Y-106175000D03*
D16*
%TO.P,U1,15,GND*%
%TO.N,GND*%
X77310000Y-107425000D03*
%TO.P,U1,16,IO13*%
%TO.N,unconnected-(U1-IO13-Pad16)*%
X76040000Y-107425000D03*
%TO.P,U1,17,SHD/SD2*%
%TO.N,unconnected-(U1-SHD{slash}SD2-Pad17)*%
X74770000Y-107425000D03*
%TO.P,U1,18,SWP/SD3*%
%TO.N,unconnected-(U1-SWP{slash}SD3-Pad18)*%
X73500000Y-107425000D03*
%TO.P,U1,19,SCS/CMD*%
%TO.N,unconnected-(U1-SCS{slash}CMD-Pad19)*%
X72230000Y-107425000D03*
%TO.P,U1,20,SCK/CLK*%
%TO.N,unconnected-(U1-SCK{slash}CLK-Pad20)*%
X70960000Y-107425000D03*
%TO.P,U1,21,SDO/SD0*%
%TO.N,unconnected-(U1-SDO{slash}SD0-Pad21)*%
X69690000Y-107425000D03*
%TO.P,U1,22,SDI/SD1*%
%TO.N,unconnected-(U1-SDI{slash}SD1-Pad22)*%
X68420000Y-107425000D03*
%TO.P,U1,23,IO15*%
%TO.N,/LED_Data*%
X67150000Y-107425000D03*
%TO.P,U1,24,IO2*%
%TO.N,unconnected-(U1-IO2-Pad24)*%
X65880000Y-107425000D03*
D15*
%TO.P,U1,25,IO0*%
%TO.N,DTR{slash}Flash*%
X62850000Y-106175000D03*
%TO.P,U1,26,IO4*%
%TO.N,unconnected-(U1-IO4-Pad26)*%
X62850000Y-104905000D03*
%TO.P,U1,27,IO16*%
%TO.N,unconnected-(U1-IO16-Pad27)*%
X62850000Y-103635000D03*
%TO.P,U1,28,IO17*%
%TO.N,unconnected-(U1-IO17-Pad28)*%
X62850000Y-102365000D03*
%TO.P,U1,29,IO5*%
%TO.N,unconnected-(U1-IO5-Pad29)*%
X62850000Y-101095000D03*
%TO.P,U1,30,IO18*%
%TO.N,unconnected-(U1-IO18-Pad30)*%
X62850000Y-99825000D03*
%TO.P,U1,31,IO19*%
%TO.N,unconnected-(U1-IO19-Pad31)*%
X62850000Y-98555000D03*
%TO.P,U1,32,NC*%
%TO.N,unconnected-(U1-NC-Pad32)*%
X62850000Y-97285000D03*
%TO.P,U1,33,IO21*%
%TO.N,DMX RX*%
X62850000Y-96015000D03*
%TO.P,U1,34,RXD0/IO3*%
%TO.N,RX0*%
X62850000Y-94745000D03*
%TO.P,U1,35,TXD0/IO1*%
%TO.N,TX0*%
X62850000Y-93475000D03*
%TO.P,U1,36,IO22*%
%TO.N,DMX EN*%
X62850000Y-92205000D03*
%TO.P,U1,37,IO23*%
%TO.N,DMX TX*%
X62850000Y-90935000D03*
%TO.P,U1,38,GND*%
%TO.N,GND*%
X62850000Y-89665000D03*
D17*
%TO.P,U1,39,GND*%
X73805000Y-98530000D03*
D18*
X73805000Y-97767500D03*
D17*
X73805000Y-97005000D03*
D18*
X73805000Y-96242500D03*
D17*
X73805000Y-95480000D03*
D18*
X73042500Y-98530000D03*
X73042500Y-97005000D03*
X73042500Y-95480000D03*
D17*
X72280000Y-98530000D03*
D18*
X72280000Y-97767500D03*
D17*
X72280000Y-97005000D03*
D19*
X72280000Y-97005000D03*
D18*
X72280000Y-96242500D03*
D17*
X72280000Y-95480000D03*
D18*
X71517500Y-98530000D03*
X71517500Y-97005000D03*
X71517500Y-95480000D03*
D17*
X70755000Y-98530000D03*
D18*
X70755000Y-97767500D03*
D17*
X70755000Y-97005000D03*
D18*
X70755000Y-96242500D03*
D17*
X70755000Y-95480000D03*
%TD*%
D14*
%TO.P,C8,1*%
%TO.N,VCC*%
X66400000Y-124465000D03*
%TO.P,C8,2*%
%TO.N,GND*%
X66400000Y-115765000D03*
%TD*%
D20*
%TO.P,R1,1*%
%TO.N,+3V3*%
X82600000Y-92775000D03*
%TO.P,R1,2*%
%TO.N,Net-(U1-EN)*%
X82600000Y-94425000D03*
%TD*%
D21*
%TO.N,GND*%
X78600000Y-104715000D03*
X75800000Y-119315000D03*
X75800000Y-120315000D03*
X78600000Y-89715000D03*
X76800000Y-119315000D03*
X85200000Y-89115000D03*
X84200000Y-89115000D03*
X74800000Y-119315000D03*
X69400000Y-113915000D03*
X65400000Y-119315000D03*
X77600000Y-104715000D03*
X66400000Y-119315000D03*
X69400000Y-112915000D03*
X70400000Y-111915000D03*
X61000000Y-89715000D03*
X60000000Y-89715000D03*
X69400000Y-111915000D03*
X66400000Y-120315000D03*
X65400000Y-120315000D03*
X67400000Y-119315000D03*
X81800000Y-112515000D03*
X61000000Y-90715000D03*
X70400000Y-113915000D03*
X74800000Y-120315000D03*
X60000000Y-90715000D03*
X78600000Y-90715000D03*
X67400000Y-120315000D03*
X58200000Y-104915000D03*
X76800000Y-120315000D03*
X58200000Y-103915000D03*
X81800000Y-111515000D03*
X78600000Y-103715000D03*
X77600000Y-103715000D03*
X70400000Y-112915000D03*
%TO.N,+3V3*%
X84600000Y-96515000D03*
%TO.N,DMX RX*%
X60800000Y-99115000D03*
%TO.N,DMX EN*%
X59400000Y-99715000D03*
%TO.N,DMX TX*%
X58200000Y-99715000D03*
%TO.N,VCC*%
X78182018Y-118532982D03*
%TO.N,/DMX B*%
X61600000Y-109115000D03*
X65000000Y-109115000D03*
%TD*%
D22*
%TO.N,VCC*%
X78182018Y-118532982D02*
X79200000Y-119550964D01*
X79200000Y-119550964D02*
X79200000Y-124465000D01*
%TO.N,Net-(U1-EN)*%
X81600000Y-92725000D02*
X81600000Y-93425000D01*
X80350000Y-92205000D02*
X81080000Y-92205000D01*
X81080000Y-92205000D02*
X81600000Y-92725000D01*
X81600000Y-93425000D02*
X82600000Y-94425000D01*
%TO.N,+3V3*%
X84600000Y-96515000D02*
X84600000Y-93715000D01*
X80350000Y-90935000D02*
X82360000Y-90935000D01*
X82360000Y-90935000D02*
X82600000Y-91175000D01*
X84600000Y-93715000D02*
X83660000Y-92775000D01*
X82600000Y-92775000D02*
X82600000Y-91175000D01*
X83660000Y-92775000D02*
X82600000Y-92775000D01*
%TO.N,DMX RX*%
X60800000Y-99115000D02*
X60800000Y-96915000D01*
X60800000Y-96915000D02*
X61700000Y-96015000D01*
X61700000Y-96015000D02*
X62850000Y-96015000D01*
%TO.N,DMX EN*%
X62850000Y-92205000D02*
X62120000Y-92205000D01*
X59400000Y-94925000D02*
X59400000Y-99715000D01*
X62120000Y-92205000D02*
X59400000Y-94925000D01*
%TO.N,DMX TX*%
X62120000Y-90935000D02*
X58200000Y-94855000D01*
X62850000Y-90935000D02*
X62120000Y-90935000D01*
X58200000Y-94855000D02*
X58200000Y-99715000D01*
%TO.N,/DMX B*%
X61600000Y-109115000D02*
X65000000Y-109115000D01*
%TO.N,/LED_Data*%
X63200000Y-112515000D02*
X63200000Y-120515000D01*
X64410000Y-111315000D02*
X64400000Y-111315000D01*
X63200000Y-120515000D02*
X61400000Y-122315000D01*
X67150000Y-108575000D02*
X64410000Y-111315000D01*
X61400000Y-122315000D02*
X58800000Y-122315000D01*
X67150000Y-107425000D02*
X67150000Y-108575000D01*
X64400000Y-111315000D02*
X63200000Y-112515000D01*
%TD*%
%TA.AperFunction,Conductor*%
%TO.N,GND*%
G36*
X86046221Y-131537663D02*
G01*
X86090062Y-131592067D01*
X86099500Y-131639518D01*
X86099500Y-136511249D01*
X86099274Y-136518736D01*
X86081728Y-136808794D01*
X86079923Y-136823659D01*
X86028219Y-137105798D01*
X86024635Y-137120336D01*
X85939306Y-137394167D01*
X85933997Y-137408168D01*
X85816275Y-137669736D01*
X85809316Y-137682995D01*
X85660928Y-137928459D01*
X85652422Y-137940782D01*
X85475526Y-138166573D01*
X85465596Y-138177781D01*
X85262781Y-138380596D01*
X85251573Y-138390526D01*
X85025782Y-138567422D01*
X85013459Y-138575928D01*
X84767995Y-138724316D01*
X84754736Y-138731275D01*
X84493168Y-138848997D01*
X84479167Y-138854306D01*
X84205336Y-138939635D01*
X84190798Y-138943219D01*
X83908659Y-138994923D01*
X83893794Y-138996728D01*
X83603736Y-139014274D01*
X83596249Y-139014500D01*
X59603751Y-139014500D01*
X59596264Y-139014274D01*
X59306205Y-138996728D01*
X59291340Y-138994923D01*
X59009201Y-138943219D01*
X58994663Y-138939635D01*
X58720832Y-138854306D01*
X58706831Y-138848997D01*
X58445263Y-138731275D01*
X58432004Y-138724316D01*
X58186540Y-138575928D01*
X58174217Y-138567422D01*
X57948426Y-138390526D01*
X57937218Y-138380596D01*
X57734403Y-138177781D01*
X57724473Y-138166573D01*
X57547573Y-137940776D01*
X57539075Y-137928465D01*
X57390680Y-137682989D01*
X57383727Y-137669743D01*
X57266000Y-137408163D01*
X57260693Y-137394167D01*
X57175364Y-137120336D01*
X57171780Y-137105798D01*
X57120076Y-136823659D01*
X57118271Y-136808794D01*
X57100726Y-136518736D01*
X57100500Y-136511249D01*
X57100500Y-135914998D01*
X57594891Y-135914998D01*
X57594891Y-135915001D01*
X57615300Y-136200362D01*
X57676109Y-136479895D01*
X57776091Y-136747958D01*
X57876341Y-136931550D01*
X58850000Y-135957892D01*
X58850000Y-135988869D01*
X58878822Y-136133767D01*
X58935359Y-136270258D01*
X59017437Y-136393097D01*
X59121903Y-136497563D01*
X59244742Y-136579641D01*
X59381233Y-136636178D01*
X59526131Y-136665000D01*
X59557106Y-136665000D01*
X58583448Y-137638657D01*
X58583448Y-137638658D01*
X58767042Y-137738908D01*
X58767041Y-137738908D01*
X59035104Y-137838890D01*
X59314637Y-137899699D01*
X59599999Y-137920109D01*
X59600001Y-137920109D01*
X59885362Y-137899699D01*
X60164895Y-137838890D01*
X60432957Y-137738908D01*
X60616550Y-137638658D01*
X60616550Y-137638657D01*
X59642895Y-136665000D01*
X59673869Y-136665000D01*
X59818767Y-136636178D01*
X59955258Y-136579641D01*
X60078097Y-136497563D01*
X60182563Y-136393097D01*
X60264641Y-136270258D01*
X60321178Y-136133767D01*
X60350000Y-135988869D01*
X60350000Y-135957893D01*
X61323657Y-136931550D01*
X61323658Y-136931550D01*
X61423908Y-136747957D01*
X61523890Y-136479895D01*
X61584699Y-136200362D01*
X61605109Y-135915001D01*
X61605109Y-135914998D01*
X63594891Y-135914998D01*
X63594891Y-135915001D01*
X63615300Y-136200362D01*
X63676109Y-136479895D01*
X63776091Y-136747958D01*
X63876341Y-136931550D01*
X64850000Y-135957892D01*
X64850000Y-135988869D01*
X64878822Y-136133767D01*
X64935359Y-136270258D01*
X65017437Y-136393097D01*
X65121903Y-136497563D01*
X65244742Y-136579641D01*
X65381233Y-136636178D01*
X65526131Y-136665000D01*
X65557106Y-136665000D01*
X64583448Y-137638657D01*
X64583448Y-137638658D01*
X64767042Y-137738908D01*
X64767041Y-137738908D01*
X65035104Y-137838890D01*
X65314637Y-137899699D01*
X65599999Y-137920109D01*
X65600001Y-137920109D01*
X65885362Y-137899699D01*
X66164895Y-137838890D01*
X66432957Y-137738908D01*
X66616550Y-137638658D01*
X66616550Y-137638657D01*
X65642895Y-136665000D01*
X65673869Y-136665000D01*
X65818767Y-136636178D01*
X65955258Y-136579641D01*
X66078097Y-136497563D01*
X66182563Y-136393097D01*
X66264641Y-136270258D01*
X66321178Y-136133767D01*
X66350000Y-135988869D01*
X66350000Y-135957893D01*
X67323657Y-136931550D01*
X67323658Y-136931550D01*
X67423908Y-136747957D01*
X67523890Y-136479895D01*
X67584699Y-136200362D01*
X67605109Y-135915001D01*
X67605109Y-135914998D01*
X69594891Y-135914998D01*
X69594891Y-135915001D01*
X69615300Y-136200362D01*
X69676109Y-136479895D01*
X69776091Y-136747958D01*
X69876341Y-136931550D01*
X70850000Y-135957892D01*
X70850000Y-135988869D01*
X70878822Y-136133767D01*
X70935359Y-136270258D01*
X71017437Y-136393097D01*
X71121903Y-136497563D01*
X71244742Y-136579641D01*
X71381233Y-136636178D01*
X71526131Y-136665000D01*
X71557106Y-136665000D01*
X70583448Y-137638657D01*
X70583448Y-137638658D01*
X70767042Y-137738908D01*
X70767041Y-137738908D01*
X71035104Y-137838890D01*
X71314637Y-137899699D01*
X71599999Y-137920109D01*
X71600001Y-137920109D01*
X71885362Y-137899699D01*
X72164895Y-137838890D01*
X72432957Y-137738908D01*
X72616550Y-137638658D01*
X72616550Y-137638657D01*
X71642895Y-136665000D01*
X71673869Y-136665000D01*
X71818767Y-136636178D01*
X71955258Y-136579641D01*
X72078097Y-136497563D01*
X72182563Y-136393097D01*
X72264641Y-136270258D01*
X72321178Y-136133767D01*
X72350000Y-135988869D01*
X72350000Y-135957894D01*
X73323657Y-136931550D01*
X73323658Y-136931550D01*
X73423908Y-136747957D01*
X73523890Y-136479895D01*
X73584699Y-136200362D01*
X73605109Y-135915001D01*
X73605109Y-135914998D01*
X75594891Y-135914998D01*
X75594891Y-135915001D01*
X75615300Y-136200362D01*
X75676109Y-136479895D01*
X75776091Y-136747958D01*
X75876341Y-136931550D01*
X76850000Y-135957892D01*
X76850000Y-135988869D01*
X76878822Y-136133767D01*
X76935359Y-136270258D01*
X77017437Y-136393097D01*
X77121903Y-136497563D01*
X77244742Y-136579641D01*
X77381233Y-136636178D01*
X77526131Y-136665000D01*
X77557106Y-136665000D01*
X76583448Y-137638657D01*
X76583448Y-137638658D01*
X76767042Y-137738908D01*
X76767041Y-137738908D01*
X77035104Y-137838890D01*
X77314637Y-137899699D01*
X77599999Y-137920109D01*
X77600001Y-137920109D01*
X77885362Y-137899699D01*
X78164895Y-137838890D01*
X78432957Y-137738908D01*
X78616550Y-137638658D01*
X78616550Y-137638657D01*
X77642895Y-136665000D01*
X77673869Y-136665000D01*
X77818767Y-136636178D01*
X77955258Y-136579641D01*
X78078097Y-136497563D01*
X78182563Y-136393097D01*
X78264641Y-136270258D01*
X78321178Y-136133767D01*
X78350000Y-135988869D01*
X78350000Y-135957893D01*
X79323657Y-136931550D01*
X79323658Y-136931550D01*
X79423908Y-136747957D01*
X79523890Y-136479895D01*
X79584699Y-136200362D01*
X79605109Y-135915001D01*
X79605109Y-135914998D01*
X81594891Y-135914998D01*
X81594891Y-135915001D01*
X81615300Y-136200362D01*
X81676109Y-136479895D01*
X81776091Y-136747958D01*
X81876341Y-136931550D01*
X82850000Y-135957892D01*
X82850000Y-135988869D01*
X82878822Y-136133767D01*
X82935359Y-136270258D01*
X83017437Y-136393097D01*
X83121903Y-136497563D01*
X83244742Y-136579641D01*
X83381233Y-136636178D01*
X83526131Y-136665000D01*
X83557106Y-136665000D01*
X82583448Y-137638657D01*
X82583448Y-137638658D01*
X82767042Y-137738908D01*
X82767041Y-137738908D01*
X83035104Y-137838890D01*
X83314637Y-137899699D01*
X83599999Y-137920109D01*
X83600001Y-137920109D01*
X83885362Y-137899699D01*
X84164895Y-137838890D01*
X84432957Y-137738908D01*
X84616550Y-137638658D01*
X84616550Y-137638657D01*
X83642895Y-136665000D01*
X83673869Y-136665000D01*
X83818767Y-136636178D01*
X83955258Y-136579641D01*
X84078097Y-136497563D01*
X84182563Y-136393097D01*
X84264641Y-136270258D01*
X84321178Y-136133767D01*
X84350000Y-135988869D01*
X84350000Y-135957893D01*
X85323657Y-136931550D01*
X85323658Y-136931550D01*
X85423908Y-136747957D01*
X85523890Y-136479895D01*
X85584699Y-136200362D01*
X85605109Y-135915001D01*
X85605109Y-135914998D01*
X85584699Y-135629637D01*
X85523890Y-135350104D01*
X85423908Y-135082042D01*
X85323657Y-134898448D01*
X84350000Y-135872105D01*
X84350000Y-135841131D01*
X84321178Y-135696233D01*
X84264641Y-135559742D01*
X84182563Y-135436903D01*
X84078097Y-135332437D01*
X83955258Y-135250359D01*
X83818767Y-135193822D01*
X83673869Y-135165000D01*
X83642894Y-135165000D01*
X84616550Y-134191341D01*
X84616550Y-134191340D01*
X84432957Y-134091091D01*
X84432958Y-134091091D01*
X84164895Y-133991109D01*
X83885362Y-133930300D01*
X83600001Y-133909891D01*
X83599999Y-133909891D01*
X83314637Y-133930300D01*
X83035104Y-133991109D01*
X82767041Y-134091091D01*
X82767035Y-134091094D01*
X82583448Y-134191339D01*
X82583448Y-134191341D01*
X83557107Y-135165000D01*
X83526131Y-135165000D01*
X83381233Y-135193822D01*
X83244742Y-135250359D01*
X83121903Y-135332437D01*
X83017437Y-135436903D01*
X82935359Y-135559742D01*
X82878822Y-135696233D01*
X82850000Y-135841131D01*
X82850000Y-135872106D01*
X81876341Y-134898448D01*
X81876339Y-134898448D01*
X81776094Y-135082035D01*
X81776091Y-135082041D01*
X81676109Y-135350104D01*
X81615300Y-135629637D01*
X81594891Y-135914998D01*
X79605109Y-135914998D01*
X79584699Y-135629637D01*
X79523890Y-135350104D01*
X79423908Y-135082042D01*
X79323657Y-134898448D01*
X78350000Y-135872105D01*
X78350000Y-135841131D01*
X78321178Y-135696233D01*
X78264641Y-135559742D01*
X78182563Y-135436903D01*
X78078097Y-135332437D01*
X77955258Y-135250359D01*
X77818767Y-135193822D01*
X77673869Y-135165000D01*
X77642894Y-135165000D01*
X78616550Y-134191341D01*
X78616550Y-134191340D01*
X78432957Y-134091091D01*
X78432958Y-134091091D01*
X78164895Y-133991109D01*
X77885362Y-133930300D01*
X77600001Y-133909891D01*
X77599999Y-133909891D01*
X77314637Y-133930300D01*
X77035104Y-133991109D01*
X76767041Y-134091091D01*
X76767035Y-134091094D01*
X76583448Y-134191339D01*
X76583448Y-134191341D01*
X77557107Y-135165000D01*
X77526131Y-135165000D01*
X77381233Y-135193822D01*
X77244742Y-135250359D01*
X77121903Y-135332437D01*
X77017437Y-135436903D01*
X76935359Y-135559742D01*
X76878822Y-135696233D01*
X76850000Y-135841131D01*
X76850000Y-135872106D01*
X75876341Y-134898448D01*
X75876339Y-134898448D01*
X75776094Y-135082035D01*
X75776091Y-135082041D01*
X75676109Y-135350104D01*
X75615300Y-135629637D01*
X75594891Y-135914998D01*
X73605109Y-135914998D01*
X73584699Y-135629637D01*
X73523890Y-135350104D01*
X73423908Y-135082042D01*
X73323657Y-134898448D01*
X72350000Y-135872105D01*
X72350000Y-135841131D01*
X72321178Y-135696233D01*
X72264641Y-135559742D01*
X72182563Y-135436903D01*
X72078097Y-135332437D01*
X71955258Y-135250359D01*
X71818767Y-135193822D01*
X71673869Y-135165000D01*
X71642894Y-135165000D01*
X72616550Y-134191341D01*
X72616550Y-134191340D01*
X72568312Y-134165000D01*
X73417737Y-134165000D01*
X73440641Y-134234120D01*
X73532684Y-134383345D01*
X73656654Y-134507315D01*
X73805875Y-134599356D01*
X73805880Y-134599358D01*
X73972302Y-134654505D01*
X73972309Y-134654506D01*
X74075019Y-134664999D01*
X75100000Y-134664999D01*
X75124972Y-134664999D01*
X75124986Y-134664998D01*
X75227697Y-134654505D01*
X75394119Y-134599358D01*
X75394124Y-134599356D01*
X75543345Y-134507315D01*
X75667315Y-134383345D01*
X75759358Y-134234120D01*
X75782263Y-134165000D01*
X75100000Y-134165000D01*
X75100000Y-134664999D01*
X74075019Y-134664999D01*
X74100000Y-134664998D01*
X74100000Y-134165000D01*
X73417737Y-134165000D01*
X72568312Y-134165000D01*
X72432957Y-134091091D01*
X72432958Y-134091091D01*
X72164895Y-133991109D01*
X71885362Y-133930300D01*
X71600001Y-133909891D01*
X71599999Y-133909891D01*
X71314637Y-133930300D01*
X71035104Y-133991109D01*
X70767041Y-134091091D01*
X70767035Y-134091094D01*
X70583448Y-134191339D01*
X70583448Y-134191341D01*
X71557107Y-135165000D01*
X71526131Y-135165000D01*
X71381233Y-135193822D01*
X71244742Y-135250359D01*
X71121903Y-135332437D01*
X71017437Y-135436903D01*
X70935359Y-135559742D01*
X70878822Y-135696233D01*
X70850000Y-135841131D01*
X70850000Y-135872106D01*
X69876341Y-134898448D01*
X69876339Y-134898448D01*
X69776094Y-135082035D01*
X69776091Y-135082041D01*
X69676109Y-135350104D01*
X69615300Y-135629637D01*
X69594891Y-135914998D01*
X67605109Y-135914998D01*
X67584699Y-135629637D01*
X67523890Y-135350104D01*
X67423908Y-135082042D01*
X67323657Y-134898448D01*
X66350000Y-135872105D01*
X66350000Y-135841131D01*
X66321178Y-135696233D01*
X66264641Y-135559742D01*
X66182563Y-135436903D01*
X66078097Y-135332437D01*
X65955258Y-135250359D01*
X65818767Y-135193822D01*
X65673869Y-135165000D01*
X65642894Y-135165000D01*
X66616550Y-134191341D01*
X66616550Y-134191340D01*
X66568312Y-134165000D01*
X67417737Y-134165000D01*
X67440641Y-134234120D01*
X67532684Y-134383345D01*
X67656654Y-134507315D01*
X67805875Y-134599356D01*
X67805880Y-134599358D01*
X67972302Y-134654505D01*
X67972309Y-134654506D01*
X68075019Y-134664999D01*
X69100000Y-134664999D01*
X69124972Y-134664999D01*
X69124986Y-134664998D01*
X69227697Y-134654505D01*
X69394119Y-134599358D01*
X69394124Y-134599356D01*
X69543345Y-134507315D01*
X69667315Y-134383345D01*
X69759358Y-134234120D01*
X69782263Y-134165000D01*
X69100000Y-134165000D01*
X69100000Y-134664999D01*
X68075019Y-134664999D01*
X68100000Y-134664998D01*
X68100000Y-134165000D01*
X67417737Y-134165000D01*
X66568312Y-134165000D01*
X66432957Y-134091091D01*
X66432958Y-134091091D01*
X66164895Y-133991109D01*
X65885362Y-133930300D01*
X65600001Y-133909891D01*
X65599999Y-133909891D01*
X65314637Y-133930300D01*
X65035104Y-133991109D01*
X64767041Y-134091091D01*
X64767035Y-134091094D01*
X64583448Y-134191339D01*
X64583448Y-134191341D01*
X65557107Y-135165000D01*
X65526131Y-135165000D01*
X65381233Y-135193822D01*
X65244742Y-135250359D01*
X65121903Y-135332437D01*
X65017437Y-135436903D01*
X64935359Y-135559742D01*
X64878822Y-135696233D01*
X64850000Y-135841131D01*
X64850000Y-135872107D01*
X63876341Y-134898448D01*
X63876339Y-134898448D01*
X63776094Y-135082035D01*
X63776091Y-135082041D01*
X63676109Y-135350104D01*
X63615300Y-135629637D01*
X63594891Y-135914998D01*
X61605109Y-135914998D01*
X61584699Y-135629637D01*
X61523890Y-135350104D01*
X61423908Y-135082042D01*
X61323657Y-134898448D01*
X60350000Y-135872105D01*
X60350000Y-135841131D01*
X60321178Y-135696233D01*
X60264641Y-135559742D01*
X60182563Y-135436903D01*
X60078097Y-135332437D01*
X59955258Y-135250359D01*
X59818767Y-135193822D01*
X59673869Y-135165000D01*
X59642894Y-135165000D01*
X60616550Y-134191341D01*
X60616550Y-134191340D01*
X60432957Y-134091091D01*
X60432958Y-134091091D01*
X60164895Y-133991109D01*
X59885362Y-133930300D01*
X59600001Y-133909891D01*
X59599999Y-133909891D01*
X59314637Y-133930300D01*
X59035104Y-133991109D01*
X58767041Y-134091091D01*
X58767035Y-134091094D01*
X58583448Y-134191339D01*
X58583448Y-134191341D01*
X59557107Y-135165000D01*
X59526131Y-135165000D01*
X59381233Y-135193822D01*
X59244742Y-135250359D01*
X59121903Y-135332437D01*
X59017437Y-135436903D01*
X58935359Y-135559742D01*
X58878822Y-135696233D01*
X58850000Y-135841131D01*
X58850000Y-135872106D01*
X57876341Y-134898448D01*
X57876339Y-134898448D01*
X57776094Y-135082035D01*
X57776091Y-135082041D01*
X57676109Y-135350104D01*
X57615300Y-135629637D01*
X57594891Y-135914998D01*
X57100500Y-135914998D01*
X57100500Y-131639522D01*
X57120185Y-131572483D01*
X57172989Y-131526728D01*
X57242147Y-131516784D01*
X57305703Y-131545809D01*
X57335383Y-131584016D01*
X57341318Y-131595873D01*
X57469574Y-131830755D01*
X57469577Y-131830761D01*
X57487978Y-131861776D01*
X57497536Y-131876650D01*
X57518129Y-131906311D01*
X57518130Y-131906312D01*
X57678528Y-132120577D01*
X57701158Y-132148659D01*
X57712756Y-132162042D01*
X57737335Y-132188439D01*
X57926559Y-132377663D01*
X57952956Y-132402242D01*
X57966339Y-132413840D01*
X57994421Y-132436470D01*
X57994429Y-132436476D01*
X57994439Y-132436484D01*
X58208683Y-132596866D01*
X58208686Y-132596868D01*
X58238331Y-132617451D01*
X58244405Y-132621353D01*
X58253216Y-132627016D01*
X58284244Y-132645425D01*
X58284250Y-132645428D01*
X58284258Y-132645433D01*
X58376865Y-132695999D01*
X58519123Y-132773678D01*
X58535249Y-132781751D01*
X58551375Y-132789824D01*
X58567467Y-132797173D01*
X58600807Y-132810984D01*
X58600816Y-132810987D01*
X58600820Y-132810989D01*
X58851574Y-132904516D01*
X58851594Y-132904522D01*
X58851595Y-132904523D01*
X58885819Y-132915913D01*
X58885827Y-132915915D01*
X58885829Y-132915916D01*
X58902805Y-132920900D01*
X58926821Y-132927029D01*
X58937761Y-132929822D01*
X59199241Y-132986703D01*
X59199245Y-132986703D01*
X59199251Y-132986705D01*
X59234758Y-132993111D01*
X59252270Y-132995629D01*
X59252291Y-132995632D01*
X59288137Y-132999486D01*
X59288151Y-132999487D01*
X59559519Y-133018896D01*
X59577536Y-133019862D01*
X59586382Y-133020178D01*
X59586414Y-133020178D01*
X59586426Y-133020179D01*
X59604409Y-133020500D01*
X67293900Y-133020500D01*
X67360939Y-133040185D01*
X67406694Y-133092989D01*
X67416638Y-133162147D01*
X67416401Y-133163150D01*
X67417737Y-133165000D01*
X69782263Y-133165000D01*
X69787508Y-133157735D01*
X69785994Y-133113675D01*
X69821726Y-133053633D01*
X69884246Y-133022441D01*
X69906101Y-133020500D01*
X73293900Y-133020500D01*
X73360939Y-133040185D01*
X73406694Y-133092989D01*
X73416638Y-133162147D01*
X73416401Y-133163150D01*
X73417737Y-133165000D01*
X75782263Y-133165000D01*
X75787508Y-133157735D01*
X75785994Y-133113675D01*
X75821726Y-133053633D01*
X75884246Y-133022441D01*
X75906101Y-133020500D01*
X83595591Y-133020500D01*
X83613573Y-133020179D01*
X83613583Y-133020178D01*
X83613618Y-133020178D01*
X83622464Y-133019862D01*
X83640481Y-133018896D01*
X83911848Y-132999487D01*
X83911849Y-132999486D01*
X83911861Y-132999486D01*
X83947707Y-132995632D01*
X83947724Y-132995629D01*
X83947729Y-132995629D01*
X83965241Y-132993111D01*
X84000748Y-132986705D01*
X84037287Y-132978756D01*
X84262237Y-132929822D01*
X84262245Y-132929820D01*
X84297194Y-132920900D01*
X84314170Y-132915916D01*
X84348425Y-132904516D01*
X84599179Y-132810989D01*
X84632530Y-132797174D01*
X84648623Y-132789824D01*
X84680876Y-132773678D01*
X84915755Y-132645425D01*
X84946783Y-132627016D01*
X84961667Y-132617451D01*
X84991316Y-132596866D01*
X85205560Y-132436484D01*
X85233670Y-132413831D01*
X85247040Y-132402245D01*
X85273436Y-132377667D01*
X85462667Y-132188436D01*
X85487245Y-132162040D01*
X85498831Y-132148670D01*
X85521484Y-132120560D01*
X85681866Y-131906316D01*
X85702451Y-131876667D01*
X85712016Y-131861783D01*
X85730425Y-131830755D01*
X85858678Y-131595876D01*
X85864617Y-131584011D01*
X85912228Y-131532876D01*
X85979927Y-131515597D01*
X86046221Y-131537663D01*
G37*
%TD.AperFunction*%
%TA.AperFunction,Conductor*%
G36*
X86042539Y-88134685D02*
G01*
X86088294Y-88187489D01*
X86099500Y-88239000D01*
X86099500Y-122390480D01*
X86079815Y-122457519D01*
X86027011Y-122503274D01*
X85957853Y-122513218D01*
X85894297Y-122484193D01*
X85864618Y-122445989D01*
X85858673Y-122434113D01*
X85730433Y-122199258D01*
X85730425Y-122199244D01*
X85712016Y-122168216D01*
X85702451Y-122153332D01*
X85681864Y-122123681D01*
X85669684Y-122107410D01*
X85521492Y-121909449D01*
X85498829Y-121881326D01*
X85487242Y-121867956D01*
X85462663Y-121841559D01*
X85273439Y-121652335D01*
X85247042Y-121627756D01*
X85233659Y-121616158D01*
X85205577Y-121593528D01*
X85158546Y-121558321D01*
X85104699Y-121518011D01*
X84991312Y-121433130D01*
X84991308Y-121433127D01*
X84961644Y-121412531D01*
X84950315Y-121405252D01*
X84946776Y-121402978D01*
X84915761Y-121384577D01*
X84680884Y-121256324D01*
X84648591Y-121240159D01*
X84632530Y-121232824D01*
X84611060Y-121223931D01*
X84599177Y-121219009D01*
X84599171Y-121219007D01*
X84599162Y-121219003D01*
X84585488Y-121213902D01*
X84585439Y-121213885D01*
X84437323Y-121158640D01*
X84348417Y-121125480D01*
X84348411Y-121125478D01*
X84348395Y-121125472D01*
X84314171Y-121114082D01*
X84297208Y-121109102D01*
X84262246Y-121100178D01*
X84000747Y-121043294D01*
X84000744Y-121043293D01*
X84000742Y-121043293D01*
X83995939Y-121042426D01*
X83965261Y-121036890D01*
X83947748Y-121034371D01*
X83922607Y-121031668D01*
X83911850Y-121030512D01*
X83911841Y-121030511D01*
X83911838Y-121030511D01*
X83640468Y-121011103D01*
X83622497Y-121010139D01*
X83613574Y-121009820D01*
X83595591Y-121009500D01*
X83595572Y-121009500D01*
X80024500Y-121009500D01*
X79957461Y-120989815D01*
X79911706Y-120937011D01*
X79900500Y-120885500D01*
X79900500Y-119481968D01*
X79873581Y-119346641D01*
X79873580Y-119346640D01*
X79873580Y-119346636D01*
X79851707Y-119293830D01*
X79820777Y-119219156D01*
X79744112Y-119104418D01*
X79744111Y-119104417D01*
X79316373Y-118676680D01*
X79282888Y-118615357D01*
X79287872Y-118545666D01*
X79329743Y-118489732D01*
X79395208Y-118465315D01*
X79404054Y-118464999D01*
X79949972Y-118464999D01*
X79949986Y-118464998D01*
X80052697Y-118454505D01*
X80219119Y-118399358D01*
X80219124Y-118399356D01*
X80368345Y-118307315D01*
X80492315Y-118183345D01*
X80584356Y-118034124D01*
X80584358Y-118034119D01*
X80639505Y-117867697D01*
X80639506Y-117867690D01*
X80649999Y-117764986D01*
X80650000Y-117764973D01*
X80650000Y-116265000D01*
X77750001Y-116265000D01*
X77750001Y-117732403D01*
X77730316Y-117799442D01*
X77698887Y-117832720D01*
X77609791Y-117897453D01*
X77609782Y-117897460D01*
X77490158Y-118030318D01*
X77400768Y-118185146D01*
X77400765Y-118185152D01*
X77345522Y-118355174D01*
X77345521Y-118355176D01*
X77326833Y-118532982D01*
X77345521Y-118710787D01*
X77345522Y-118710789D01*
X77400765Y-118880811D01*
X77400768Y-118880817D01*
X77490159Y-119035647D01*
X77531830Y-119081928D01*
X77609782Y-119168503D01*
X77609785Y-119168505D01*
X77609788Y-119168508D01*
X77754425Y-119273594D01*
X77917751Y-119346311D01*
X77992231Y-119362142D01*
X78053710Y-119395333D01*
X78054129Y-119395750D01*
X78463181Y-119804802D01*
X78496666Y-119866125D01*
X78499500Y-119892483D01*
X78499500Y-120885500D01*
X78479815Y-120952539D01*
X78427011Y-120998294D01*
X78375500Y-121009500D01*
X64147454Y-121009500D01*
X64129496Y-121009819D01*
X64120703Y-121010132D01*
X64102700Y-121011093D01*
X64075341Y-121013044D01*
X64075329Y-121013045D01*
X63942254Y-121022529D01*
X63873985Y-121007660D01*
X63824592Y-120958242D01*
X63809757Y-120889966D01*
X63818878Y-120851390D01*
X63820775Y-120846811D01*
X63873580Y-120719328D01*
X63900500Y-120583993D01*
X63900500Y-117764986D01*
X64950001Y-117764986D01*
X64960494Y-117867697D01*
X65015641Y-118034119D01*
X65015643Y-118034124D01*
X65107684Y-118183345D01*
X65231654Y-118307315D01*
X65380875Y-118399356D01*
X65380880Y-118399358D01*
X65547302Y-118454505D01*
X65547309Y-118454506D01*
X65650019Y-118464999D01*
X65899999Y-118464999D01*
X66900000Y-118464999D01*
X67149972Y-118464999D01*
X67149986Y-118464998D01*
X67252697Y-118454505D01*
X67419119Y-118399358D01*
X67419124Y-118399356D01*
X67568345Y-118307315D01*
X67692315Y-118183345D01*
X67784356Y-118034124D01*
X67784358Y-118034119D01*
X67839505Y-117867697D01*
X67839506Y-117867690D01*
X67849999Y-117764986D01*
X67850000Y-117764973D01*
X67850000Y-116265000D01*
X66900000Y-116265000D01*
X66900000Y-118464999D01*
X65899999Y-118464999D01*
X65900000Y-118464998D01*
X65900000Y-116265000D01*
X64950001Y-116265000D01*
X64950001Y-117764986D01*
X63900500Y-117764986D01*
X63900500Y-113765013D01*
X64950000Y-113765013D01*
X64950000Y-115265000D01*
X65900000Y-115265000D01*
X66900000Y-115265000D01*
X67849999Y-115265000D01*
X67849999Y-113765028D01*
X67849998Y-113765013D01*
X77750000Y-113765013D01*
X77750000Y-115265000D01*
X78700000Y-115265000D01*
X79700000Y-115265000D01*
X80649999Y-115265000D01*
X80649999Y-113765028D01*
X80649998Y-113765013D01*
X80639505Y-113662302D01*
X80584358Y-113495880D01*
X80584356Y-113495875D01*
X80492315Y-113346654D01*
X80368345Y-113222684D01*
X80219124Y-113130643D01*
X80219119Y-113130641D01*
X80052697Y-113075494D01*
X80052690Y-113075493D01*
X79949986Y-113065000D01*
X79700000Y-113065000D01*
X79700000Y-115265000D01*
X78700000Y-115265000D01*
X78700000Y-113065000D01*
X78450029Y-113065000D01*
X78450012Y-113065001D01*
X78347302Y-113075494D01*
X78180880Y-113130641D01*
X78180875Y-113130643D01*
X78031654Y-113222684D01*
X77907684Y-113346654D01*
X77815643Y-113495875D01*
X77815641Y-113495880D01*
X77760494Y-113662302D01*
X77760493Y-113662309D01*
X77750000Y-113765013D01*
X67849998Y-113765013D01*
X67839505Y-113662302D01*
X67784358Y-113495880D01*
X67784356Y-113495875D01*
X67692315Y-113346654D01*
X67568345Y-113222684D01*
X67419124Y-113130643D01*
X67419119Y-113130641D01*
X67252697Y-113075494D01*
X67252690Y-113075493D01*
X67149986Y-113065000D01*
X66900000Y-113065000D01*
X66900000Y-115265000D01*
X65900000Y-115265000D01*
X65900000Y-113065000D01*
X65650029Y-113065000D01*
X65650012Y-113065001D01*
X65547302Y-113075494D01*
X65380880Y-113130641D01*
X65380875Y-113130643D01*
X65231654Y-113222684D01*
X65107684Y-113346654D01*
X65015643Y-113495875D01*
X65015641Y-113495880D01*
X64960494Y-113662302D01*
X64960493Y-113662309D01*
X64950000Y-113765013D01*
X63900500Y-113765013D01*
X63900500Y-112856518D01*
X63920185Y-112789479D01*
X63936815Y-112768841D01*
X64817771Y-111887884D01*
X64836559Y-111872466D01*
X64856543Y-111859114D01*
X67694114Y-109021543D01*
X67770775Y-108906811D01*
X67823580Y-108779329D01*
X67824379Y-108775311D01*
X67856762Y-108713400D01*
X67917477Y-108678823D01*
X67945988Y-108675499D01*
X68917872Y-108675499D01*
X68977483Y-108669091D01*
X69011667Y-108656340D01*
X69081358Y-108651357D01*
X69098327Y-108656338D01*
X69132517Y-108669091D01*
X69192127Y-108675500D01*
X70187872Y-108675499D01*
X70247483Y-108669091D01*
X70281667Y-108656340D01*
X70351358Y-108651357D01*
X70368327Y-108656338D01*
X70402517Y-108669091D01*
X70462127Y-108675500D01*
X71457872Y-108675499D01*
X71517483Y-108669091D01*
X71551667Y-108656340D01*
X71621358Y-108651357D01*
X71638327Y-108656338D01*
X71672517Y-108669091D01*
X71732127Y-108675500D01*
X72727872Y-108675499D01*
X72787483Y-108669091D01*
X72821667Y-108656340D01*
X72891358Y-108651357D01*
X72908327Y-108656338D01*
X72942517Y-108669091D01*
X73002127Y-108675500D01*
X73997872Y-108675499D01*
X74057483Y-108669091D01*
X74091667Y-108656340D01*
X74161358Y-108651357D01*
X74178327Y-108656338D01*
X74212517Y-108669091D01*
X74272127Y-108675500D01*
X75267872Y-108675499D01*
X75327483Y-108669091D01*
X75361667Y-108656340D01*
X75431358Y-108651357D01*
X75448327Y-108656338D01*
X75482517Y-108669091D01*
X75542127Y-108675500D01*
X76537872Y-108675499D01*
X76597483Y-108669091D01*
X76632381Y-108656074D01*
X76702069Y-108651089D01*
X76719050Y-108656075D01*
X76752623Y-108668598D01*
X76812155Y-108674999D01*
X76812172Y-108675000D01*
X76860000Y-108675000D01*
X77760000Y-108675000D01*
X77807828Y-108675000D01*
X77807844Y-108674999D01*
X77867372Y-108668598D01*
X77867379Y-108668596D01*
X78002086Y-108618354D01*
X78002093Y-108618350D01*
X78117187Y-108532190D01*
X78117190Y-108532187D01*
X78203350Y-108417093D01*
X78203354Y-108417086D01*
X78253596Y-108282379D01*
X78253598Y-108282372D01*
X78259999Y-108222844D01*
X78260000Y-108222827D01*
X78260000Y-107875000D01*
X77760000Y-107875000D01*
X77760000Y-108675000D01*
X76860000Y-108675000D01*
X76860000Y-108557180D01*
X76879685Y-108490141D01*
X76884721Y-108482885D01*
X76933796Y-108417331D01*
X76984091Y-108282483D01*
X76990500Y-108222873D01*
X76990499Y-106975000D01*
X77760000Y-106975000D01*
X78260000Y-106975000D01*
X78260000Y-106627172D01*
X78259999Y-106627155D01*
X78253598Y-106567627D01*
X78253596Y-106567620D01*
X78203354Y-106432913D01*
X78203350Y-106432906D01*
X78117190Y-106317812D01*
X78117187Y-106317809D01*
X78002093Y-106231649D01*
X78002086Y-106231645D01*
X77867379Y-106181403D01*
X77867372Y-106181401D01*
X77807844Y-106175000D01*
X77760000Y-106175000D01*
X77760000Y-106975000D01*
X76990499Y-106975000D01*
X76990499Y-106627128D01*
X76984091Y-106567517D01*
X76933884Y-106432906D01*
X76933797Y-106432671D01*
X76933795Y-106432668D01*
X76884733Y-106367129D01*
X76860316Y-106301664D01*
X76860000Y-106292818D01*
X76860000Y-106175000D01*
X76812155Y-106175000D01*
X76752627Y-106181401D01*
X76752619Y-106181403D01*
X76719047Y-106193925D01*
X76649355Y-106198909D01*
X76632381Y-106193925D01*
X76597482Y-106180908D01*
X76597483Y-106180908D01*
X76537883Y-106174501D01*
X76537881Y-106174500D01*
X76537873Y-106174500D01*
X76537864Y-106174500D01*
X75542129Y-106174500D01*
X75542123Y-106174501D01*
X75482518Y-106180908D01*
X75448331Y-106193659D01*
X75378639Y-106198642D01*
X75361669Y-106193659D01*
X75344140Y-106187121D01*
X75327483Y-106180909D01*
X75327482Y-106180908D01*
X75267883Y-106174501D01*
X75267881Y-106174500D01*
X75267873Y-106174500D01*
X75267864Y-106174500D01*
X74272129Y-106174500D01*
X74272123Y-106174501D01*
X74212518Y-106180908D01*
X74178331Y-106193659D01*
X74108639Y-106198642D01*
X74091669Y-106193659D01*
X74074140Y-106187121D01*
X74057483Y-106180909D01*
X74057482Y-106180908D01*
X73997883Y-106174501D01*
X73997881Y-106174500D01*
X73997873Y-106174500D01*
X73997864Y-106174500D01*
X73002129Y-106174500D01*
X73002123Y-106174501D01*
X72942518Y-106180908D01*
X72908331Y-106193659D01*
X72838639Y-106198642D01*
X72821669Y-106193659D01*
X72804140Y-106187121D01*
X72787483Y-106180909D01*
X72787482Y-106180908D01*
X72727883Y-106174501D01*
X72727881Y-106174500D01*
X72727873Y-106174500D01*
X72727864Y-106174500D01*
X71732129Y-106174500D01*
X71732123Y-106174501D01*
X71672518Y-106180908D01*
X71638331Y-106193659D01*
X71568639Y-106198642D01*
X71551669Y-106193659D01*
X71534140Y-106187121D01*
X71517483Y-106180909D01*
X71517482Y-106180908D01*
X71457883Y-106174501D01*
X71457881Y-106174500D01*
X71457873Y-106174500D01*
X71457864Y-106174500D01*
X70462129Y-106174500D01*
X70462123Y-106174501D01*
X70402518Y-106180908D01*
X70368331Y-106193659D01*
X70298639Y-106198642D01*
X70281669Y-106193659D01*
X70264140Y-106187121D01*
X70247483Y-106180909D01*
X70247482Y-106180908D01*
X70187883Y-106174501D01*
X70187881Y-106174500D01*
X70187873Y-106174500D01*
X70187864Y-106174500D01*
X69192129Y-106174500D01*
X69192123Y-106174501D01*
X69132518Y-106180908D01*
X69098331Y-106193659D01*
X69028639Y-106198642D01*
X69011669Y-106193659D01*
X68994140Y-106187121D01*
X68977483Y-106180909D01*
X68977482Y-106180908D01*
X68917883Y-106174501D01*
X68917881Y-106174500D01*
X68917873Y-106174500D01*
X68917864Y-106174500D01*
X67922129Y-106174500D01*
X67922123Y-106174501D01*
X67862518Y-106180908D01*
X67828331Y-106193659D01*
X67758639Y-106198642D01*
X67741669Y-106193659D01*
X67724140Y-106187121D01*
X67707483Y-106180909D01*
X67707482Y-106180908D01*
X67647883Y-106174501D01*
X67647881Y-106174500D01*
X67647873Y-106174500D01*
X67647864Y-106174500D01*
X66652129Y-106174500D01*
X66652123Y-106174501D01*
X66592518Y-106180908D01*
X66558331Y-106193659D01*
X66488639Y-106198642D01*
X66471669Y-106193659D01*
X66454140Y-106187121D01*
X66437483Y-106180909D01*
X66437482Y-106180908D01*
X66377883Y-106174501D01*
X66377881Y-106174500D01*
X66377873Y-106174500D01*
X66377864Y-106174500D01*
X65382129Y-106174500D01*
X65382123Y-106174501D01*
X65322516Y-106180908D01*
X65187671Y-106231202D01*
X65187664Y-106231206D01*
X65072455Y-106317452D01*
X65072452Y-106317455D01*
X64986206Y-106432664D01*
X64986202Y-106432671D01*
X64935908Y-106567517D01*
X64929501Y-106627116D01*
X64929501Y-106627123D01*
X64929500Y-106627135D01*
X64929500Y-108160071D01*
X64909815Y-108227110D01*
X64857011Y-108272865D01*
X64831282Y-108281361D01*
X64735732Y-108301671D01*
X64735728Y-108301672D01*
X64572408Y-108374388D01*
X64572403Y-108374390D01*
X64549793Y-108390818D01*
X64483986Y-108414298D01*
X64476908Y-108414500D01*
X62123093Y-108414500D01*
X62056054Y-108394815D01*
X62050208Y-108390818D01*
X62027597Y-108374390D01*
X62027593Y-108374388D01*
X61864267Y-108301671D01*
X61864265Y-108301670D01*
X61728745Y-108272865D01*
X61689391Y-108264500D01*
X61510609Y-108264500D01*
X61479954Y-108271015D01*
X61335733Y-108301670D01*
X61335728Y-108301672D01*
X61172408Y-108374387D01*
X61027768Y-108479475D01*
X60908140Y-108612336D01*
X60818750Y-108767164D01*
X60818747Y-108767170D01*
X60763504Y-108937192D01*
X60763503Y-108937194D01*
X60744815Y-109115000D01*
X60763503Y-109292805D01*
X60763504Y-109292807D01*
X60818747Y-109462829D01*
X60818750Y-109462835D01*
X60908141Y-109617665D01*
X60949812Y-109663946D01*
X61027764Y-109750521D01*
X61027767Y-109750523D01*
X61027770Y-109750526D01*
X61172407Y-109855612D01*
X61335733Y-109928329D01*
X61510609Y-109965500D01*
X61510610Y-109965500D01*
X61689389Y-109965500D01*
X61689391Y-109965500D01*
X61864267Y-109928329D01*
X62027593Y-109855612D01*
X62029757Y-109854039D01*
X62050208Y-109839182D01*
X62116015Y-109815702D01*
X62123093Y-109815500D01*
X64476907Y-109815500D01*
X64543946Y-109835185D01*
X64549792Y-109839182D01*
X64572402Y-109855609D01*
X64572403Y-109855609D01*
X64572407Y-109855612D01*
X64619540Y-109876596D01*
X64672776Y-109921844D01*
X64693098Y-109988693D01*
X64674054Y-110055917D01*
X64656785Y-110077556D01*
X63992229Y-110742112D01*
X63973443Y-110757530D01*
X63953463Y-110770881D01*
X63953454Y-110770888D01*
X62655888Y-112068453D01*
X62655887Y-112068454D01*
X62579222Y-112183192D01*
X62526421Y-112310667D01*
X62526418Y-112310677D01*
X62499500Y-112446004D01*
X62499500Y-120173481D01*
X62479815Y-120240520D01*
X62463181Y-120261162D01*
X61146162Y-121578181D01*
X61084839Y-121611666D01*
X61058481Y-121614500D01*
X60201802Y-121614500D01*
X60134763Y-121594815D01*
X60097993Y-121558321D01*
X59988166Y-121390217D01*
X59966557Y-121366744D01*
X59819744Y-121207262D01*
X59623509Y-121054526D01*
X59623507Y-121054525D01*
X59623506Y-121054524D01*
X59404811Y-120936172D01*
X59404802Y-120936169D01*
X59169616Y-120855429D01*
X58924335Y-120814500D01*
X58675665Y-120814500D01*
X58430383Y-120855429D01*
X58195197Y-120936169D01*
X58195188Y-120936172D01*
X57976493Y-121054524D01*
X57780257Y-121207261D01*
X57611833Y-121390217D01*
X57475826Y-121598393D01*
X57375936Y-121826118D01*
X57344706Y-121949446D01*
X57309166Y-122009602D01*
X57246746Y-122040994D01*
X57177262Y-122033656D01*
X57122777Y-121989917D01*
X57100588Y-121923664D01*
X57100500Y-121919006D01*
X57100500Y-118310993D01*
X57120185Y-118243954D01*
X57172989Y-118198199D01*
X57242147Y-118188255D01*
X57305703Y-118217280D01*
X57343477Y-118276058D01*
X57344706Y-118280553D01*
X57375937Y-118403881D01*
X57475826Y-118631606D01*
X57611833Y-118839782D01*
X57611836Y-118839785D01*
X57780256Y-119022738D01*
X57976491Y-119175474D01*
X58195190Y-119293828D01*
X58430386Y-119374571D01*
X58675665Y-119415500D01*
X58924335Y-119415500D01*
X59169614Y-119374571D01*
X59404810Y-119293828D01*
X59623509Y-119175474D01*
X59819744Y-119022738D01*
X59988164Y-118839785D01*
X60124173Y-118631607D01*
X60224063Y-118403881D01*
X60285108Y-118162821D01*
X60295773Y-118034119D01*
X60305643Y-117915005D01*
X60305643Y-117914994D01*
X60285109Y-117667187D01*
X60285107Y-117667175D01*
X60224063Y-117426118D01*
X60124173Y-117198393D01*
X59988166Y-116990217D01*
X59966557Y-116966744D01*
X59819744Y-116807262D01*
X59623509Y-116654526D01*
X59623507Y-116654525D01*
X59623506Y-116654524D01*
X59404811Y-116536172D01*
X59404802Y-116536169D01*
X59169616Y-116455429D01*
X58924335Y-116414500D01*
X58675665Y-116414500D01*
X58430383Y-116455429D01*
X58195197Y-116536169D01*
X58195188Y-116536172D01*
X57976493Y-116654524D01*
X57780257Y-116807261D01*
X57611833Y-116990217D01*
X57475826Y-117198393D01*
X57375936Y-117426118D01*
X57344706Y-117549446D01*
X57309166Y-117609602D01*
X57246746Y-117640994D01*
X57177262Y-117633656D01*
X57122777Y-117589917D01*
X57100588Y-117523664D01*
X57100500Y-117519006D01*
X57100500Y-114910993D01*
X57120185Y-114843954D01*
X57172989Y-114798199D01*
X57242147Y-114788255D01*
X57305703Y-114817280D01*
X57343477Y-114876058D01*
X57344706Y-114880553D01*
X57375937Y-115003881D01*
X57475826Y-115231606D01*
X57611833Y-115439782D01*
X57611836Y-115439785D01*
X57780256Y-115622738D01*
X57976491Y-115775474D01*
X58195190Y-115893828D01*
X58430386Y-115974571D01*
X58675665Y-116015500D01*
X58924335Y-116015500D01*
X59169614Y-115974571D01*
X59404810Y-115893828D01*
X59623509Y-115775474D01*
X59819744Y-115622738D01*
X59988164Y-115439785D01*
X60124173Y-115231607D01*
X60224063Y-115003881D01*
X60285108Y-114762821D01*
X60305643Y-114515000D01*
X60285108Y-114267179D01*
X60276619Y-114233656D01*
X60224063Y-114026118D01*
X60124173Y-113798393D01*
X59988166Y-113590217D01*
X59966557Y-113566744D01*
X59819744Y-113407262D01*
X59623509Y-113254526D01*
X59623507Y-113254525D01*
X59623506Y-113254524D01*
X59404811Y-113136172D01*
X59404802Y-113136169D01*
X59169616Y-113055429D01*
X58924335Y-113014500D01*
X58675665Y-113014500D01*
X58430383Y-113055429D01*
X58195197Y-113136169D01*
X58195188Y-113136172D01*
X57976493Y-113254524D01*
X57780257Y-113407261D01*
X57611833Y-113590217D01*
X57475826Y-113798393D01*
X57375936Y-114026118D01*
X57344706Y-114149446D01*
X57309166Y-114209602D01*
X57246746Y-114240994D01*
X57177262Y-114233656D01*
X57122777Y-114189917D01*
X57100588Y-114123664D01*
X57100500Y-114119006D01*
X57100500Y-112469960D01*
X58152143Y-112469960D01*
X58152143Y-112469962D01*
X58195395Y-112493369D01*
X58430506Y-112574083D01*
X58675707Y-112615000D01*
X58924293Y-112615000D01*
X59169493Y-112574083D01*
X59404605Y-112493369D01*
X59404612Y-112493366D01*
X59447855Y-112469962D01*
X59447856Y-112469961D01*
X58800001Y-111822106D01*
X58800000Y-111822106D01*
X58152143Y-112469960D01*
X57100500Y-112469960D01*
X57100500Y-111508955D01*
X57120185Y-111441916D01*
X57172989Y-111396161D01*
X57242147Y-111386217D01*
X57305703Y-111415242D01*
X57343477Y-111474020D01*
X57344706Y-111478515D01*
X57376411Y-111603716D01*
X57445856Y-111762036D01*
X58092894Y-111115000D01*
X58027068Y-111049174D01*
X58300000Y-111049174D01*
X58300000Y-111180826D01*
X58334075Y-111307993D01*
X58399901Y-111422007D01*
X58492993Y-111515099D01*
X58607007Y-111580925D01*
X58734174Y-111615000D01*
X58865826Y-111615000D01*
X58992993Y-111580925D01*
X59107007Y-111515099D01*
X59200099Y-111422007D01*
X59265925Y-111307993D01*
X59300000Y-111180826D01*
X59300000Y-111114999D01*
X59507106Y-111114999D01*
X59507106Y-111115001D01*
X60154142Y-111762037D01*
X60154143Y-111762036D01*
X60223587Y-111603719D01*
X60284612Y-111362738D01*
X60284614Y-111362729D01*
X60305141Y-111115005D01*
X60305141Y-111114994D01*
X60284614Y-110867270D01*
X60284612Y-110867261D01*
X60223587Y-110626282D01*
X60154142Y-110467961D01*
X59507106Y-111114999D01*
X59300000Y-111114999D01*
X59300000Y-111049174D01*
X59265925Y-110922007D01*
X59200099Y-110807993D01*
X59107007Y-110714901D01*
X58992993Y-110649075D01*
X58865826Y-110615000D01*
X58734174Y-110615000D01*
X58607007Y-110649075D01*
X58492993Y-110714901D01*
X58399901Y-110807993D01*
X58334075Y-110922007D01*
X58300000Y-111049174D01*
X58027068Y-111049174D01*
X57445856Y-110467962D01*
X57445855Y-110467962D01*
X57376413Y-110626279D01*
X57376412Y-110626281D01*
X57344706Y-110751485D01*
X57309166Y-110811640D01*
X57246745Y-110843032D01*
X57177262Y-110835694D01*
X57122777Y-110791955D01*
X57100588Y-110725702D01*
X57100500Y-110721044D01*
X57100500Y-109760036D01*
X58152143Y-109760036D01*
X58152143Y-109760037D01*
X58800000Y-110407894D01*
X58800001Y-110407894D01*
X59447855Y-109760037D01*
X59447855Y-109760036D01*
X59404603Y-109736630D01*
X59404601Y-109736629D01*
X59169493Y-109655916D01*
X58924293Y-109615000D01*
X58675707Y-109615000D01*
X58430506Y-109655916D01*
X58195396Y-109736630D01*
X58195385Y-109736635D01*
X58152143Y-109760036D01*
X57100500Y-109760036D01*
X57100500Y-99756558D01*
X57112523Y-99715609D01*
X57110704Y-99711996D01*
X57337290Y-99711996D01*
X57343477Y-99721623D01*
X57347820Y-99743591D01*
X57355972Y-99821148D01*
X57363503Y-99892805D01*
X57363504Y-99892807D01*
X57418747Y-100062829D01*
X57418750Y-100062835D01*
X57508141Y-100217665D01*
X57549812Y-100263946D01*
X57627764Y-100350521D01*
X57627767Y-100350523D01*
X57627770Y-100350526D01*
X57772407Y-100455612D01*
X57935733Y-100528329D01*
X58110609Y-100565500D01*
X58110610Y-100565500D01*
X58289389Y-100565500D01*
X58289391Y-100565500D01*
X58464267Y-100528329D01*
X58627593Y-100455612D01*
X58727114Y-100383304D01*
X58792920Y-100359824D01*
X58860974Y-100375649D01*
X58872886Y-100383305D01*
X58972401Y-100455608D01*
X58972402Y-100455609D01*
X58972404Y-100455610D01*
X58972407Y-100455612D01*
X59135733Y-100528329D01*
X59310609Y-100565500D01*
X59310610Y-100565500D01*
X59489389Y-100565500D01*
X59489391Y-100565500D01*
X59664267Y-100528329D01*
X59827593Y-100455612D01*
X59972230Y-100350526D01*
X60091859Y-100217665D01*
X60181250Y-100062835D01*
X60221674Y-99938421D01*
X60261110Y-99880748D01*
X60325468Y-99853549D01*
X60390037Y-99863461D01*
X60535733Y-99928329D01*
X60710609Y-99965500D01*
X60710610Y-99965500D01*
X60889389Y-99965500D01*
X60889391Y-99965500D01*
X61064267Y-99928329D01*
X61227593Y-99855612D01*
X61372230Y-99750526D01*
X61372234Y-99750520D01*
X61372237Y-99750519D01*
X61383348Y-99738179D01*
X61442833Y-99701528D01*
X61512690Y-99702856D01*
X61570740Y-99741741D01*
X61598551Y-99805837D01*
X61599500Y-99821148D01*
X61599500Y-100322870D01*
X61599501Y-100322876D01*
X61605908Y-100382481D01*
X61618659Y-100416669D01*
X61623642Y-100486361D01*
X61618659Y-100503331D01*
X61605908Y-100537518D01*
X61602900Y-100565500D01*
X61599501Y-100597123D01*
X61599500Y-100597135D01*
X61599500Y-101592870D01*
X61599501Y-101592876D01*
X61605908Y-101652481D01*
X61618659Y-101686669D01*
X61623642Y-101756361D01*
X61618659Y-101773331D01*
X61605908Y-101807518D01*
X61599501Y-101867116D01*
X61599501Y-101867123D01*
X61599500Y-101867135D01*
X61599500Y-102862870D01*
X61599501Y-102862876D01*
X61605908Y-102922481D01*
X61618659Y-102956669D01*
X61623642Y-103026361D01*
X61618659Y-103043331D01*
X61605908Y-103077518D01*
X61599501Y-103137116D01*
X61599501Y-103137123D01*
X61599500Y-103137135D01*
X61599500Y-104132870D01*
X61599501Y-104132876D01*
X61605908Y-104192481D01*
X61618659Y-104226669D01*
X61623642Y-104296361D01*
X61618659Y-104313331D01*
X61605908Y-104347518D01*
X61599501Y-104407116D01*
X61599501Y-104407123D01*
X61599500Y-104407135D01*
X61599500Y-105402870D01*
X61599501Y-105402876D01*
X61605908Y-105462481D01*
X61618659Y-105496669D01*
X61623642Y-105566361D01*
X61618659Y-105583331D01*
X61605908Y-105617518D01*
X61599501Y-105677116D01*
X61599501Y-105677123D01*
X61599500Y-105677135D01*
X61599500Y-106672870D01*
X61599501Y-106672876D01*
X61605908Y-106732483D01*
X61656202Y-106867328D01*
X61656206Y-106867335D01*
X61742452Y-106982544D01*
X61742455Y-106982547D01*
X61857664Y-107068793D01*
X61857671Y-107068797D01*
X61992517Y-107119091D01*
X61992516Y-107119091D01*
X61999444Y-107119835D01*
X62052127Y-107125500D01*
X63647872Y-107125499D01*
X63707483Y-107119091D01*
X63842331Y-107068796D01*
X63957546Y-106982546D01*
X64043796Y-106867331D01*
X64094091Y-106732483D01*
X64100500Y-106672873D01*
X64100499Y-105677128D01*
X64094091Y-105617517D01*
X64081340Y-105583332D01*
X64076357Y-105513642D01*
X64081340Y-105496669D01*
X64094091Y-105462483D01*
X64100500Y-105402873D01*
X64100499Y-104407128D01*
X64094091Y-104347517D01*
X64081340Y-104313332D01*
X64076357Y-104243642D01*
X64081340Y-104226669D01*
X64094091Y-104192483D01*
X64100500Y-104132873D01*
X64100499Y-103137128D01*
X64094091Y-103077517D01*
X64081340Y-103043332D01*
X64076357Y-102973642D01*
X64081340Y-102956669D01*
X64094091Y-102922483D01*
X64100500Y-102862873D01*
X64100499Y-101867128D01*
X64094091Y-101807517D01*
X64081340Y-101773332D01*
X64076357Y-101703642D01*
X64081340Y-101686669D01*
X64094091Y-101652483D01*
X64100500Y-101592873D01*
X64100499Y-100597128D01*
X64094091Y-100537517D01*
X64081340Y-100503332D01*
X64076357Y-100433642D01*
X64081340Y-100416669D01*
X64094091Y-100382483D01*
X64100500Y-100322873D01*
X64100499Y-99327128D01*
X64094091Y-99267517D01*
X64081340Y-99233332D01*
X64076357Y-99163642D01*
X64081340Y-99146669D01*
X64094091Y-99112483D01*
X64095127Y-99102844D01*
X69730000Y-99102844D01*
X69736401Y-99162372D01*
X69736403Y-99162379D01*
X69786645Y-99297086D01*
X69786649Y-99297093D01*
X69872809Y-99412187D01*
X69872812Y-99412190D01*
X69987906Y-99498350D01*
X69987913Y-99498354D01*
X70122620Y-99548596D01*
X70122627Y-99548598D01*
X70182155Y-99554999D01*
X70182172Y-99555000D01*
X70255000Y-99555000D01*
X71255000Y-99555000D01*
X71327828Y-99555000D01*
X71327844Y-99554999D01*
X71387377Y-99548597D01*
X71387379Y-99548597D01*
X71474165Y-99516227D01*
X71543857Y-99511241D01*
X71560835Y-99516227D01*
X71647621Y-99548597D01*
X71707155Y-99554999D01*
X71707172Y-99555000D01*
X71780000Y-99555000D01*
X72780000Y-99555000D01*
X72852828Y-99555000D01*
X72852844Y-99554999D01*
X72912377Y-99548597D01*
X72912379Y-99548597D01*
X72999165Y-99516227D01*
X73068857Y-99511241D01*
X73085835Y-99516227D01*
X73172621Y-99548597D01*
X73232155Y-99554999D01*
X73232172Y-99555000D01*
X73305000Y-99555000D01*
X74305000Y-99555000D01*
X74377828Y-99555000D01*
X74377844Y-99554999D01*
X74437372Y-99548598D01*
X74437379Y-99548596D01*
X74572086Y-99498354D01*
X74572093Y-99498350D01*
X74687187Y-99412190D01*
X74687190Y-99412187D01*
X74773350Y-99297093D01*
X74773354Y-99297086D01*
X74823596Y-99162379D01*
X74823598Y-99162372D01*
X74829999Y-99102844D01*
X74830000Y-99102827D01*
X74830000Y-99030000D01*
X74305000Y-99030000D01*
X74305000Y-99555000D01*
X73305000Y-99555000D01*
X73305000Y-99030000D01*
X72780000Y-99030000D01*
X72780000Y-99555000D01*
X71780000Y-99555000D01*
X71780000Y-99030000D01*
X71255000Y-99030000D01*
X71255000Y-99555000D01*
X70255000Y-99555000D01*
X70255000Y-99030000D01*
X69730000Y-99030000D01*
X69730000Y-99102844D01*
X64095127Y-99102844D01*
X64100500Y-99052873D01*
X64100499Y-98057128D01*
X64094091Y-97997517D01*
X64081340Y-97963332D01*
X64076357Y-97893642D01*
X64081340Y-97876669D01*
X64094091Y-97842483D01*
X64100500Y-97782873D01*
X64100500Y-97577844D01*
X69730000Y-97577844D01*
X69736401Y-97637372D01*
X69736403Y-97637383D01*
X69768772Y-97724168D01*
X69773756Y-97793859D01*
X69768772Y-97810832D01*
X69736403Y-97897616D01*
X69736401Y-97897627D01*
X69730000Y-97957155D01*
X69730000Y-98030000D01*
X70255000Y-98030000D01*
X71255000Y-98030000D01*
X71780000Y-98030000D01*
X72780000Y-98030000D01*
X73305000Y-98030000D01*
X74305000Y-98030000D01*
X74830000Y-98030000D01*
X74830000Y-97957172D01*
X74829999Y-97957155D01*
X74823597Y-97897622D01*
X74823597Y-97897620D01*
X74791227Y-97810835D01*
X74786241Y-97741143D01*
X74791227Y-97724165D01*
X74823597Y-97637379D01*
X74823597Y-97637377D01*
X74829999Y-97577844D01*
X74830000Y-97577827D01*
X74830000Y-97505000D01*
X74305000Y-97505000D01*
X74305000Y-98030000D01*
X73305000Y-98030000D01*
X73305000Y-97505000D01*
X72780000Y-97505000D01*
X72780000Y-98030000D01*
X71780000Y-98030000D01*
X71780000Y-97505000D01*
X71255000Y-97505000D01*
X71255000Y-98030000D01*
X70255000Y-98030000D01*
X70255000Y-97505000D01*
X69730000Y-97505000D01*
X69730000Y-97577844D01*
X64100500Y-97577844D01*
X64100499Y-96787128D01*
X64094091Y-96727517D01*
X64081340Y-96693332D01*
X64076357Y-96623642D01*
X64081340Y-96606669D01*
X64094091Y-96572483D01*
X64100500Y-96512873D01*
X64100500Y-96052844D01*
X69730000Y-96052844D01*
X69736401Y-96112372D01*
X69736403Y-96112383D01*
X69768772Y-96199168D01*
X69773756Y-96268859D01*
X69768772Y-96285832D01*
X69736403Y-96372616D01*
X69736401Y-96372627D01*
X69730000Y-96432155D01*
X69730000Y-96505000D01*
X70255000Y-96505000D01*
X71255000Y-96505000D01*
X71780000Y-96505000D01*
X72780000Y-96505000D01*
X73305000Y-96505000D01*
X74305000Y-96505000D01*
X74830000Y-96505000D01*
X74830000Y-96432172D01*
X74829999Y-96432155D01*
X74823597Y-96372622D01*
X74823597Y-96372620D01*
X74791227Y-96285835D01*
X74786241Y-96216143D01*
X74791227Y-96199165D01*
X74823597Y-96112379D01*
X74823597Y-96112377D01*
X74829999Y-96052844D01*
X74830000Y-96052827D01*
X74830000Y-95980000D01*
X74305000Y-95980000D01*
X74305000Y-96505000D01*
X73305000Y-96505000D01*
X73305000Y-95980000D01*
X72780000Y-95980000D01*
X72780000Y-96505000D01*
X71780000Y-96505000D01*
X71780000Y-95980000D01*
X71255000Y-95980000D01*
X71255000Y-96505000D01*
X70255000Y-96505000D01*
X70255000Y-95980000D01*
X69730000Y-95980000D01*
X69730000Y-96052844D01*
X64100500Y-96052844D01*
X64100499Y-95517128D01*
X64094091Y-95457517D01*
X64081340Y-95423332D01*
X64076357Y-95353642D01*
X64081340Y-95336669D01*
X64094091Y-95302483D01*
X64100500Y-95242873D01*
X64100500Y-94907155D01*
X69730000Y-94907155D01*
X69730000Y-94980000D01*
X70255000Y-94980000D01*
X71255000Y-94980000D01*
X71780000Y-94980000D01*
X72780000Y-94980000D01*
X73305000Y-94980000D01*
X74305000Y-94980000D01*
X74830000Y-94980000D01*
X74830000Y-94907172D01*
X74829999Y-94907155D01*
X74823598Y-94847627D01*
X74823596Y-94847620D01*
X74773354Y-94712913D01*
X74773350Y-94712906D01*
X74687190Y-94597812D01*
X74687187Y-94597809D01*
X74572093Y-94511649D01*
X74572086Y-94511645D01*
X74437379Y-94461403D01*
X74437372Y-94461401D01*
X74377844Y-94455000D01*
X74305000Y-94455000D01*
X74305000Y-94980000D01*
X73305000Y-94980000D01*
X73305000Y-94455000D01*
X73232155Y-94455000D01*
X73172627Y-94461401D01*
X73172616Y-94461403D01*
X73085832Y-94493772D01*
X73016141Y-94498756D01*
X72999168Y-94493772D01*
X72912383Y-94461403D01*
X72912372Y-94461401D01*
X72852844Y-94455000D01*
X72780000Y-94455000D01*
X72780000Y-94980000D01*
X71780000Y-94980000D01*
X71780000Y-94455000D01*
X71707155Y-94455000D01*
X71647627Y-94461401D01*
X71647616Y-94461403D01*
X71560832Y-94493772D01*
X71491141Y-94498756D01*
X71474168Y-94493772D01*
X71387383Y-94461403D01*
X71387372Y-94461401D01*
X71327844Y-94455000D01*
X71255000Y-94455000D01*
X71255000Y-94980000D01*
X70255000Y-94980000D01*
X70255000Y-94455000D01*
X70182155Y-94455000D01*
X70122627Y-94461401D01*
X70122620Y-94461403D01*
X69987913Y-94511645D01*
X69987906Y-94511649D01*
X69872812Y-94597809D01*
X69872809Y-94597812D01*
X69786649Y-94712906D01*
X69786645Y-94712913D01*
X69736403Y-94847620D01*
X69736401Y-94847627D01*
X69730000Y-94907155D01*
X64100500Y-94907155D01*
X64100499Y-94247128D01*
X64094091Y-94187517D01*
X64081340Y-94153332D01*
X64076357Y-94083642D01*
X64081340Y-94066669D01*
X64094091Y-94032483D01*
X64100500Y-93972873D01*
X64100499Y-92977128D01*
X64094091Y-92917517D01*
X64081340Y-92883332D01*
X64076357Y-92813642D01*
X64081340Y-92796669D01*
X64094091Y-92762483D01*
X64100500Y-92702873D01*
X64100499Y-91707128D01*
X64094091Y-91647517D01*
X64081340Y-91613332D01*
X64076357Y-91543642D01*
X64081340Y-91526669D01*
X64094091Y-91492483D01*
X64100500Y-91432873D01*
X64100499Y-90437135D01*
X79099500Y-90437135D01*
X79099500Y-91432870D01*
X79099501Y-91432876D01*
X79105908Y-91492481D01*
X79118659Y-91526669D01*
X79123642Y-91596361D01*
X79118659Y-91613331D01*
X79105908Y-91647518D01*
X79099501Y-91707116D01*
X79099501Y-91707123D01*
X79099500Y-91707135D01*
X79099500Y-92702870D01*
X79099501Y-92702876D01*
X79105908Y-92762481D01*
X79118659Y-92796669D01*
X79123642Y-92866361D01*
X79118659Y-92883331D01*
X79105908Y-92917518D01*
X79099501Y-92977116D01*
X79099501Y-92977123D01*
X79099500Y-92977135D01*
X79099500Y-93972870D01*
X79099501Y-93972876D01*
X79105908Y-94032481D01*
X79118659Y-94066669D01*
X79123642Y-94136361D01*
X79118659Y-94153331D01*
X79105908Y-94187518D01*
X79099501Y-94247116D01*
X79099501Y-94247123D01*
X79099500Y-94247135D01*
X79099500Y-95242870D01*
X79099501Y-95242876D01*
X79105908Y-95302481D01*
X79118659Y-95336669D01*
X79123642Y-95406361D01*
X79118659Y-95423331D01*
X79105908Y-95457518D01*
X79104471Y-95470888D01*
X79099501Y-95517123D01*
X79099500Y-95517135D01*
X79099500Y-96512870D01*
X79099501Y-96512876D01*
X79105908Y-96572481D01*
X79118659Y-96606669D01*
X79123642Y-96676361D01*
X79118659Y-96693331D01*
X79105908Y-96727518D01*
X79099501Y-96787116D01*
X79099501Y-96787123D01*
X79099500Y-96787135D01*
X79099500Y-97782870D01*
X79099501Y-97782876D01*
X79105908Y-97842481D01*
X79118659Y-97876669D01*
X79123642Y-97946361D01*
X79118659Y-97963331D01*
X79105908Y-97997518D01*
X79099501Y-98057116D01*
X79099501Y-98057123D01*
X79099500Y-98057135D01*
X79099500Y-99052870D01*
X79099501Y-99052876D01*
X79105908Y-99112481D01*
X79118659Y-99146669D01*
X79123642Y-99216361D01*
X79118659Y-99233331D01*
X79105908Y-99267518D01*
X79102729Y-99297093D01*
X79099501Y-99327123D01*
X79099500Y-99327135D01*
X79099500Y-100322870D01*
X79099501Y-100322876D01*
X79105908Y-100382481D01*
X79118659Y-100416669D01*
X79123642Y-100486361D01*
X79118659Y-100503331D01*
X79105908Y-100537518D01*
X79102900Y-100565500D01*
X79099501Y-100597123D01*
X79099500Y-100597135D01*
X79099500Y-101592870D01*
X79099501Y-101592876D01*
X79105908Y-101652481D01*
X79118659Y-101686669D01*
X79123642Y-101756361D01*
X79118659Y-101773331D01*
X79105908Y-101807518D01*
X79099501Y-101867116D01*
X79099501Y-101867123D01*
X79099500Y-101867135D01*
X79099500Y-102862870D01*
X79099501Y-102862876D01*
X79105908Y-102922481D01*
X79118659Y-102956669D01*
X79123642Y-103026361D01*
X79118659Y-103043331D01*
X79105908Y-103077518D01*
X79099501Y-103137116D01*
X79099501Y-103137123D01*
X79099500Y-103137135D01*
X79099500Y-104132870D01*
X79099501Y-104132876D01*
X79105908Y-104192481D01*
X79118659Y-104226669D01*
X79123642Y-104296361D01*
X79118659Y-104313331D01*
X79105908Y-104347518D01*
X79099501Y-104407116D01*
X79099501Y-104407123D01*
X79099500Y-104407135D01*
X79099500Y-105402870D01*
X79099501Y-105402876D01*
X79105908Y-105462481D01*
X79118659Y-105496669D01*
X79123642Y-105566361D01*
X79118659Y-105583331D01*
X79105908Y-105617518D01*
X79099501Y-105677116D01*
X79099501Y-105677123D01*
X79099500Y-105677135D01*
X79099500Y-106672870D01*
X79099501Y-106672876D01*
X79105908Y-106732483D01*
X79156202Y-106867328D01*
X79156206Y-106867335D01*
X79242452Y-106982544D01*
X79242455Y-106982547D01*
X79357664Y-107068793D01*
X79357671Y-107068797D01*
X79492517Y-107119091D01*
X79492516Y-107119091D01*
X79499444Y-107119835D01*
X79552127Y-107125500D01*
X81147872Y-107125499D01*
X81207483Y-107119091D01*
X81342331Y-107068796D01*
X81457546Y-106982546D01*
X81543796Y-106867331D01*
X81594091Y-106732483D01*
X81600500Y-106672873D01*
X81600499Y-105677128D01*
X81594091Y-105617517D01*
X81581340Y-105583332D01*
X81576357Y-105513642D01*
X81581340Y-105496669D01*
X81594091Y-105462483D01*
X81600500Y-105402873D01*
X81600499Y-104407128D01*
X81594091Y-104347517D01*
X81581340Y-104313332D01*
X81576357Y-104243642D01*
X81581340Y-104226669D01*
X81594091Y-104192483D01*
X81600500Y-104132873D01*
X81600499Y-103137128D01*
X81594091Y-103077517D01*
X81581340Y-103043332D01*
X81576357Y-102973642D01*
X81581340Y-102956669D01*
X81594091Y-102922483D01*
X81600500Y-102862873D01*
X81600499Y-101867128D01*
X81594091Y-101807517D01*
X81581340Y-101773332D01*
X81576357Y-101703642D01*
X81581340Y-101686669D01*
X81594091Y-101652483D01*
X81600500Y-101592873D01*
X81600499Y-100597128D01*
X81594091Y-100537517D01*
X81581340Y-100503332D01*
X81576357Y-100433642D01*
X81581340Y-100416669D01*
X81594091Y-100382483D01*
X81600500Y-100322873D01*
X81600499Y-99327128D01*
X81594091Y-99267517D01*
X81581340Y-99233332D01*
X81576357Y-99163642D01*
X81581340Y-99146669D01*
X81594091Y-99112483D01*
X81600500Y-99052873D01*
X81600499Y-98057128D01*
X81594091Y-97997517D01*
X81581340Y-97963332D01*
X81576357Y-97893642D01*
X81581340Y-97876669D01*
X81594091Y-97842483D01*
X81600500Y-97782873D01*
X81600499Y-96787128D01*
X81594091Y-96727517D01*
X81581340Y-96693332D01*
X81576357Y-96623642D01*
X81581340Y-96606669D01*
X81594091Y-96572483D01*
X81600500Y-96512873D01*
X81600499Y-95517128D01*
X81594091Y-95457517D01*
X81581340Y-95423332D01*
X81576357Y-95353642D01*
X81581340Y-95336669D01*
X81594091Y-95302483D01*
X81600500Y-95242873D01*
X81600499Y-95190517D01*
X81620182Y-95123481D01*
X81672986Y-95077726D01*
X81742144Y-95067781D01*
X81805700Y-95096805D01*
X81812180Y-95102838D01*
X81889811Y-95180469D01*
X81889813Y-95180470D01*
X81889815Y-95180472D01*
X82035394Y-95268478D01*
X82197804Y-95319086D01*
X82268384Y-95325500D01*
X82268387Y-95325500D01*
X82931613Y-95325500D01*
X82931616Y-95325500D01*
X83002196Y-95319086D01*
X83164606Y-95268478D01*
X83310185Y-95180472D01*
X83430472Y-95060185D01*
X83518478Y-94914606D01*
X83569086Y-94752196D01*
X83575500Y-94681616D01*
X83575500Y-94168384D01*
X83569086Y-94097804D01*
X83527248Y-93963541D01*
X83526099Y-93893683D01*
X83562900Y-93834291D01*
X83625969Y-93804223D01*
X83695282Y-93813027D01*
X83733316Y-93838973D01*
X83863181Y-93968838D01*
X83896666Y-94030161D01*
X83899500Y-94056519D01*
X83899500Y-95994075D01*
X83882887Y-96056075D01*
X83818750Y-96167163D01*
X83763504Y-96337192D01*
X83763503Y-96337194D01*
X83744815Y-96515000D01*
X83763503Y-96692805D01*
X83763504Y-96692807D01*
X83818747Y-96862829D01*
X83818750Y-96862835D01*
X83908141Y-97017665D01*
X83949812Y-97063946D01*
X84027764Y-97150521D01*
X84027767Y-97150523D01*
X84027770Y-97150526D01*
X84172407Y-97255612D01*
X84335733Y-97328329D01*
X84510609Y-97365500D01*
X84510610Y-97365500D01*
X84689389Y-97365500D01*
X84689391Y-97365500D01*
X84864267Y-97328329D01*
X85027593Y-97255612D01*
X85172230Y-97150526D01*
X85291859Y-97017665D01*
X85381250Y-96862835D01*
X85436497Y-96692803D01*
X85455185Y-96515000D01*
X85436497Y-96337197D01*
X85381250Y-96167165D01*
X85349622Y-96112383D01*
X85317113Y-96056075D01*
X85300500Y-95994075D01*
X85300500Y-93646004D01*
X85277518Y-93530472D01*
X85273580Y-93510672D01*
X85259011Y-93475500D01*
X85220775Y-93383190D01*
X85220775Y-93383189D01*
X85144114Y-93268457D01*
X85144112Y-93268454D01*
X84106545Y-92230887D01*
X83991807Y-92154222D01*
X83864332Y-92101421D01*
X83864322Y-92101418D01*
X83728996Y-92074500D01*
X83728994Y-92074500D01*
X83728993Y-92074500D01*
X83500874Y-92074500D01*
X83433835Y-92054815D01*
X83388080Y-92002011D01*
X83378136Y-91932853D01*
X83407161Y-91869297D01*
X83413193Y-91862819D01*
X83422968Y-91853044D01*
X83512003Y-91708697D01*
X83565349Y-91547708D01*
X83575500Y-91448345D01*
X83575499Y-90901656D01*
X83565349Y-90802292D01*
X83512003Y-90641303D01*
X83511999Y-90641297D01*
X83511998Y-90641294D01*
X83422970Y-90496959D01*
X83422967Y-90496955D01*
X83413339Y-90487327D01*
X83379854Y-90426004D01*
X83384838Y-90356312D01*
X83413345Y-90311959D01*
X83422572Y-90302732D01*
X83511544Y-90158489D01*
X83511547Y-90158482D01*
X83539211Y-90075000D01*
X81730000Y-90075000D01*
X81726319Y-90078681D01*
X81664996Y-90112166D01*
X81638638Y-90115000D01*
X81482182Y-90115000D01*
X81415143Y-90095315D01*
X81407871Y-90090267D01*
X81342331Y-90041204D01*
X81342328Y-90041202D01*
X81207482Y-89990908D01*
X81207483Y-89990908D01*
X81147883Y-89984501D01*
X81147881Y-89984500D01*
X81147873Y-89984500D01*
X81147865Y-89984500D01*
X79552129Y-89984500D01*
X79552123Y-89984501D01*
X79492516Y-89990908D01*
X79357671Y-90041202D01*
X79357668Y-90041204D01*
X79292129Y-90090267D01*
X79226664Y-90114684D01*
X79217818Y-90115000D01*
X79100000Y-90115000D01*
X79100000Y-90162844D01*
X79106401Y-90222372D01*
X79106403Y-90222379D01*
X79118925Y-90255952D01*
X79123909Y-90325643D01*
X79118925Y-90342617D01*
X79105909Y-90377514D01*
X79105908Y-90377516D01*
X79100837Y-90424687D01*
X79099501Y-90437123D01*
X79099500Y-90437135D01*
X64100499Y-90437135D01*
X64100499Y-90437128D01*
X64094091Y-90377517D01*
X64081073Y-90342616D01*
X64076090Y-90272926D01*
X64081075Y-90255949D01*
X64093597Y-90222375D01*
X64093598Y-90222372D01*
X64099999Y-90162844D01*
X64100000Y-90162827D01*
X64100000Y-90115000D01*
X63982182Y-90115000D01*
X63915143Y-90095315D01*
X63907871Y-90090267D01*
X63842331Y-90041204D01*
X63842328Y-90041202D01*
X63707482Y-89990908D01*
X63707483Y-89990908D01*
X63647883Y-89984501D01*
X63647881Y-89984500D01*
X63647873Y-89984500D01*
X63647865Y-89984500D01*
X62052129Y-89984500D01*
X62052123Y-89984501D01*
X61992516Y-89990908D01*
X61857671Y-90041202D01*
X61857668Y-90041204D01*
X61792129Y-90090267D01*
X61726664Y-90114684D01*
X61717818Y-90115000D01*
X61600000Y-90115000D01*
X61600000Y-90162844D01*
X61606401Y-90222372D01*
X61606403Y-90222379D01*
X61618925Y-90255952D01*
X61623909Y-90325643D01*
X61618925Y-90342617D01*
X61605909Y-90377514D01*
X61605908Y-90377516D01*
X61600837Y-90424687D01*
X61574099Y-90489238D01*
X61565229Y-90499112D01*
X57655887Y-94408454D01*
X57579222Y-94523192D01*
X57526421Y-94650667D01*
X57526418Y-94650677D01*
X57499500Y-94786004D01*
X57499500Y-99194075D01*
X57482887Y-99256075D01*
X57418750Y-99367163D01*
X57363504Y-99537192D01*
X57363503Y-99537194D01*
X57347821Y-99686403D01*
X57337290Y-99711996D01*
X57110704Y-99711996D01*
X57102523Y-99695748D01*
X57100500Y-99673441D01*
X57100500Y-89167155D01*
X61600000Y-89167155D01*
X61600000Y-89215000D01*
X62400000Y-89215000D01*
X63300000Y-89215000D01*
X64100000Y-89215000D01*
X64100000Y-89167172D01*
X64099999Y-89167155D01*
X79100000Y-89167155D01*
X79100000Y-89215000D01*
X79900000Y-89215000D01*
X79900000Y-88715000D01*
X80800000Y-88715000D01*
X80800000Y-89215000D01*
X81495000Y-89215000D01*
X81498681Y-89211319D01*
X81560004Y-89177834D01*
X81586362Y-89175000D01*
X82150000Y-89175000D01*
X83050000Y-89175000D01*
X83539210Y-89175000D01*
X83511547Y-89091517D01*
X83511544Y-89091510D01*
X83422573Y-88947268D01*
X83302732Y-88827427D01*
X83302728Y-88827424D01*
X83158492Y-88738457D01*
X83158481Y-88738452D01*
X83050000Y-88702505D01*
X83050000Y-89175000D01*
X82150000Y-89175000D01*
X82150000Y-88702505D01*
X82041518Y-88738452D01*
X82041507Y-88738457D01*
X81897271Y-88827424D01*
X81897267Y-88827427D01*
X81777427Y-88947267D01*
X81757904Y-88978918D01*
X81705955Y-89025641D01*
X81636992Y-89036861D01*
X81572910Y-89009016D01*
X81548931Y-88979814D01*
X81548669Y-88980011D01*
X81544289Y-88974160D01*
X81543531Y-88973237D01*
X81543350Y-88972906D01*
X81457190Y-88857812D01*
X81457187Y-88857809D01*
X81342093Y-88771649D01*
X81342086Y-88771645D01*
X81207379Y-88721403D01*
X81207372Y-88721401D01*
X81147844Y-88715000D01*
X80800000Y-88715000D01*
X79900000Y-88715000D01*
X79552155Y-88715000D01*
X79492627Y-88721401D01*
X79492620Y-88721403D01*
X79357913Y-88771645D01*
X79357906Y-88771649D01*
X79242812Y-88857809D01*
X79242809Y-88857812D01*
X79156649Y-88972906D01*
X79156645Y-88972913D01*
X79106403Y-89107620D01*
X79106401Y-89107627D01*
X79100000Y-89167155D01*
X64099999Y-89167155D01*
X64093598Y-89107627D01*
X64093596Y-89107620D01*
X64043354Y-88972913D01*
X64043350Y-88972906D01*
X63957190Y-88857812D01*
X63957187Y-88857809D01*
X63842093Y-88771649D01*
X63842086Y-88771645D01*
X63707379Y-88721403D01*
X63707372Y-88721401D01*
X63647844Y-88715000D01*
X63300000Y-88715000D01*
X63300000Y-89215000D01*
X62400000Y-89215000D01*
X62400000Y-88715000D01*
X62052155Y-88715000D01*
X61992627Y-88721401D01*
X61992620Y-88721403D01*
X61857913Y-88771645D01*
X61857906Y-88771649D01*
X61742812Y-88857809D01*
X61742809Y-88857812D01*
X61656649Y-88972906D01*
X61656645Y-88972913D01*
X61606403Y-89107620D01*
X61606401Y-89107627D01*
X61600000Y-89167155D01*
X57100500Y-89167155D01*
X57100500Y-88239000D01*
X57120185Y-88171961D01*
X57172989Y-88126206D01*
X57224500Y-88115000D01*
X85975500Y-88115000D01*
X86042539Y-88134685D01*
G37*
%TD.AperFunction*%
%TD*%
%TA.AperFunction,Conductor*%
%TO.N,VCC*%
G36*
X83604418Y-121515316D02*
G01*
X83875790Y-121534724D01*
X83893291Y-121537241D01*
X84154803Y-121594129D01*
X84171762Y-121599108D01*
X84419186Y-121691393D01*
X84422524Y-121692638D01*
X84438616Y-121699987D01*
X84673501Y-121828244D01*
X84688375Y-121837802D01*
X84801763Y-121922684D01*
X84902624Y-121998188D01*
X84915994Y-122009774D01*
X85105225Y-122199005D01*
X85116811Y-122212375D01*
X85229045Y-122362302D01*
X85277193Y-122426619D01*
X85286758Y-122441503D01*
X85415011Y-122676382D01*
X85422361Y-122692475D01*
X85515888Y-122943229D01*
X85520872Y-122960205D01*
X85577757Y-123221702D01*
X85580275Y-123239214D01*
X85599684Y-123510581D01*
X85600000Y-123519427D01*
X85600000Y-128518703D01*
X85580315Y-128585742D01*
X85527511Y-128631497D01*
X85458353Y-128641441D01*
X85394797Y-128612416D01*
X85367168Y-128578130D01*
X85323657Y-128498448D01*
X84350000Y-129472105D01*
X84350000Y-129441131D01*
X84321178Y-129296233D01*
X84264641Y-129159742D01*
X84182563Y-129036903D01*
X84078097Y-128932437D01*
X83955258Y-128850359D01*
X83818767Y-128793822D01*
X83673869Y-128765000D01*
X83642894Y-128765000D01*
X84616550Y-127791341D01*
X84616550Y-127791340D01*
X84432957Y-127691091D01*
X84432958Y-127691091D01*
X84164895Y-127591109D01*
X83885362Y-127530300D01*
X83600001Y-127509891D01*
X83599999Y-127509891D01*
X83314637Y-127530300D01*
X83035104Y-127591109D01*
X82767041Y-127691091D01*
X82767035Y-127691094D01*
X82583448Y-127791339D01*
X82583448Y-127791341D01*
X83557107Y-128765000D01*
X83526131Y-128765000D01*
X83381233Y-128793822D01*
X83244742Y-128850359D01*
X83121903Y-128932437D01*
X83017437Y-129036903D01*
X82935359Y-129159742D01*
X82878822Y-129296233D01*
X82850000Y-129441131D01*
X82850000Y-129472106D01*
X81876341Y-128498448D01*
X81876339Y-128498448D01*
X81776094Y-128682035D01*
X81776091Y-128682041D01*
X81676109Y-128950104D01*
X81615300Y-129229637D01*
X81594891Y-129514998D01*
X81594891Y-129515001D01*
X81615300Y-129800362D01*
X81676109Y-130079895D01*
X81776091Y-130347958D01*
X81876341Y-130531550D01*
X82850000Y-129557892D01*
X82850000Y-129588869D01*
X82878822Y-129733767D01*
X82935359Y-129870258D01*
X83017437Y-129993097D01*
X83121903Y-130097563D01*
X83244742Y-130179641D01*
X83381233Y-130236178D01*
X83526131Y-130265000D01*
X83557106Y-130265000D01*
X82583448Y-131238657D01*
X82583448Y-131238658D01*
X82767042Y-131338908D01*
X82767041Y-131338908D01*
X83035104Y-131438890D01*
X83314637Y-131499699D01*
X83599999Y-131520109D01*
X83600001Y-131520109D01*
X83885362Y-131499699D01*
X84164895Y-131438890D01*
X84432957Y-131338908D01*
X84616550Y-131238658D01*
X84616550Y-131238657D01*
X83642895Y-130265000D01*
X83673869Y-130265000D01*
X83818767Y-130236178D01*
X83955258Y-130179641D01*
X84078097Y-130097563D01*
X84182563Y-129993097D01*
X84264641Y-129870258D01*
X84321178Y-129733767D01*
X84350000Y-129588869D01*
X84350000Y-129557893D01*
X85323657Y-130531550D01*
X85323658Y-130531550D01*
X85367108Y-130451978D01*
X85416513Y-130402573D01*
X85484786Y-130387721D01*
X85550251Y-130412138D01*
X85592122Y-130468072D01*
X85599624Y-130520251D01*
X85580275Y-130790785D01*
X85577757Y-130808297D01*
X85520872Y-131069794D01*
X85515888Y-131086770D01*
X85422361Y-131337524D01*
X85415011Y-131353617D01*
X85286758Y-131588496D01*
X85277193Y-131603380D01*
X85116811Y-131817624D01*
X85105225Y-131830994D01*
X84915994Y-132020225D01*
X84902624Y-132031811D01*
X84688380Y-132192193D01*
X84673496Y-132201758D01*
X84438617Y-132330011D01*
X84422524Y-132337361D01*
X84171770Y-132430888D01*
X84154794Y-132435872D01*
X83893297Y-132492757D01*
X83875785Y-132495275D01*
X83604418Y-132514684D01*
X83595572Y-132515000D01*
X75869654Y-132515000D01*
X75802615Y-132495315D01*
X75756860Y-132442511D01*
X75746916Y-132373353D01*
X75757273Y-132338593D01*
X75759357Y-132334122D01*
X75782263Y-132265000D01*
X73417737Y-132265000D01*
X73440642Y-132334122D01*
X73442727Y-132338593D01*
X73453220Y-132407671D01*
X73424702Y-132471455D01*
X73366226Y-132509696D01*
X73330346Y-132515000D01*
X69869654Y-132515000D01*
X69802615Y-132495315D01*
X69756860Y-132442511D01*
X69746916Y-132373353D01*
X69757273Y-132338593D01*
X69759357Y-132334122D01*
X69782263Y-132265000D01*
X67417737Y-132265000D01*
X67440642Y-132334122D01*
X67442727Y-132338593D01*
X67453220Y-132407671D01*
X67424702Y-132471455D01*
X67366226Y-132509696D01*
X67330346Y-132515000D01*
X59604428Y-132515000D01*
X59595582Y-132514684D01*
X59324214Y-132495275D01*
X59306702Y-132492757D01*
X59045205Y-132435872D01*
X59028229Y-132430888D01*
X58777475Y-132337361D01*
X58761382Y-132330011D01*
X58526503Y-132201758D01*
X58511619Y-132192193D01*
X58297375Y-132031811D01*
X58284005Y-132020225D01*
X58094774Y-131830994D01*
X58083188Y-131817624D01*
X57922802Y-131603375D01*
X57913244Y-131588501D01*
X57784987Y-131353616D01*
X57777638Y-131337524D01*
X57740763Y-131238658D01*
X57684108Y-131086762D01*
X57679129Y-131069803D01*
X57622241Y-130808291D01*
X57619724Y-130790785D01*
X57600375Y-130520249D01*
X57615227Y-130451979D01*
X57664632Y-130402574D01*
X57732905Y-130387722D01*
X57798369Y-130412139D01*
X57832891Y-130451979D01*
X57876340Y-130531550D01*
X57876341Y-130531550D01*
X58850000Y-129557892D01*
X58850000Y-129588869D01*
X58878822Y-129733767D01*
X58935359Y-129870258D01*
X59017437Y-129993097D01*
X59121903Y-130097563D01*
X59244742Y-130179641D01*
X59381233Y-130236178D01*
X59526131Y-130265000D01*
X59557106Y-130265000D01*
X58583448Y-131238657D01*
X58583448Y-131238658D01*
X58767042Y-131338908D01*
X58767041Y-131338908D01*
X59035104Y-131438890D01*
X59314637Y-131499699D01*
X59599999Y-131520109D01*
X59600001Y-131520109D01*
X59885362Y-131499699D01*
X60164895Y-131438890D01*
X60432957Y-131338908D01*
X60616550Y-131238658D01*
X60616550Y-131238657D01*
X59642895Y-130265000D01*
X59673869Y-130265000D01*
X59818767Y-130236178D01*
X59955258Y-130179641D01*
X60078097Y-130097563D01*
X60182563Y-129993097D01*
X60264641Y-129870258D01*
X60321178Y-129733767D01*
X60350000Y-129588869D01*
X60350000Y-129557893D01*
X61323657Y-130531550D01*
X61323658Y-130531550D01*
X61423908Y-130347957D01*
X61523890Y-130079895D01*
X61584699Y-129800362D01*
X61605109Y-129515001D01*
X61605109Y-129514998D01*
X63594891Y-129514998D01*
X63594891Y-129515001D01*
X63615300Y-129800362D01*
X63676109Y-130079895D01*
X63776091Y-130347958D01*
X63876341Y-130531550D01*
X64850000Y-129557892D01*
X64850000Y-129588869D01*
X64878822Y-129733767D01*
X64935359Y-129870258D01*
X65017437Y-129993097D01*
X65121903Y-130097563D01*
X65244742Y-130179641D01*
X65381233Y-130236178D01*
X65526131Y-130265000D01*
X65557106Y-130265000D01*
X64583448Y-131238657D01*
X64583448Y-131238658D01*
X64767042Y-131338908D01*
X64767041Y-131338908D01*
X65035104Y-131438890D01*
X65314637Y-131499699D01*
X65599999Y-131520109D01*
X65600001Y-131520109D01*
X65885362Y-131499699D01*
X66164895Y-131438890D01*
X66432957Y-131338908D01*
X66568309Y-131265000D01*
X67417737Y-131265000D01*
X68100000Y-131265000D01*
X69100000Y-131265000D01*
X69782262Y-131265000D01*
X69759358Y-131195879D01*
X69667315Y-131046654D01*
X69543345Y-130922684D01*
X69394124Y-130830643D01*
X69394119Y-130830641D01*
X69227697Y-130775494D01*
X69227690Y-130775493D01*
X69124986Y-130765000D01*
X69100000Y-130765000D01*
X69100000Y-131265000D01*
X68100000Y-131265000D01*
X68100000Y-130764999D01*
X68075029Y-130765000D01*
X68075010Y-130765001D01*
X67972302Y-130775494D01*
X67805880Y-130830641D01*
X67805875Y-130830643D01*
X67656654Y-130922684D01*
X67532684Y-131046654D01*
X67440641Y-131195879D01*
X67417737Y-131265000D01*
X66568309Y-131265000D01*
X66616550Y-131238658D01*
X66616550Y-131238657D01*
X65642895Y-130265000D01*
X65673869Y-130265000D01*
X65818767Y-130236178D01*
X65955258Y-130179641D01*
X66078097Y-130097563D01*
X66182563Y-129993097D01*
X66264641Y-129870258D01*
X66321178Y-129733767D01*
X66350000Y-129588869D01*
X66350000Y-129557893D01*
X67323657Y-130531550D01*
X67323658Y-130531550D01*
X67423908Y-130347957D01*
X67523890Y-130079895D01*
X67584699Y-129800362D01*
X67605109Y-129515001D01*
X67605109Y-129514998D01*
X69594891Y-129514998D01*
X69594891Y-129515001D01*
X69615300Y-129800362D01*
X69676109Y-130079895D01*
X69776091Y-130347958D01*
X69876341Y-130531550D01*
X70850000Y-129557892D01*
X70850000Y-129588869D01*
X70878822Y-129733767D01*
X70935359Y-129870258D01*
X71017437Y-129993097D01*
X71121903Y-130097563D01*
X71244742Y-130179641D01*
X71381233Y-130236178D01*
X71526131Y-130265000D01*
X71557106Y-130265000D01*
X70583448Y-131238657D01*
X70583448Y-131238658D01*
X70767042Y-131338908D01*
X70767041Y-131338908D01*
X71035104Y-131438890D01*
X71314637Y-131499699D01*
X71599999Y-131520109D01*
X71600001Y-131520109D01*
X71885362Y-131499699D01*
X72164895Y-131438890D01*
X72432957Y-131338908D01*
X72568309Y-131265000D01*
X73417737Y-131265000D01*
X74100000Y-131265000D01*
X75100000Y-131265000D01*
X75782262Y-131265000D01*
X75759358Y-131195879D01*
X75667315Y-131046654D01*
X75543345Y-130922684D01*
X75394124Y-130830643D01*
X75394119Y-130830641D01*
X75227697Y-130775494D01*
X75227690Y-130775493D01*
X75124986Y-130765000D01*
X75100000Y-130765000D01*
X75100000Y-131265000D01*
X74100000Y-131265000D01*
X74100000Y-130764999D01*
X74075029Y-130765000D01*
X74075010Y-130765001D01*
X73972302Y-130775494D01*
X73805880Y-130830641D01*
X73805875Y-130830643D01*
X73656654Y-130922684D01*
X73532684Y-131046654D01*
X73440641Y-131195879D01*
X73417737Y-131265000D01*
X72568309Y-131265000D01*
X72616550Y-131238658D01*
X72616550Y-131238657D01*
X71642895Y-130265000D01*
X71673869Y-130265000D01*
X71818767Y-130236178D01*
X71955258Y-130179641D01*
X72078097Y-130097563D01*
X72182563Y-129993097D01*
X72264641Y-129870258D01*
X72321178Y-129733767D01*
X72350000Y-129588869D01*
X72350000Y-129557893D01*
X73323657Y-130531550D01*
X73323658Y-130531550D01*
X73423908Y-130347957D01*
X73523890Y-130079895D01*
X73584699Y-129800362D01*
X73605109Y-129515001D01*
X73605109Y-129514998D01*
X75594891Y-129514998D01*
X75594891Y-129515001D01*
X75615300Y-129800362D01*
X75676109Y-130079895D01*
X75776091Y-130347958D01*
X75876341Y-130531550D01*
X76850000Y-129557892D01*
X76850000Y-129588869D01*
X76878822Y-129733767D01*
X76935359Y-129870258D01*
X77017437Y-129993097D01*
X77121903Y-130097563D01*
X77244742Y-130179641D01*
X77381233Y-130236178D01*
X77526131Y-130265000D01*
X77557106Y-130265000D01*
X76583448Y-131238657D01*
X76583448Y-131238658D01*
X76767042Y-131338908D01*
X76767041Y-131338908D01*
X77035104Y-131438890D01*
X77314637Y-131499699D01*
X77599999Y-131520109D01*
X77600001Y-131520109D01*
X77885362Y-131499699D01*
X78164895Y-131438890D01*
X78432957Y-131338908D01*
X78616550Y-131238658D01*
X78616550Y-131238657D01*
X77642895Y-130265000D01*
X77673869Y-130265000D01*
X77818767Y-130236178D01*
X77955258Y-130179641D01*
X78078097Y-130097563D01*
X78182563Y-129993097D01*
X78264641Y-129870258D01*
X78321178Y-129733767D01*
X78350000Y-129588869D01*
X78350000Y-129557893D01*
X79323657Y-130531550D01*
X79323658Y-130531550D01*
X79423908Y-130347957D01*
X79523890Y-130079895D01*
X79584699Y-129800362D01*
X79605109Y-129515001D01*
X79605109Y-129514998D01*
X79584699Y-129229637D01*
X79523890Y-128950104D01*
X79423908Y-128682042D01*
X79323657Y-128498448D01*
X78350000Y-129472105D01*
X78350000Y-129441131D01*
X78321178Y-129296233D01*
X78264641Y-129159742D01*
X78182563Y-129036903D01*
X78078097Y-128932437D01*
X77955258Y-128850359D01*
X77818767Y-128793822D01*
X77673869Y-128765000D01*
X77642894Y-128765000D01*
X78616550Y-127791341D01*
X78616550Y-127791340D01*
X78432957Y-127691091D01*
X78432958Y-127691091D01*
X78164895Y-127591109D01*
X77885362Y-127530300D01*
X77600001Y-127509891D01*
X77599999Y-127509891D01*
X77314637Y-127530300D01*
X77035104Y-127591109D01*
X76767041Y-127691091D01*
X76767035Y-127691094D01*
X76583448Y-127791339D01*
X76583448Y-127791341D01*
X77557107Y-128765000D01*
X77526131Y-128765000D01*
X77381233Y-128793822D01*
X77244742Y-128850359D01*
X77121903Y-128932437D01*
X77017437Y-129036903D01*
X76935359Y-129159742D01*
X76878822Y-129296233D01*
X76850000Y-129441131D01*
X76850000Y-129472106D01*
X75876341Y-128498448D01*
X75876339Y-128498448D01*
X75776094Y-128682035D01*
X75776091Y-128682041D01*
X75676109Y-128950104D01*
X75615300Y-129229637D01*
X75594891Y-129514998D01*
X73605109Y-129514998D01*
X73584699Y-129229637D01*
X73523890Y-128950104D01*
X73423908Y-128682042D01*
X73323657Y-128498448D01*
X72350000Y-129472105D01*
X72350000Y-129441131D01*
X72321178Y-129296233D01*
X72264641Y-129159742D01*
X72182563Y-129036903D01*
X72078097Y-128932437D01*
X71955258Y-128850359D01*
X71818767Y-128793822D01*
X71673869Y-128765000D01*
X71642894Y-128765000D01*
X72616550Y-127791341D01*
X72616550Y-127791340D01*
X72432957Y-127691091D01*
X72432958Y-127691091D01*
X72164895Y-127591109D01*
X71885362Y-127530300D01*
X71600001Y-127509891D01*
X71599999Y-127509891D01*
X71314637Y-127530300D01*
X71035104Y-127591109D01*
X70767041Y-127691091D01*
X70767035Y-127691094D01*
X70583448Y-127791339D01*
X70583448Y-127791341D01*
X71557107Y-128765000D01*
X71526131Y-128765000D01*
X71381233Y-128793822D01*
X71244742Y-128850359D01*
X71121903Y-128932437D01*
X71017437Y-129036903D01*
X70935359Y-129159742D01*
X70878822Y-129296233D01*
X70850000Y-129441131D01*
X70850000Y-129472106D01*
X69876341Y-128498448D01*
X69876339Y-128498448D01*
X69776094Y-128682035D01*
X69776091Y-128682041D01*
X69676109Y-128950104D01*
X69615300Y-129229637D01*
X69594891Y-129514998D01*
X67605109Y-129514998D01*
X67584699Y-129229637D01*
X67523890Y-128950104D01*
X67423908Y-128682042D01*
X67323657Y-128498448D01*
X66350000Y-129472105D01*
X66350000Y-129441131D01*
X66321178Y-129296233D01*
X66264641Y-129159742D01*
X66182563Y-129036903D01*
X66078097Y-128932437D01*
X65955258Y-128850359D01*
X65818767Y-128793822D01*
X65673869Y-128765000D01*
X65642894Y-128765000D01*
X66616550Y-127791341D01*
X66616550Y-127791340D01*
X66432957Y-127691091D01*
X66432958Y-127691091D01*
X66164895Y-127591109D01*
X65885362Y-127530300D01*
X65600001Y-127509891D01*
X65599999Y-127509891D01*
X65314637Y-127530300D01*
X65035104Y-127591109D01*
X64767041Y-127691091D01*
X64767035Y-127691094D01*
X64583448Y-127791339D01*
X64583448Y-127791341D01*
X65557107Y-128765000D01*
X65526131Y-128765000D01*
X65381233Y-128793822D01*
X65244742Y-128850359D01*
X65121903Y-128932437D01*
X65017437Y-129036903D01*
X64935359Y-129159742D01*
X64878822Y-129296233D01*
X64850000Y-129441131D01*
X64850000Y-129472107D01*
X63876341Y-128498448D01*
X63876339Y-128498448D01*
X63776094Y-128682035D01*
X63776091Y-128682041D01*
X63676109Y-128950104D01*
X63615300Y-129229637D01*
X63594891Y-129514998D01*
X61605109Y-129514998D01*
X61584699Y-129229637D01*
X61523890Y-128950104D01*
X61423908Y-128682042D01*
X61323657Y-128498448D01*
X60350000Y-129472105D01*
X60350000Y-129441131D01*
X60321178Y-129296233D01*
X60264641Y-129159742D01*
X60182563Y-129036903D01*
X60078097Y-128932437D01*
X59955258Y-128850359D01*
X59818767Y-128793822D01*
X59673869Y-128765000D01*
X59642894Y-128765000D01*
X60616550Y-127791341D01*
X60616550Y-127791340D01*
X60432957Y-127691091D01*
X60432958Y-127691091D01*
X60164895Y-127591109D01*
X59885362Y-127530300D01*
X59600001Y-127509891D01*
X59599999Y-127509891D01*
X59314637Y-127530300D01*
X59035104Y-127591109D01*
X58767041Y-127691091D01*
X58767035Y-127691094D01*
X58583448Y-127791339D01*
X58583448Y-127791341D01*
X59557107Y-128765000D01*
X59526131Y-128765000D01*
X59381233Y-128793822D01*
X59244742Y-128850359D01*
X59121903Y-128932437D01*
X59017437Y-129036903D01*
X58935359Y-129159742D01*
X58878822Y-129296233D01*
X58850000Y-129441131D01*
X58850000Y-129472106D01*
X57876341Y-128498448D01*
X57876340Y-128498448D01*
X57832832Y-128578128D01*
X57783427Y-128627533D01*
X57715154Y-128642385D01*
X57649690Y-128617968D01*
X57607818Y-128562035D01*
X57600000Y-128518701D01*
X57600000Y-127435879D01*
X57600318Y-127427007D01*
X57619842Y-127154833D01*
X57622372Y-127137291D01*
X57679595Y-126875041D01*
X57684608Y-126858023D01*
X57730971Y-126734119D01*
X57778677Y-126606623D01*
X57786062Y-126590507D01*
X57854844Y-126464986D01*
X64950001Y-126464986D01*
X64960494Y-126567697D01*
X65015641Y-126734119D01*
X65015643Y-126734124D01*
X65107684Y-126883345D01*
X65231654Y-127007315D01*
X65380875Y-127099356D01*
X65380880Y-127099358D01*
X65547302Y-127154505D01*
X65547309Y-127154506D01*
X65650019Y-127164999D01*
X65899999Y-127164999D01*
X66900000Y-127164999D01*
X67149972Y-127164999D01*
X67149986Y-127164998D01*
X67252697Y-127154505D01*
X67419119Y-127099358D01*
X67419124Y-127099356D01*
X67568345Y-127007315D01*
X67692315Y-126883345D01*
X67784356Y-126734124D01*
X67784358Y-126734119D01*
X67839505Y-126567697D01*
X67839506Y-126567690D01*
X67849999Y-126464986D01*
X77750001Y-126464986D01*
X77760494Y-126567697D01*
X77815641Y-126734119D01*
X77815643Y-126734124D01*
X77907684Y-126883345D01*
X78031654Y-127007315D01*
X78180875Y-127099356D01*
X78180880Y-127099358D01*
X78347302Y-127154505D01*
X78347309Y-127154506D01*
X78450019Y-127164999D01*
X78699999Y-127164999D01*
X79700000Y-127164999D01*
X79949972Y-127164999D01*
X79949986Y-127164998D01*
X80052697Y-127154505D01*
X80219119Y-127099358D01*
X80219124Y-127099356D01*
X80368345Y-127007315D01*
X80492315Y-126883345D01*
X80584356Y-126734124D01*
X80584358Y-126734119D01*
X80639505Y-126567697D01*
X80639506Y-126567690D01*
X80649999Y-126464986D01*
X80650000Y-126464973D01*
X80650000Y-124965000D01*
X79700000Y-124965000D01*
X79700000Y-127164999D01*
X78699999Y-127164999D01*
X78700000Y-127164998D01*
X78700000Y-124965000D01*
X77750001Y-124965000D01*
X77750001Y-126464986D01*
X67849999Y-126464986D01*
X67850000Y-126464973D01*
X67850000Y-124965000D01*
X66900000Y-124965000D01*
X66900000Y-127164999D01*
X65899999Y-127164999D01*
X65900000Y-127164998D01*
X65900000Y-124965000D01*
X64950001Y-124965000D01*
X64950001Y-126464986D01*
X57854844Y-126464986D01*
X57915056Y-126355103D01*
X57924661Y-126340213D01*
X58085943Y-126125618D01*
X58097568Y-126112259D01*
X58290987Y-125919738D01*
X58297459Y-125913741D01*
X61815391Y-122881041D01*
X61827440Y-122871877D01*
X61846543Y-122859114D01*
X61879056Y-122826600D01*
X61885707Y-122820424D01*
X62297984Y-122465013D01*
X64950000Y-122465013D01*
X64950000Y-123965000D01*
X65900000Y-123965000D01*
X66900000Y-123965000D01*
X67849999Y-123965000D01*
X67849999Y-122465028D01*
X67849998Y-122465013D01*
X77750000Y-122465013D01*
X77750000Y-123965000D01*
X78700000Y-123965000D01*
X79700000Y-123965000D01*
X80649999Y-123965000D01*
X80649999Y-122465028D01*
X80649998Y-122465013D01*
X80639505Y-122362302D01*
X80584358Y-122195880D01*
X80584356Y-122195875D01*
X80492315Y-122046654D01*
X80368345Y-121922684D01*
X80219124Y-121830643D01*
X80219119Y-121830641D01*
X80052697Y-121775494D01*
X80052690Y-121775493D01*
X79949986Y-121765000D01*
X79700000Y-121765000D01*
X79700000Y-123965000D01*
X78700000Y-123965000D01*
X78700000Y-121765000D01*
X78450029Y-121765000D01*
X78450012Y-121765001D01*
X78347302Y-121775494D01*
X78180880Y-121830641D01*
X78180875Y-121830643D01*
X78031654Y-121922684D01*
X77907684Y-122046654D01*
X77815643Y-122195875D01*
X77815641Y-122195880D01*
X77760494Y-122362302D01*
X77760493Y-122362309D01*
X77750000Y-122465013D01*
X67849998Y-122465013D01*
X67839505Y-122362302D01*
X67784358Y-122195880D01*
X67784356Y-122195875D01*
X67692315Y-122046654D01*
X67568345Y-121922684D01*
X67419124Y-121830643D01*
X67419119Y-121830641D01*
X67252697Y-121775494D01*
X67252690Y-121775493D01*
X67149986Y-121765000D01*
X66900000Y-121765000D01*
X66900000Y-123965000D01*
X65900000Y-123965000D01*
X65900000Y-121765000D01*
X65650029Y-121765000D01*
X65650012Y-121765001D01*
X65547302Y-121775494D01*
X65380880Y-121830641D01*
X65380875Y-121830643D01*
X65231654Y-121922684D01*
X65107684Y-122046654D01*
X65015643Y-122195875D01*
X65015641Y-122195880D01*
X64960494Y-122362302D01*
X64960493Y-122362309D01*
X64950000Y-122465013D01*
X62297984Y-122465013D01*
X62833856Y-122003054D01*
X62840716Y-121997553D01*
X63058130Y-121835573D01*
X63072962Y-121826083D01*
X63307252Y-121698692D01*
X63323293Y-121691395D01*
X63573282Y-121598516D01*
X63590186Y-121593572D01*
X63850822Y-121537082D01*
X63868250Y-121534585D01*
X64116646Y-121516883D01*
X64138665Y-121515314D01*
X64147479Y-121515000D01*
X83595572Y-121515000D01*
X83604418Y-121515316D01*
G37*
%TD.AperFunction*%
%TD*%
M02*
