%TF.GenerationSoftware,KiCad,Pcbnew,8.0.8*%
%TF.CreationDate,2025-02-27T22:45:34+01:00*%
%TF.ProjectId,BB_LED_Tube,42425f4c-4544-45f5-9475-62652e6b6963,rev?*%
%TF.SameCoordinates,Original*%
%TF.FileFunction,Copper,L1,Top*%
%TF.FilePolarity,Positive*%
%FSLAX46Y46*%
G04 Gerber Fmt 4.6, Leading zero omitted, Abs format (unit mm)*
G04 Created by KiCad (PCBNEW 8.0.8) date 2025-02-27 22:45:34*
%MOMM*%
%LPD*%
G01*
G04 APERTURE LIST*
G04 Aperture macros list*
%AMRoundRect*
0 Rectangle with rounded corners*
0 $1 Rounding radius*
0 $2 $3 $4 $5 $6 $7 $8 $9 X,Y pos of 4 corners*
0 Add a 4 corners polygon primitive as box body*
4,1,4,$2,$3,$4,$5,$6,$7,$8,$9,$2,$3,0*
0 Add four circle primitives for the rounded corners*
1,1,$1+$1,$2,$3*
1,1,$1+$1,$4,$5*
1,1,$1+$1,$6,$7*
1,1,$1+$1,$8,$9*
0 Add four rect primitives between the rounded corners*
20,1,$1+$1,$2,$3,$4,$5,0*
20,1,$1+$1,$4,$5,$6,$7,0*
20,1,$1+$1,$6,$7,$8,$9,0*
20,1,$1+$1,$8,$9,$2,$3,0*%
G04 Aperture macros list end*
%TA.AperFunction,SMDPad,CuDef*%
%ADD10RoundRect,0.250000X1.600000X-0.300000X1.600000X0.300000X-1.600000X0.300000X-1.600000X-0.300000X0*%
%TD*%
%TA.AperFunction,SMDPad,CuDef*%
%ADD11RoundRect,0.225000X0.225000X0.250000X-0.225000X0.250000X-0.225000X-0.250000X0.225000X-0.250000X0*%
%TD*%
%TA.AperFunction,SMDPad,CuDef*%
%ADD12RoundRect,0.225000X0.250000X-0.225000X0.250000X0.225000X-0.250000X0.225000X-0.250000X-0.225000X0*%
%TD*%
%TA.AperFunction,ComponentPad*%
%ADD13C,3.000000*%
%TD*%
%TA.AperFunction,ComponentPad*%
%ADD14C,2.000000*%
%TD*%
%TA.AperFunction,SMDPad,CuDef*%
%ADD15RoundRect,0.200000X-0.275000X0.200000X-0.275000X-0.200000X0.275000X-0.200000X0.275000X0.200000X0*%
%TD*%
%TA.AperFunction,SMDPad,CuDef*%
%ADD16RoundRect,0.250000X-0.450000X0.262500X-0.450000X-0.262500X0.450000X-0.262500X0.450000X0.262500X0*%
%TD*%
%TA.AperFunction,SMDPad,CuDef*%
%ADD17RoundRect,0.250000X0.250000X0.475000X-0.250000X0.475000X-0.250000X-0.475000X0.250000X-0.475000X0*%
%TD*%
%TA.AperFunction,SMDPad,CuDef*%
%ADD18RoundRect,0.150000X-0.512500X-0.150000X0.512500X-0.150000X0.512500X0.150000X-0.512500X0.150000X0*%
%TD*%
%TA.AperFunction,SMDPad,CuDef*%
%ADD19RoundRect,0.150000X-0.150000X0.825000X-0.150000X-0.825000X0.150000X-0.825000X0.150000X0.825000X0*%
%TD*%
%TA.AperFunction,SMDPad,CuDef*%
%ADD20RoundRect,0.250000X-0.475000X0.250000X-0.475000X-0.250000X0.475000X-0.250000X0.475000X0.250000X0*%
%TD*%
%TA.AperFunction,SMDPad,CuDef*%
%ADD21RoundRect,0.225000X-0.250000X0.225000X-0.250000X-0.225000X0.250000X-0.225000X0.250000X0.225000X0*%
%TD*%
%TA.AperFunction,SMDPad,CuDef*%
%ADD22RoundRect,0.250000X0.450000X-0.262500X0.450000X0.262500X-0.450000X0.262500X-0.450000X-0.262500X0*%
%TD*%
%TA.AperFunction,SMDPad,CuDef*%
%ADD23RoundRect,0.200000X0.275000X-0.200000X0.275000X0.200000X-0.275000X0.200000X-0.275000X-0.200000X0*%
%TD*%
%TA.AperFunction,HeatsinkPad*%
%ADD24C,0.600000*%
%TD*%
%TA.AperFunction,ViaPad*%
%ADD25C,0.700000*%
%TD*%
%TA.AperFunction,Conductor*%
%ADD26C,0.400000*%
%TD*%
G04 APERTURE END LIST*
D10*
%TO.P,L1,1*%
%TO.N,Net-(U4-SW)*%
X76600000Y-114015000D03*
%TO.P,L1,2*%
%TO.N,+5V*%
X76600000Y-111015000D03*
%TD*%
D11*
%TO.P,C3,1*%
%TO.N,+3V3*%
X84375000Y-98115000D03*
%TO.P,C3,2*%
%TO.N,GND*%
X82825000Y-98115000D03*
%TD*%
D12*
%TO.P,C2,1*%
%TO.N,+5V*%
X80200000Y-102490000D03*
%TO.P,C2,2*%
%TO.N,GND*%
X80200000Y-100940000D03*
%TD*%
D13*
%TO.P,GND4,1,1*%
%TO.N,GND*%
X71600000Y-135915000D03*
%TD*%
D14*
%TO.P,DMX_B1,1,1*%
%TO.N,/DMX B*%
X58800000Y-117915000D03*
%TD*%
D13*
%TO.P,GND5,1,1*%
%TO.N,GND*%
X77600000Y-135915000D03*
%TD*%
D15*
%TO.P,R5,1*%
%TO.N,+5V*%
X85200000Y-117890000D03*
%TO.P,R5,2*%
%TO.N,Net-(C6-Pad1)*%
X85200000Y-119540000D03*
%TD*%
D13*
%TO.P,GND2,1,1*%
%TO.N,GND*%
X59600000Y-135915000D03*
%TD*%
%TO.P,VCC5,1,1*%
%TO.N,VCC*%
X77600000Y-129515000D03*
%TD*%
D12*
%TO.P,C6,1*%
%TO.N,Net-(C6-Pad1)*%
X83600000Y-119490000D03*
%TO.P,C6,2*%
%TO.N,Net-(U4-FB)*%
X83600000Y-117940000D03*
%TD*%
D13*
%TO.P,GND3,1,1*%
%TO.N,GND*%
X65600000Y-135915000D03*
%TD*%
D15*
%TO.P,R7,1*%
%TO.N,Net-(U4-FB)*%
X80400000Y-117890000D03*
%TO.P,R7,2*%
%TO.N,GND*%
X80400000Y-119540000D03*
%TD*%
D16*
%TO.P,R3,1*%
%TO.N,/DMX A*%
X66200000Y-105002500D03*
%TO.P,R3,2*%
%TO.N,/DMX B*%
X66200000Y-106827500D03*
%TD*%
D17*
%TO.P,C4,1*%
%TO.N,VCC*%
X78150000Y-116315000D03*
%TO.P,C4,2*%
%TO.N,GND*%
X76250000Y-116315000D03*
%TD*%
D18*
%TO.P,U2,1,VIN*%
%TO.N,+5V*%
X82462500Y-100165000D03*
%TO.P,U2,2,GND*%
%TO.N,GND*%
X82462500Y-101115000D03*
%TO.P,U2,3,EN*%
%TO.N,+5V*%
X82462500Y-102065000D03*
%TO.P,U2,4,NC*%
%TO.N,unconnected-(U2-NC-Pad4)*%
X84737500Y-102065000D03*
%TO.P,U2,5,VOUT*%
%TO.N,+3V3*%
X84737500Y-100165000D03*
%TD*%
D19*
%TO.P,U3,1,RO*%
%TO.N,DMX RX*%
X61905000Y-101840000D03*
%TO.P,U3,2,~{RE}*%
%TO.N,DMX EN*%
X60635000Y-101840000D03*
%TO.P,U3,3,DE*%
X59365000Y-101840000D03*
%TO.P,U3,4,DI*%
%TO.N,DMX TX*%
X58095000Y-101840000D03*
%TO.P,U3,5,GND*%
%TO.N,GND*%
X58095000Y-106790000D03*
%TO.P,U3,6,A*%
%TO.N,/DMX A*%
X59365000Y-106790000D03*
%TO.P,U3,7,B*%
%TO.N,/DMX B*%
X60635000Y-106790000D03*
%TO.P,U3,8,VCC*%
%TO.N,+5V*%
X61905000Y-106790000D03*
%TD*%
D20*
%TO.P,C7,1*%
%TO.N,+5V*%
X80200000Y-110165000D03*
%TO.P,C7,2*%
%TO.N,GND*%
X80200000Y-112065000D03*
%TD*%
D13*
%TO.P,VCC3,1,1*%
%TO.N,VCC*%
X65600000Y-129515000D03*
%TD*%
D14*
%TO.P,LED_Data1,1,1*%
%TO.N,/LED_Data*%
X58800000Y-122315000D03*
%TD*%
D13*
%TO.P,VCC1,1,1*%
%TO.N,VCC*%
X83600000Y-129515000D03*
%TD*%
D14*
%TO.P,GND6,1,1*%
%TO.N,GND*%
X58800000Y-111115000D03*
%TD*%
D21*
%TO.P,C5,1*%
%TO.N,Net-(U4-BOOT)*%
X84400000Y-114140000D03*
%TO.P,C5,2*%
%TO.N,Net-(U4-SW)*%
X84400000Y-115690000D03*
%TD*%
D22*
%TO.P,R2,1*%
%TO.N,+5V*%
X64000000Y-106827500D03*
%TO.P,R2,2*%
%TO.N,/DMX A*%
X64000000Y-105002500D03*
%TD*%
D23*
%TO.P,R6,1*%
%TO.N,Net-(C6-Pad1)*%
X82000000Y-119540000D03*
%TO.P,R6,2*%
%TO.N,Net-(U4-FB)*%
X82000000Y-117890000D03*
%TD*%
D13*
%TO.P,VCC2,1,1*%
%TO.N,VCC*%
X59600000Y-129515000D03*
%TD*%
%TO.P,GND1,1,1*%
%TO.N,GND*%
X83600000Y-135915000D03*
%TD*%
%TO.P,VCC4,1,1*%
%TO.N,VCC*%
X71600000Y-129515000D03*
%TD*%
D18*
%TO.P,U4,1,GND*%
%TO.N,GND*%
X80262500Y-113965000D03*
%TO.P,U4,2,SW*%
%TO.N,Net-(U4-SW)*%
X80262500Y-114915000D03*
%TO.P,U4,3,VIN*%
%TO.N,VCC*%
X80262500Y-115865000D03*
%TO.P,U4,4,FB*%
%TO.N,Net-(U4-FB)*%
X82537500Y-115865000D03*
%TO.P,U4,5,EN*%
%TO.N,unconnected-(U4-EN-Pad5)*%
X82537500Y-114915000D03*
%TO.P,U4,6,BOOT*%
%TO.N,Net-(U4-BOOT)*%
X82537500Y-113965000D03*
%TD*%
D14*
%TO.P,DMX_A1,1,1*%
%TO.N,/DMX A*%
X58800000Y-114515000D03*
%TD*%
D22*
%TO.P,R4,1*%
%TO.N,/DMX B*%
X68200000Y-106827500D03*
%TO.P,R4,2*%
%TO.N,GND*%
X68200000Y-105002500D03*
%TD*%
D24*
%TO.P,U1,39,GND*%
%TO.N,GND*%
X73805000Y-97767500D03*
X73805000Y-96242500D03*
X73042500Y-98530000D03*
X73042500Y-97005000D03*
X73042500Y-95480000D03*
X72280000Y-97767500D03*
X72280000Y-96242500D03*
X71517500Y-98530000D03*
X71517500Y-97005000D03*
X71517500Y-95480000D03*
X70755000Y-97767500D03*
X70755000Y-96242500D03*
%TD*%
D25*
%TO.N,GND*%
X78600000Y-104715000D03*
X75800000Y-119315000D03*
X75800000Y-120315000D03*
X78600000Y-89715000D03*
X76800000Y-119315000D03*
X85200000Y-89115000D03*
X84200000Y-89115000D03*
X74800000Y-119315000D03*
X69400000Y-113915000D03*
X65400000Y-119315000D03*
X77600000Y-104715000D03*
X66400000Y-119315000D03*
X69400000Y-112915000D03*
X70400000Y-111915000D03*
X61000000Y-89715000D03*
X60000000Y-89715000D03*
X69400000Y-111915000D03*
X66400000Y-120315000D03*
X65400000Y-120315000D03*
X67400000Y-119315000D03*
X81800000Y-112515000D03*
X61000000Y-90715000D03*
X70400000Y-113915000D03*
X74800000Y-120315000D03*
X60000000Y-90715000D03*
X78600000Y-90715000D03*
X67400000Y-120315000D03*
X58200000Y-104915000D03*
X76800000Y-120315000D03*
X58200000Y-103915000D03*
X81800000Y-111515000D03*
X78600000Y-103715000D03*
X77600000Y-103715000D03*
X70400000Y-112915000D03*
%TO.N,+3V3*%
X84600000Y-96515000D03*
%TO.N,DMX RX*%
X60800000Y-99115000D03*
%TO.N,DMX EN*%
X59400000Y-99715000D03*
%TO.N,DMX TX*%
X58200000Y-99715000D03*
%TO.N,VCC*%
X78182018Y-118532982D03*
%TO.N,/DMX B*%
X61600000Y-109115000D03*
X65000000Y-109115000D03*
%TD*%
D26*
%TO.N,Net-(U4-SW)*%
X80262500Y-114915000D02*
X77500000Y-114915000D01*
X77500000Y-114915000D02*
X76600000Y-114015000D01*
%TO.N,+5V*%
X76400000Y-110240000D02*
X75600000Y-110240000D01*
X76400000Y-110240000D02*
X76400000Y-110815000D01*
X80125000Y-110240000D02*
X76400000Y-110240000D01*
X76400000Y-110815000D02*
X76600000Y-111015000D01*
X75600000Y-110240000D02*
X64525000Y-110240000D01*
X64000000Y-109715000D02*
X64500000Y-110215000D01*
X80200000Y-110165000D02*
X80125000Y-110240000D01*
X64525000Y-110240000D02*
X64500000Y-110215000D01*
%TO.N,VCC*%
X78182018Y-118532982D02*
X78182018Y-116347018D01*
X78182018Y-116347018D02*
X78150000Y-116315000D01*
X78150000Y-116315000D02*
X79812500Y-116315000D01*
X79812500Y-116315000D02*
X80262500Y-115865000D01*
%TO.N,GND*%
X82462500Y-101115000D02*
X80375000Y-101115000D01*
X80375000Y-101115000D02*
X80200000Y-100940000D01*
%TO.N,+3V3*%
X84550000Y-99977500D02*
X84737500Y-100165000D01*
X84550000Y-98115000D02*
X84550000Y-99977500D01*
X84550000Y-98115000D02*
X84550000Y-96565000D01*
X84550000Y-96565000D02*
X84600000Y-96515000D01*
%TO.N,DMX RX*%
X61905000Y-101840000D02*
X61905000Y-100220000D01*
X61905000Y-100220000D02*
X60800000Y-99115000D01*
%TO.N,+5V*%
X80200000Y-110165000D02*
X82600000Y-110165000D01*
X85400000Y-117690000D02*
X85200000Y-117890000D01*
X83650000Y-110165000D02*
X85400000Y-111915000D01*
X80400000Y-102665000D02*
X82412500Y-102665000D01*
X83600000Y-100640001D02*
X83600000Y-101589999D01*
X82462500Y-100165000D02*
X83124999Y-100165000D01*
X64000000Y-106827500D02*
X64000000Y-106915000D01*
X82462500Y-102715000D02*
X82462500Y-110027500D01*
X64000000Y-106827500D02*
X61942500Y-106827500D01*
X82412500Y-102665000D02*
X82462500Y-102715000D01*
X83124999Y-100165000D02*
X83600000Y-100640001D01*
X82600000Y-110165000D02*
X83650000Y-110165000D01*
X83600000Y-101589999D02*
X83124999Y-102065000D01*
X85400000Y-111915000D02*
X85400000Y-117690000D01*
X82462500Y-110027500D02*
X82600000Y-110165000D01*
X83124999Y-102065000D02*
X82462500Y-102065000D01*
X61942500Y-106827500D02*
X61905000Y-106790000D01*
X82462500Y-102065000D02*
X82462500Y-102715000D01*
%TO.N,DMX EN*%
X60635000Y-101840000D02*
X60635000Y-100350000D01*
X59400000Y-99715000D02*
X59400000Y-101805000D01*
X60635000Y-100350000D02*
X60000000Y-99715000D01*
X59400000Y-101805000D02*
X59365000Y-101840000D01*
X60000000Y-99715000D02*
X59400000Y-99715000D01*
%TO.N,DMX TX*%
X58200000Y-101735000D02*
X58095000Y-101840000D01*
X58200000Y-99715000D02*
X58200000Y-101735000D01*
%TO.N,Net-(U4-BOOT)*%
X82537500Y-113965000D02*
X84225000Y-113965000D01*
X84225000Y-113965000D02*
X84400000Y-114140000D01*
%TO.N,Net-(U4-FB)*%
X82537500Y-117352500D02*
X82000000Y-117890000D01*
X83635000Y-117940000D02*
X83685000Y-117890000D01*
X80400000Y-117940000D02*
X83635000Y-117940000D01*
X82537500Y-115865000D02*
X82537500Y-117352500D01*
%TO.N,Net-(C6-Pad1)*%
X82025000Y-119540000D02*
X85400000Y-119540000D01*
X82000000Y-119540000D02*
X82000000Y-119515000D01*
X82000000Y-119515000D02*
X82025000Y-119540000D01*
%TO.N,/DMX A*%
X58800000Y-114515000D02*
X59600000Y-114515000D01*
X60600000Y-109515000D02*
X59365000Y-108280000D01*
X59365000Y-106790000D02*
X59365000Y-106303026D01*
X60600000Y-113515000D02*
X60600000Y-109515000D01*
X60665526Y-105002500D02*
X66200000Y-105002500D01*
X59600000Y-114515000D02*
X60600000Y-113515000D01*
X59365000Y-106303026D02*
X60665526Y-105002500D01*
X59365000Y-108280000D02*
X59365000Y-106790000D01*
%TO.N,/DMX B*%
X66200000Y-107915000D02*
X65000000Y-109115000D01*
X66200000Y-106827500D02*
X66200000Y-107915000D01*
X58800000Y-117915000D02*
X61600000Y-115115000D01*
X60600000Y-106825000D02*
X60635000Y-106790000D01*
X60635000Y-108150000D02*
X60635000Y-106790000D01*
X61600000Y-115115000D02*
X61600000Y-109115000D01*
X61600000Y-109115000D02*
X60635000Y-108150000D01*
X68200000Y-106827500D02*
X66200000Y-106827500D01*
%TO.N,+5V*%
X64000000Y-106827500D02*
X64000000Y-109715000D01*
X79900000Y-110465000D02*
X80200000Y-110165000D01*
%TD*%
%TA.AperFunction,Conductor*%
%TO.N,GND*%
G36*
X62942309Y-107547685D02*
G01*
X62962951Y-107564319D01*
X63081344Y-107682712D01*
X63230666Y-107774814D01*
X63230667Y-107774814D01*
X63236813Y-107778605D01*
X63235706Y-107780399D01*
X63280337Y-107819687D01*
X63299500Y-107885908D01*
X63299500Y-109646006D01*
X63299500Y-109783994D01*
X63299500Y-109783996D01*
X63299499Y-109783996D01*
X63326418Y-109919322D01*
X63326421Y-109919332D01*
X63379222Y-110046807D01*
X63455887Y-110161545D01*
X64057779Y-110763437D01*
X64057799Y-110763455D01*
X64078455Y-110784112D01*
X64078458Y-110784114D01*
X64193182Y-110860771D01*
X64193186Y-110860773D01*
X64193189Y-110860775D01*
X64267866Y-110891707D01*
X64267867Y-110891707D01*
X64267869Y-110891709D01*
X64314481Y-110911016D01*
X64320671Y-110913580D01*
X64330324Y-110915500D01*
X64363037Y-110922007D01*
X64456004Y-110940500D01*
X64456007Y-110940500D01*
X74125500Y-110940500D01*
X74192539Y-110960185D01*
X74238294Y-111012989D01*
X74249500Y-111064500D01*
X74249500Y-111365000D01*
X74249501Y-111365019D01*
X74260000Y-111467796D01*
X74260001Y-111467799D01*
X74275675Y-111515099D01*
X74315186Y-111634334D01*
X74407288Y-111783656D01*
X74531344Y-111907712D01*
X74680666Y-111999814D01*
X74847203Y-112054999D01*
X74949991Y-112065500D01*
X78250008Y-112065499D01*
X78352797Y-112054999D01*
X78519334Y-111999814D01*
X78668656Y-111907712D01*
X78792712Y-111783656D01*
X78884814Y-111634334D01*
X78884815Y-111634331D01*
X78888605Y-111628187D01*
X78890261Y-111629208D01*
X78929939Y-111584152D01*
X78996142Y-111565000D01*
X81382262Y-111565000D01*
X81359358Y-111495879D01*
X81267315Y-111346654D01*
X81143344Y-111222683D01*
X81143341Y-111222681D01*
X81140339Y-111220829D01*
X81138713Y-111219021D01*
X81137677Y-111218202D01*
X81137817Y-111218024D01*
X81093617Y-111168880D01*
X81082397Y-111099917D01*
X81110243Y-111035836D01*
X81140344Y-111009754D01*
X81143656Y-111007712D01*
X81249550Y-110901818D01*
X81310873Y-110868334D01*
X81337231Y-110865500D01*
X82531007Y-110865500D01*
X83308481Y-110865500D01*
X83375520Y-110885185D01*
X83396162Y-110901819D01*
X84663181Y-112168838D01*
X84696666Y-112230161D01*
X84699500Y-112256519D01*
X84699500Y-113065500D01*
X84679815Y-113132539D01*
X84627011Y-113178294D01*
X84575500Y-113189500D01*
X84101662Y-113189500D01*
X84101644Y-113189501D01*
X84002292Y-113199650D01*
X84002289Y-113199651D01*
X83890469Y-113236705D01*
X83841303Y-113252997D01*
X83841301Y-113252997D01*
X83834448Y-113255269D01*
X83834197Y-113254512D01*
X83789145Y-113264500D01*
X83430969Y-113264500D01*
X83367848Y-113247232D01*
X83366346Y-113246344D01*
X83310398Y-113213256D01*
X83310397Y-113213255D01*
X83310396Y-113213255D01*
X83310393Y-113213254D01*
X83152573Y-113167402D01*
X83152567Y-113167401D01*
X83115701Y-113164500D01*
X83115694Y-113164500D01*
X81959306Y-113164500D01*
X81959298Y-113164500D01*
X81922432Y-113167401D01*
X81922426Y-113167402D01*
X81764606Y-113213254D01*
X81764603Y-113213255D01*
X81623137Y-113296917D01*
X81623129Y-113296923D01*
X81506923Y-113413129D01*
X81506913Y-113413142D01*
X81506434Y-113413953D01*
X81505893Y-113414457D01*
X81502139Y-113419298D01*
X81501357Y-113418691D01*
X81455360Y-113461631D01*
X81386617Y-113474127D01*
X81322030Y-113447474D01*
X81297716Y-113419410D01*
X81297463Y-113419607D01*
X81293841Y-113414937D01*
X81292976Y-113413939D01*
X81292685Y-113413447D01*
X81292678Y-113413438D01*
X81176561Y-113297321D01*
X81176552Y-113297314D01*
X81035196Y-113213717D01*
X81028035Y-113210618D01*
X81029019Y-113208343D01*
X80980413Y-113177291D01*
X80951217Y-113113813D01*
X80960974Y-113044628D01*
X81006587Y-112991701D01*
X81008811Y-112990297D01*
X81143343Y-112907317D01*
X81267315Y-112783345D01*
X81359358Y-112634120D01*
X81382263Y-112565000D01*
X80700000Y-112565000D01*
X80700000Y-113071000D01*
X80680315Y-113138039D01*
X80627511Y-113183794D01*
X80576000Y-113195000D01*
X80562500Y-113195000D01*
X80562500Y-113841000D01*
X80542815Y-113908039D01*
X80490011Y-113953794D01*
X80438500Y-113965000D01*
X80086500Y-113965000D01*
X80019461Y-113945315D01*
X79973706Y-113892511D01*
X79962500Y-113841000D01*
X79962500Y-113195000D01*
X79824000Y-113195000D01*
X79756961Y-113175315D01*
X79711206Y-113122511D01*
X79700000Y-113071000D01*
X79700000Y-112565000D01*
X79017737Y-112565000D01*
X79040641Y-112634120D01*
X79132684Y-112783345D01*
X79256654Y-112907315D01*
X79405875Y-112999356D01*
X79405880Y-112999358D01*
X79433287Y-113008440D01*
X79490732Y-113048213D01*
X79517555Y-113112728D01*
X79505240Y-113181504D01*
X79457697Y-113232704D01*
X79457404Y-113232878D01*
X79348447Y-113297314D01*
X79348438Y-113297321D01*
X79232321Y-113413438D01*
X79232317Y-113413444D01*
X79152098Y-113549086D01*
X79101028Y-113596769D01*
X79032287Y-113609272D01*
X78967697Y-113582626D01*
X78927768Y-113525292D01*
X78884814Y-113395666D01*
X78792712Y-113246344D01*
X78668656Y-113122288D01*
X78548561Y-113048213D01*
X78519336Y-113030187D01*
X78519331Y-113030185D01*
X78517862Y-113029698D01*
X78352797Y-112975001D01*
X78352795Y-112975000D01*
X78250010Y-112964500D01*
X74949998Y-112964500D01*
X74949981Y-112964501D01*
X74847203Y-112975000D01*
X74847200Y-112975001D01*
X74680668Y-113030185D01*
X74680663Y-113030187D01*
X74531342Y-113122289D01*
X74407289Y-113246342D01*
X74315187Y-113395663D01*
X74315185Y-113395668D01*
X74298018Y-113447474D01*
X74260001Y-113562203D01*
X74260001Y-113562204D01*
X74260000Y-113562204D01*
X74249500Y-113664983D01*
X74249500Y-114365001D01*
X74249501Y-114365019D01*
X74260000Y-114467796D01*
X74260001Y-114467799D01*
X74315185Y-114634331D01*
X74315186Y-114634334D01*
X74407288Y-114783656D01*
X74531344Y-114907712D01*
X74680666Y-114999814D01*
X74847203Y-115054999D01*
X74949991Y-115065500D01*
X75414479Y-115065499D01*
X75481516Y-115085183D01*
X75527271Y-115137987D01*
X75537215Y-115207146D01*
X75508190Y-115270702D01*
X75502159Y-115277180D01*
X75407682Y-115371657D01*
X75315643Y-115520875D01*
X75315641Y-115520880D01*
X75260494Y-115687302D01*
X75260493Y-115687309D01*
X75250000Y-115790013D01*
X75250000Y-115815000D01*
X76126000Y-115815000D01*
X76193039Y-115834685D01*
X76238794Y-115887489D01*
X76250000Y-115939000D01*
X76250000Y-116315000D01*
X76626000Y-116315000D01*
X76693039Y-116334685D01*
X76738794Y-116387489D01*
X76750000Y-116439000D01*
X76750000Y-117497262D01*
X76819118Y-117474359D01*
X76968345Y-117382315D01*
X77092318Y-117258342D01*
X77094165Y-117255348D01*
X77095969Y-117253724D01*
X77096798Y-117252677D01*
X77096976Y-117252818D01*
X77146110Y-117208621D01*
X77215073Y-117197396D01*
X77279156Y-117225236D01*
X77305243Y-117255341D01*
X77307288Y-117258656D01*
X77431344Y-117382712D01*
X77431348Y-117382714D01*
X77434427Y-117385149D01*
X77435994Y-117387362D01*
X77436451Y-117387819D01*
X77436372Y-117387897D01*
X77474805Y-117442170D01*
X77481518Y-117482417D01*
X77481518Y-118012057D01*
X77464905Y-118074057D01*
X77400768Y-118185145D01*
X77345522Y-118355174D01*
X77345521Y-118355176D01*
X77326833Y-118532982D01*
X77345521Y-118710787D01*
X77345522Y-118710789D01*
X77400765Y-118880811D01*
X77400768Y-118880817D01*
X77490159Y-119035647D01*
X77531830Y-119081928D01*
X77609782Y-119168503D01*
X77609785Y-119168505D01*
X77609788Y-119168508D01*
X77754425Y-119273594D01*
X77917751Y-119346311D01*
X78092627Y-119383482D01*
X78092628Y-119383482D01*
X78271407Y-119383482D01*
X78271409Y-119383482D01*
X78446285Y-119346311D01*
X78609611Y-119273594D01*
X78754248Y-119168508D01*
X78762193Y-119159685D01*
X78780166Y-119139723D01*
X78873877Y-119035647D01*
X78963268Y-118880817D01*
X79018515Y-118710785D01*
X79037203Y-118532982D01*
X79018515Y-118355179D01*
X78963268Y-118185147D01*
X78950373Y-118162812D01*
X78899131Y-118074057D01*
X78882518Y-118012057D01*
X78882518Y-117420212D01*
X78902203Y-117353173D01*
X78918837Y-117332531D01*
X78992712Y-117258656D01*
X79084814Y-117109334D01*
X79087744Y-117100493D01*
X79127518Y-117043049D01*
X79192035Y-117016228D01*
X79205449Y-117015500D01*
X79509480Y-117015500D01*
X79576519Y-117035185D01*
X79622274Y-117087989D01*
X79632218Y-117157147D01*
X79603193Y-117220703D01*
X79597161Y-117227181D01*
X79569531Y-117254810D01*
X79569530Y-117254811D01*
X79481522Y-117400393D01*
X79430913Y-117562807D01*
X79424500Y-117633386D01*
X79424500Y-118146613D01*
X79430913Y-118217192D01*
X79430913Y-118217194D01*
X79430914Y-118217196D01*
X79460142Y-118310993D01*
X79481522Y-118379606D01*
X79569530Y-118525188D01*
X79672015Y-118627673D01*
X79705500Y-118688996D01*
X79700516Y-118758688D01*
X79672015Y-118803035D01*
X79569928Y-118905121D01*
X79569927Y-118905122D01*
X79481981Y-119050603D01*
X79481979Y-119050607D01*
X79454123Y-119139999D01*
X79454124Y-119140000D01*
X80276000Y-119140000D01*
X80343039Y-119159685D01*
X80388794Y-119212489D01*
X80400000Y-119264000D01*
X80400000Y-119540000D01*
X80676000Y-119540000D01*
X80743039Y-119559685D01*
X80788794Y-119612489D01*
X80800000Y-119664000D01*
X80800000Y-120433781D01*
X80802110Y-120433589D01*
X80964396Y-120383018D01*
X81109876Y-120295073D01*
X81111959Y-120292990D01*
X81113862Y-120291950D01*
X81115783Y-120290446D01*
X81116032Y-120290765D01*
X81173280Y-120259501D01*
X81242972Y-120264480D01*
X81287330Y-120292987D01*
X81289815Y-120295472D01*
X81435394Y-120383478D01*
X81597804Y-120434086D01*
X81668384Y-120440500D01*
X81668387Y-120440500D01*
X82331613Y-120440500D01*
X82331616Y-120440500D01*
X82402196Y-120434086D01*
X82564606Y-120383478D01*
X82710185Y-120295472D01*
X82719637Y-120286019D01*
X82780956Y-120252532D01*
X82850648Y-120257511D01*
X82891219Y-120283583D01*
X82891293Y-120283490D01*
X82892243Y-120284241D01*
X82895003Y-120286015D01*
X82896955Y-120287967D01*
X82896959Y-120287970D01*
X83041294Y-120376998D01*
X83041297Y-120376999D01*
X83041303Y-120377003D01*
X83202292Y-120430349D01*
X83301655Y-120440500D01*
X83898344Y-120440499D01*
X83898352Y-120440498D01*
X83898355Y-120440498D01*
X83965990Y-120433589D01*
X83997708Y-120430349D01*
X84158697Y-120377003D01*
X84303044Y-120287968D01*
X84304992Y-120286019D01*
X84306658Y-120285109D01*
X84308707Y-120283490D01*
X84308983Y-120283839D01*
X84366310Y-120252532D01*
X84436002Y-120257511D01*
X84480361Y-120286018D01*
X84489812Y-120295469D01*
X84489811Y-120295469D01*
X84489813Y-120295470D01*
X84489815Y-120295472D01*
X84635394Y-120383478D01*
X84797804Y-120434086D01*
X84868384Y-120440500D01*
X84868387Y-120440500D01*
X85531613Y-120440500D01*
X85531616Y-120440500D01*
X85602196Y-120434086D01*
X85764606Y-120383478D01*
X85910185Y-120295472D01*
X85910186Y-120295470D01*
X85911350Y-120294767D01*
X85978904Y-120276931D01*
X86045378Y-120298448D01*
X86089666Y-120352489D01*
X86099500Y-120400884D01*
X86099500Y-136511249D01*
X86099274Y-136518736D01*
X86081728Y-136808794D01*
X86079923Y-136823659D01*
X86028219Y-137105798D01*
X86024635Y-137120336D01*
X85939306Y-137394167D01*
X85933997Y-137408168D01*
X85816275Y-137669736D01*
X85809316Y-137682995D01*
X85660928Y-137928459D01*
X85652422Y-137940782D01*
X85475526Y-138166573D01*
X85465596Y-138177781D01*
X85262781Y-138380596D01*
X85251573Y-138390526D01*
X85025782Y-138567422D01*
X85013459Y-138575928D01*
X84767995Y-138724316D01*
X84754736Y-138731275D01*
X84493168Y-138848997D01*
X84479167Y-138854306D01*
X84205336Y-138939635D01*
X84190798Y-138943219D01*
X83908659Y-138994923D01*
X83893794Y-138996728D01*
X83603736Y-139014274D01*
X83596249Y-139014500D01*
X59603751Y-139014500D01*
X59596264Y-139014274D01*
X59306205Y-138996728D01*
X59291340Y-138994923D01*
X59009201Y-138943219D01*
X58994663Y-138939635D01*
X58720832Y-138854306D01*
X58706831Y-138848997D01*
X58445263Y-138731275D01*
X58432004Y-138724316D01*
X58186540Y-138575928D01*
X58174217Y-138567422D01*
X57948426Y-138390526D01*
X57937218Y-138380596D01*
X57734403Y-138177781D01*
X57724473Y-138166573D01*
X57547573Y-137940776D01*
X57539075Y-137928465D01*
X57390680Y-137682989D01*
X57383727Y-137669743D01*
X57266000Y-137408163D01*
X57260693Y-137394167D01*
X57175364Y-137120336D01*
X57171780Y-137105798D01*
X57120076Y-136823659D01*
X57118271Y-136808794D01*
X57100726Y-136518736D01*
X57100500Y-136511249D01*
X57100500Y-135914998D01*
X57594891Y-135914998D01*
X57594891Y-135915001D01*
X57615300Y-136200362D01*
X57676109Y-136479895D01*
X57776091Y-136747958D01*
X57876341Y-136931550D01*
X58850000Y-135957892D01*
X58850000Y-135988869D01*
X58878822Y-136133767D01*
X58935359Y-136270258D01*
X59017437Y-136393097D01*
X59121903Y-136497563D01*
X59244742Y-136579641D01*
X59381233Y-136636178D01*
X59526131Y-136665000D01*
X59557106Y-136665000D01*
X58583448Y-137638657D01*
X58583448Y-137638658D01*
X58767042Y-137738908D01*
X58767041Y-137738908D01*
X59035104Y-137838890D01*
X59314637Y-137899699D01*
X59599999Y-137920109D01*
X59600001Y-137920109D01*
X59885362Y-137899699D01*
X60164895Y-137838890D01*
X60432957Y-137738908D01*
X60616550Y-137638658D01*
X60616550Y-137638657D01*
X59642895Y-136665000D01*
X59673869Y-136665000D01*
X59818767Y-136636178D01*
X59955258Y-136579641D01*
X60078097Y-136497563D01*
X60182563Y-136393097D01*
X60264641Y-136270258D01*
X60321178Y-136133767D01*
X60350000Y-135988869D01*
X60350000Y-135957893D01*
X61323657Y-136931550D01*
X61323658Y-136931550D01*
X61423908Y-136747957D01*
X61523890Y-136479895D01*
X61584699Y-136200362D01*
X61605109Y-135915001D01*
X61605109Y-135914998D01*
X63594891Y-135914998D01*
X63594891Y-135915001D01*
X63615300Y-136200362D01*
X63676109Y-136479895D01*
X63776091Y-136747958D01*
X63876341Y-136931550D01*
X64850000Y-135957892D01*
X64850000Y-135988869D01*
X64878822Y-136133767D01*
X64935359Y-136270258D01*
X65017437Y-136393097D01*
X65121903Y-136497563D01*
X65244742Y-136579641D01*
X65381233Y-136636178D01*
X65526131Y-136665000D01*
X65557106Y-136665000D01*
X64583448Y-137638657D01*
X64583448Y-137638658D01*
X64767042Y-137738908D01*
X64767041Y-137738908D01*
X65035104Y-137838890D01*
X65314637Y-137899699D01*
X65599999Y-137920109D01*
X65600001Y-137920109D01*
X65885362Y-137899699D01*
X66164895Y-137838890D01*
X66432957Y-137738908D01*
X66616550Y-137638658D01*
X66616550Y-137638657D01*
X65642895Y-136665000D01*
X65673869Y-136665000D01*
X65818767Y-136636178D01*
X65955258Y-136579641D01*
X66078097Y-136497563D01*
X66182563Y-136393097D01*
X66264641Y-136270258D01*
X66321178Y-136133767D01*
X66350000Y-135988869D01*
X66350000Y-135957893D01*
X67323657Y-136931550D01*
X67323658Y-136931550D01*
X67423908Y-136747957D01*
X67523890Y-136479895D01*
X67584699Y-136200362D01*
X67605109Y-135915001D01*
X67605109Y-135914998D01*
X69594891Y-135914998D01*
X69594891Y-135915001D01*
X69615300Y-136200362D01*
X69676109Y-136479895D01*
X69776091Y-136747958D01*
X69876341Y-136931550D01*
X70850000Y-135957892D01*
X70850000Y-135988869D01*
X70878822Y-136133767D01*
X70935359Y-136270258D01*
X71017437Y-136393097D01*
X71121903Y-136497563D01*
X71244742Y-136579641D01*
X71381233Y-136636178D01*
X71526131Y-136665000D01*
X71557106Y-136665000D01*
X70583448Y-137638657D01*
X70583448Y-137638658D01*
X70767042Y-137738908D01*
X70767041Y-137738908D01*
X71035104Y-137838890D01*
X71314637Y-137899699D01*
X71599999Y-137920109D01*
X71600001Y-137920109D01*
X71885362Y-137899699D01*
X72164895Y-137838890D01*
X72432957Y-137738908D01*
X72616550Y-137638658D01*
X72616550Y-137638657D01*
X71642895Y-136665000D01*
X71673869Y-136665000D01*
X71818767Y-136636178D01*
X71955258Y-136579641D01*
X72078097Y-136497563D01*
X72182563Y-136393097D01*
X72264641Y-136270258D01*
X72321178Y-136133767D01*
X72350000Y-135988869D01*
X72350000Y-135957894D01*
X73323657Y-136931550D01*
X73323658Y-136931550D01*
X73423908Y-136747957D01*
X73523890Y-136479895D01*
X73584699Y-136200362D01*
X73605109Y-135915001D01*
X73605109Y-135914998D01*
X75594891Y-135914998D01*
X75594891Y-135915001D01*
X75615300Y-136200362D01*
X75676109Y-136479895D01*
X75776091Y-136747958D01*
X75876341Y-136931550D01*
X76850000Y-135957892D01*
X76850000Y-135988869D01*
X76878822Y-136133767D01*
X76935359Y-136270258D01*
X77017437Y-136393097D01*
X77121903Y-136497563D01*
X77244742Y-136579641D01*
X77381233Y-136636178D01*
X77526131Y-136665000D01*
X77557106Y-136665000D01*
X76583448Y-137638657D01*
X76583448Y-137638658D01*
X76767042Y-137738908D01*
X76767041Y-137738908D01*
X77035104Y-137838890D01*
X77314637Y-137899699D01*
X77599999Y-137920109D01*
X77600001Y-137920109D01*
X77885362Y-137899699D01*
X78164895Y-137838890D01*
X78432957Y-137738908D01*
X78616550Y-137638658D01*
X78616550Y-137638657D01*
X77642895Y-136665000D01*
X77673869Y-136665000D01*
X77818767Y-136636178D01*
X77955258Y-136579641D01*
X78078097Y-136497563D01*
X78182563Y-136393097D01*
X78264641Y-136270258D01*
X78321178Y-136133767D01*
X78350000Y-135988869D01*
X78350000Y-135957893D01*
X79323657Y-136931550D01*
X79323658Y-136931550D01*
X79423908Y-136747957D01*
X79523890Y-136479895D01*
X79584699Y-136200362D01*
X79605109Y-135915001D01*
X79605109Y-135914998D01*
X81594891Y-135914998D01*
X81594891Y-135915001D01*
X81615300Y-136200362D01*
X81676109Y-136479895D01*
X81776091Y-136747958D01*
X81876341Y-136931550D01*
X82850000Y-135957892D01*
X82850000Y-135988869D01*
X82878822Y-136133767D01*
X82935359Y-136270258D01*
X83017437Y-136393097D01*
X83121903Y-136497563D01*
X83244742Y-136579641D01*
X83381233Y-136636178D01*
X83526131Y-136665000D01*
X83557106Y-136665000D01*
X82583448Y-137638657D01*
X82583448Y-137638658D01*
X82767042Y-137738908D01*
X82767041Y-137738908D01*
X83035104Y-137838890D01*
X83314637Y-137899699D01*
X83599999Y-137920109D01*
X83600001Y-137920109D01*
X83885362Y-137899699D01*
X84164895Y-137838890D01*
X84432957Y-137738908D01*
X84616550Y-137638658D01*
X84616550Y-137638657D01*
X83642895Y-136665000D01*
X83673869Y-136665000D01*
X83818767Y-136636178D01*
X83955258Y-136579641D01*
X84078097Y-136497563D01*
X84182563Y-136393097D01*
X84264641Y-136270258D01*
X84321178Y-136133767D01*
X84350000Y-135988869D01*
X84350000Y-135957893D01*
X85323657Y-136931550D01*
X85323658Y-136931550D01*
X85423908Y-136747957D01*
X85523890Y-136479895D01*
X85584699Y-136200362D01*
X85605109Y-135915001D01*
X85605109Y-135914998D01*
X85584699Y-135629637D01*
X85523890Y-135350104D01*
X85423908Y-135082042D01*
X85323657Y-134898448D01*
X84350000Y-135872105D01*
X84350000Y-135841131D01*
X84321178Y-135696233D01*
X84264641Y-135559742D01*
X84182563Y-135436903D01*
X84078097Y-135332437D01*
X83955258Y-135250359D01*
X83818767Y-135193822D01*
X83673869Y-135165000D01*
X83642894Y-135165000D01*
X84616550Y-134191341D01*
X84616550Y-134191340D01*
X84432957Y-134091091D01*
X84432958Y-134091091D01*
X84164895Y-133991109D01*
X83885362Y-133930300D01*
X83600001Y-133909891D01*
X83599999Y-133909891D01*
X83314637Y-133930300D01*
X83035104Y-133991109D01*
X82767041Y-134091091D01*
X82767035Y-134091094D01*
X82583448Y-134191339D01*
X82583448Y-134191341D01*
X83557107Y-135165000D01*
X83526131Y-135165000D01*
X83381233Y-135193822D01*
X83244742Y-135250359D01*
X83121903Y-135332437D01*
X83017437Y-135436903D01*
X82935359Y-135559742D01*
X82878822Y-135696233D01*
X82850000Y-135841131D01*
X82850000Y-135872106D01*
X81876341Y-134898448D01*
X81876339Y-134898448D01*
X81776094Y-135082035D01*
X81776091Y-135082041D01*
X81676109Y-135350104D01*
X81615300Y-135629637D01*
X81594891Y-135914998D01*
X79605109Y-135914998D01*
X79584699Y-135629637D01*
X79523890Y-135350104D01*
X79423908Y-135082042D01*
X79323657Y-134898448D01*
X78350000Y-135872105D01*
X78350000Y-135841131D01*
X78321178Y-135696233D01*
X78264641Y-135559742D01*
X78182563Y-135436903D01*
X78078097Y-135332437D01*
X77955258Y-135250359D01*
X77818767Y-135193822D01*
X77673869Y-135165000D01*
X77642894Y-135165000D01*
X78616550Y-134191341D01*
X78616550Y-134191340D01*
X78432957Y-134091091D01*
X78432958Y-134091091D01*
X78164895Y-133991109D01*
X77885362Y-133930300D01*
X77600001Y-133909891D01*
X77599999Y-133909891D01*
X77314637Y-133930300D01*
X77035104Y-133991109D01*
X76767041Y-134091091D01*
X76767035Y-134091094D01*
X76583448Y-134191339D01*
X76583448Y-134191341D01*
X77557107Y-135165000D01*
X77526131Y-135165000D01*
X77381233Y-135193822D01*
X77244742Y-135250359D01*
X77121903Y-135332437D01*
X77017437Y-135436903D01*
X76935359Y-135559742D01*
X76878822Y-135696233D01*
X76850000Y-135841131D01*
X76850000Y-135872106D01*
X75876341Y-134898448D01*
X75876339Y-134898448D01*
X75776094Y-135082035D01*
X75776091Y-135082041D01*
X75676109Y-135350104D01*
X75615300Y-135629637D01*
X75594891Y-135914998D01*
X73605109Y-135914998D01*
X73584699Y-135629637D01*
X73523890Y-135350104D01*
X73423908Y-135082042D01*
X73323657Y-134898448D01*
X72350000Y-135872105D01*
X72350000Y-135841131D01*
X72321178Y-135696233D01*
X72264641Y-135559742D01*
X72182563Y-135436903D01*
X72078097Y-135332437D01*
X71955258Y-135250359D01*
X71818767Y-135193822D01*
X71673869Y-135165000D01*
X71642894Y-135165000D01*
X72616550Y-134191341D01*
X72616550Y-134191340D01*
X72432957Y-134091091D01*
X72432958Y-134091091D01*
X72164895Y-133991109D01*
X71885362Y-133930300D01*
X71600001Y-133909891D01*
X71599999Y-133909891D01*
X71314637Y-133930300D01*
X71035104Y-133991109D01*
X70767041Y-134091091D01*
X70767035Y-134091094D01*
X70583448Y-134191339D01*
X70583448Y-134191341D01*
X71557107Y-135165000D01*
X71526131Y-135165000D01*
X71381233Y-135193822D01*
X71244742Y-135250359D01*
X71121903Y-135332437D01*
X71017437Y-135436903D01*
X70935359Y-135559742D01*
X70878822Y-135696233D01*
X70850000Y-135841131D01*
X70850000Y-135872106D01*
X69876341Y-134898448D01*
X69876339Y-134898448D01*
X69776094Y-135082035D01*
X69776091Y-135082041D01*
X69676109Y-135350104D01*
X69615300Y-135629637D01*
X69594891Y-135914998D01*
X67605109Y-135914998D01*
X67584699Y-135629637D01*
X67523890Y-135350104D01*
X67423908Y-135082042D01*
X67323657Y-134898448D01*
X66350000Y-135872105D01*
X66350000Y-135841131D01*
X66321178Y-135696233D01*
X66264641Y-135559742D01*
X66182563Y-135436903D01*
X66078097Y-135332437D01*
X65955258Y-135250359D01*
X65818767Y-135193822D01*
X65673869Y-135165000D01*
X65642894Y-135165000D01*
X66616550Y-134191341D01*
X66616550Y-134191340D01*
X66432957Y-134091091D01*
X66432958Y-134091091D01*
X66164895Y-133991109D01*
X65885362Y-133930300D01*
X65600001Y-133909891D01*
X65599999Y-133909891D01*
X65314637Y-133930300D01*
X65035104Y-133991109D01*
X64767041Y-134091091D01*
X64767035Y-134091094D01*
X64583448Y-134191339D01*
X64583448Y-134191341D01*
X65557107Y-135165000D01*
X65526131Y-135165000D01*
X65381233Y-135193822D01*
X65244742Y-135250359D01*
X65121903Y-135332437D01*
X65017437Y-135436903D01*
X64935359Y-135559742D01*
X64878822Y-135696233D01*
X64850000Y-135841131D01*
X64850000Y-135872107D01*
X63876341Y-134898448D01*
X63876339Y-134898448D01*
X63776094Y-135082035D01*
X63776091Y-135082041D01*
X63676109Y-135350104D01*
X63615300Y-135629637D01*
X63594891Y-135914998D01*
X61605109Y-135914998D01*
X61584699Y-135629637D01*
X61523890Y-135350104D01*
X61423908Y-135082042D01*
X61323657Y-134898448D01*
X60350000Y-135872105D01*
X60350000Y-135841131D01*
X60321178Y-135696233D01*
X60264641Y-135559742D01*
X60182563Y-135436903D01*
X60078097Y-135332437D01*
X59955258Y-135250359D01*
X59818767Y-135193822D01*
X59673869Y-135165000D01*
X59642894Y-135165000D01*
X60616550Y-134191341D01*
X60616550Y-134191340D01*
X60432957Y-134091091D01*
X60432958Y-134091091D01*
X60164895Y-133991109D01*
X59885362Y-133930300D01*
X59600001Y-133909891D01*
X59599999Y-133909891D01*
X59314637Y-133930300D01*
X59035104Y-133991109D01*
X58767041Y-134091091D01*
X58767035Y-134091094D01*
X58583448Y-134191339D01*
X58583448Y-134191341D01*
X59557107Y-135165000D01*
X59526131Y-135165000D01*
X59381233Y-135193822D01*
X59244742Y-135250359D01*
X59121903Y-135332437D01*
X59017437Y-135436903D01*
X58935359Y-135559742D01*
X58878822Y-135696233D01*
X58850000Y-135841131D01*
X58850000Y-135872106D01*
X57876341Y-134898448D01*
X57876339Y-134898448D01*
X57776094Y-135082035D01*
X57776091Y-135082041D01*
X57676109Y-135350104D01*
X57615300Y-135629637D01*
X57594891Y-135914998D01*
X57100500Y-135914998D01*
X57100500Y-129514998D01*
X57594390Y-129514998D01*
X57594390Y-129515001D01*
X57614804Y-129800433D01*
X57675628Y-130080037D01*
X57775635Y-130348166D01*
X57912770Y-130599309D01*
X57912775Y-130599317D01*
X58084254Y-130828387D01*
X58084270Y-130828405D01*
X58286594Y-131030729D01*
X58286612Y-131030745D01*
X58515682Y-131202224D01*
X58515690Y-131202229D01*
X58766833Y-131339364D01*
X58766832Y-131339364D01*
X58766836Y-131339365D01*
X58766839Y-131339367D01*
X59034954Y-131439369D01*
X59034960Y-131439370D01*
X59034962Y-131439371D01*
X59314566Y-131500195D01*
X59314568Y-131500195D01*
X59314572Y-131500196D01*
X59568220Y-131518337D01*
X59599999Y-131520610D01*
X59600000Y-131520610D01*
X59600001Y-131520610D01*
X59628595Y-131518564D01*
X59885428Y-131500196D01*
X60165046Y-131439369D01*
X60433161Y-131339367D01*
X60684315Y-131202226D01*
X60913395Y-131030739D01*
X61115739Y-130828395D01*
X61287226Y-130599315D01*
X61424367Y-130348161D01*
X61524369Y-130080046D01*
X61585196Y-129800428D01*
X61605610Y-129515000D01*
X61605610Y-129514998D01*
X63594390Y-129514998D01*
X63594390Y-129515001D01*
X63614804Y-129800433D01*
X63675628Y-130080037D01*
X63775635Y-130348166D01*
X63912770Y-130599309D01*
X63912775Y-130599317D01*
X64084254Y-130828387D01*
X64084270Y-130828405D01*
X64286594Y-131030729D01*
X64286612Y-131030745D01*
X64515682Y-131202224D01*
X64515690Y-131202229D01*
X64766833Y-131339364D01*
X64766832Y-131339364D01*
X64766836Y-131339365D01*
X64766839Y-131339367D01*
X65034954Y-131439369D01*
X65034960Y-131439370D01*
X65034962Y-131439371D01*
X65314566Y-131500195D01*
X65314568Y-131500195D01*
X65314572Y-131500196D01*
X65568220Y-131518337D01*
X65599999Y-131520610D01*
X65600000Y-131520610D01*
X65600001Y-131520610D01*
X65628595Y-131518564D01*
X65885428Y-131500196D01*
X66165046Y-131439369D01*
X66433161Y-131339367D01*
X66684315Y-131202226D01*
X66913395Y-131030739D01*
X67115739Y-130828395D01*
X67287226Y-130599315D01*
X67424367Y-130348161D01*
X67524369Y-130080046D01*
X67585196Y-129800428D01*
X67605610Y-129515000D01*
X67605610Y-129514998D01*
X69594390Y-129514998D01*
X69594390Y-129515001D01*
X69614804Y-129800433D01*
X69675628Y-130080037D01*
X69775635Y-130348166D01*
X69912770Y-130599309D01*
X69912775Y-130599317D01*
X70084254Y-130828387D01*
X70084270Y-130828405D01*
X70286594Y-131030729D01*
X70286612Y-131030745D01*
X70515682Y-131202224D01*
X70515690Y-131202229D01*
X70766833Y-131339364D01*
X70766832Y-131339364D01*
X70766836Y-131339365D01*
X70766839Y-131339367D01*
X71034954Y-131439369D01*
X71034960Y-131439370D01*
X71034962Y-131439371D01*
X71314566Y-131500195D01*
X71314568Y-131500195D01*
X71314572Y-131500196D01*
X71568220Y-131518337D01*
X71599999Y-131520610D01*
X71600000Y-131520610D01*
X71600001Y-131520610D01*
X71628595Y-131518564D01*
X71885428Y-131500196D01*
X72165046Y-131439369D01*
X72433161Y-131339367D01*
X72684315Y-131202226D01*
X72913395Y-131030739D01*
X73115739Y-130828395D01*
X73287226Y-130599315D01*
X73424367Y-130348161D01*
X73524369Y-130080046D01*
X73585196Y-129800428D01*
X73605610Y-129515000D01*
X73605610Y-129514998D01*
X75594390Y-129514998D01*
X75594390Y-129515001D01*
X75614804Y-129800433D01*
X75675628Y-130080037D01*
X75775635Y-130348166D01*
X75912770Y-130599309D01*
X75912775Y-130599317D01*
X76084254Y-130828387D01*
X76084270Y-130828405D01*
X76286594Y-131030729D01*
X76286612Y-131030745D01*
X76515682Y-131202224D01*
X76515690Y-131202229D01*
X76766833Y-131339364D01*
X76766832Y-131339364D01*
X76766836Y-131339365D01*
X76766839Y-131339367D01*
X77034954Y-131439369D01*
X77034960Y-131439370D01*
X77034962Y-131439371D01*
X77314566Y-131500195D01*
X77314568Y-131500195D01*
X77314572Y-131500196D01*
X77568220Y-131518337D01*
X77599999Y-131520610D01*
X77600000Y-131520610D01*
X77600001Y-131520610D01*
X77628595Y-131518564D01*
X77885428Y-131500196D01*
X78165046Y-131439369D01*
X78433161Y-131339367D01*
X78684315Y-131202226D01*
X78913395Y-131030739D01*
X79115739Y-130828395D01*
X79287226Y-130599315D01*
X79424367Y-130348161D01*
X79524369Y-130080046D01*
X79585196Y-129800428D01*
X79605610Y-129515000D01*
X79605610Y-129514998D01*
X81594390Y-129514998D01*
X81594390Y-129515001D01*
X81614804Y-129800433D01*
X81675628Y-130080037D01*
X81775635Y-130348166D01*
X81912770Y-130599309D01*
X81912775Y-130599317D01*
X82084254Y-130828387D01*
X82084270Y-130828405D01*
X82286594Y-131030729D01*
X82286612Y-131030745D01*
X82515682Y-131202224D01*
X82515690Y-131202229D01*
X82766833Y-131339364D01*
X82766832Y-131339364D01*
X82766836Y-131339365D01*
X82766839Y-131339367D01*
X83034954Y-131439369D01*
X83034960Y-131439370D01*
X83034962Y-131439371D01*
X83314566Y-131500195D01*
X83314568Y-131500195D01*
X83314572Y-131500196D01*
X83568220Y-131518337D01*
X83599999Y-131520610D01*
X83600000Y-131520610D01*
X83600001Y-131520610D01*
X83628595Y-131518564D01*
X83885428Y-131500196D01*
X84165046Y-131439369D01*
X84433161Y-131339367D01*
X84684315Y-131202226D01*
X84913395Y-131030739D01*
X85115739Y-130828395D01*
X85287226Y-130599315D01*
X85424367Y-130348161D01*
X85524369Y-130080046D01*
X85585196Y-129800428D01*
X85605610Y-129515000D01*
X85585196Y-129229572D01*
X85524369Y-128949954D01*
X85424367Y-128681839D01*
X85287226Y-128430685D01*
X85287224Y-128430682D01*
X85115745Y-128201612D01*
X85115729Y-128201594D01*
X84913405Y-127999270D01*
X84913387Y-127999254D01*
X84684317Y-127827775D01*
X84684309Y-127827770D01*
X84433166Y-127690635D01*
X84433167Y-127690635D01*
X84325915Y-127650632D01*
X84165046Y-127590631D01*
X84165043Y-127590630D01*
X84165037Y-127590628D01*
X83885433Y-127529804D01*
X83600001Y-127509390D01*
X83599999Y-127509390D01*
X83314566Y-127529804D01*
X83034962Y-127590628D01*
X82766833Y-127690635D01*
X82515690Y-127827770D01*
X82515682Y-127827775D01*
X82286612Y-127999254D01*
X82286594Y-127999270D01*
X82084270Y-128201594D01*
X82084254Y-128201612D01*
X81912775Y-128430682D01*
X81912770Y-128430690D01*
X81775635Y-128681833D01*
X81675628Y-128949962D01*
X81614804Y-129229566D01*
X81594390Y-129514998D01*
X79605610Y-129514998D01*
X79585196Y-129229572D01*
X79524369Y-128949954D01*
X79424367Y-128681839D01*
X79287226Y-128430685D01*
X79287224Y-128430682D01*
X79115745Y-128201612D01*
X79115729Y-128201594D01*
X78913405Y-127999270D01*
X78913387Y-127999254D01*
X78684317Y-127827775D01*
X78684309Y-127827770D01*
X78433166Y-127690635D01*
X78433167Y-127690635D01*
X78325915Y-127650632D01*
X78165046Y-127590631D01*
X78165043Y-127590630D01*
X78165037Y-127590628D01*
X77885433Y-127529804D01*
X77600001Y-127509390D01*
X77599999Y-127509390D01*
X77314566Y-127529804D01*
X77034962Y-127590628D01*
X76766833Y-127690635D01*
X76515690Y-127827770D01*
X76515682Y-127827775D01*
X76286612Y-127999254D01*
X76286594Y-127999270D01*
X76084270Y-128201594D01*
X76084254Y-128201612D01*
X75912775Y-128430682D01*
X75912770Y-128430690D01*
X75775635Y-128681833D01*
X75675628Y-128949962D01*
X75614804Y-129229566D01*
X75594390Y-129514998D01*
X73605610Y-129514998D01*
X73585196Y-129229572D01*
X73524369Y-128949954D01*
X73424367Y-128681839D01*
X73287226Y-128430685D01*
X73287224Y-128430682D01*
X73115745Y-128201612D01*
X73115729Y-128201594D01*
X72913405Y-127999270D01*
X72913387Y-127999254D01*
X72684317Y-127827775D01*
X72684309Y-127827770D01*
X72433166Y-127690635D01*
X72433167Y-127690635D01*
X72325915Y-127650632D01*
X72165046Y-127590631D01*
X72165043Y-127590630D01*
X72165037Y-127590628D01*
X71885433Y-127529804D01*
X71600001Y-127509390D01*
X71599999Y-127509390D01*
X71314566Y-127529804D01*
X71034962Y-127590628D01*
X70766833Y-127690635D01*
X70515690Y-127827770D01*
X70515682Y-127827775D01*
X70286612Y-127999254D01*
X70286594Y-127999270D01*
X70084270Y-128201594D01*
X70084254Y-128201612D01*
X69912775Y-128430682D01*
X69912770Y-128430690D01*
X69775635Y-128681833D01*
X69675628Y-128949962D01*
X69614804Y-129229566D01*
X69594390Y-129514998D01*
X67605610Y-129514998D01*
X67585196Y-129229572D01*
X67524369Y-128949954D01*
X67424367Y-128681839D01*
X67287226Y-128430685D01*
X67287224Y-128430682D01*
X67115745Y-128201612D01*
X67115729Y-128201594D01*
X66913405Y-127999270D01*
X66913387Y-127999254D01*
X66684317Y-127827775D01*
X66684309Y-127827770D01*
X66433166Y-127690635D01*
X66433167Y-127690635D01*
X66325915Y-127650632D01*
X66165046Y-127590631D01*
X66165043Y-127590630D01*
X66165037Y-127590628D01*
X65885433Y-127529804D01*
X65600001Y-127509390D01*
X65599999Y-127509390D01*
X65314566Y-127529804D01*
X65034962Y-127590628D01*
X64766833Y-127690635D01*
X64515690Y-127827770D01*
X64515682Y-127827775D01*
X64286612Y-127999254D01*
X64286594Y-127999270D01*
X64084270Y-128201594D01*
X64084254Y-128201612D01*
X63912775Y-128430682D01*
X63912770Y-128430690D01*
X63775635Y-128681833D01*
X63675628Y-128949962D01*
X63614804Y-129229566D01*
X63594390Y-129514998D01*
X61605610Y-129514998D01*
X61585196Y-129229572D01*
X61524369Y-128949954D01*
X61424367Y-128681839D01*
X61287226Y-128430685D01*
X61287224Y-128430682D01*
X61115745Y-128201612D01*
X61115729Y-128201594D01*
X60913405Y-127999270D01*
X60913387Y-127999254D01*
X60684317Y-127827775D01*
X60684309Y-127827770D01*
X60433166Y-127690635D01*
X60433167Y-127690635D01*
X60325915Y-127650632D01*
X60165046Y-127590631D01*
X60165043Y-127590630D01*
X60165037Y-127590628D01*
X59885433Y-127529804D01*
X59600001Y-127509390D01*
X59599999Y-127509390D01*
X59314566Y-127529804D01*
X59034962Y-127590628D01*
X58766833Y-127690635D01*
X58515690Y-127827770D01*
X58515682Y-127827775D01*
X58286612Y-127999254D01*
X58286594Y-127999270D01*
X58084270Y-128201594D01*
X58084254Y-128201612D01*
X57912775Y-128430682D01*
X57912770Y-128430690D01*
X57775635Y-128681833D01*
X57675628Y-128949962D01*
X57614804Y-129229566D01*
X57594390Y-129514998D01*
X57100500Y-129514998D01*
X57100500Y-122710993D01*
X57120185Y-122643954D01*
X57172989Y-122598199D01*
X57242147Y-122588255D01*
X57305703Y-122617280D01*
X57343477Y-122676058D01*
X57344706Y-122680553D01*
X57375937Y-122803881D01*
X57475826Y-123031606D01*
X57611833Y-123239782D01*
X57611836Y-123239785D01*
X57780256Y-123422738D01*
X57976491Y-123575474D01*
X58195190Y-123693828D01*
X58430386Y-123774571D01*
X58675665Y-123815500D01*
X58924335Y-123815500D01*
X59169614Y-123774571D01*
X59404810Y-123693828D01*
X59623509Y-123575474D01*
X59819744Y-123422738D01*
X59988164Y-123239785D01*
X60124173Y-123031607D01*
X60224063Y-122803881D01*
X60285108Y-122562821D01*
X60305643Y-122315000D01*
X60285108Y-122067179D01*
X60276619Y-122033656D01*
X60224063Y-121826118D01*
X60124173Y-121598393D01*
X59988166Y-121390217D01*
X59966557Y-121366744D01*
X59819744Y-121207262D01*
X59623509Y-121054526D01*
X59623507Y-121054525D01*
X59623506Y-121054524D01*
X59404811Y-120936172D01*
X59404802Y-120936169D01*
X59169616Y-120855429D01*
X58924335Y-120814500D01*
X58675665Y-120814500D01*
X58430383Y-120855429D01*
X58195197Y-120936169D01*
X58195188Y-120936172D01*
X57976493Y-121054524D01*
X57780257Y-121207261D01*
X57611833Y-121390217D01*
X57475826Y-121598393D01*
X57375936Y-121826118D01*
X57344706Y-121949446D01*
X57309166Y-122009602D01*
X57246746Y-122040994D01*
X57177262Y-122033656D01*
X57122777Y-121989917D01*
X57100588Y-121923664D01*
X57100500Y-121919006D01*
X57100500Y-119940000D01*
X79454123Y-119940000D01*
X79481979Y-120029392D01*
X79481981Y-120029396D01*
X79569927Y-120174877D01*
X79690122Y-120295072D01*
X79835603Y-120383018D01*
X79997889Y-120433589D01*
X80000000Y-120433781D01*
X80000000Y-119940000D01*
X79454123Y-119940000D01*
X57100500Y-119940000D01*
X57100500Y-118310993D01*
X57120185Y-118243954D01*
X57172989Y-118198199D01*
X57242147Y-118188255D01*
X57305703Y-118217280D01*
X57343477Y-118276058D01*
X57344706Y-118280553D01*
X57375937Y-118403881D01*
X57475826Y-118631606D01*
X57611833Y-118839782D01*
X57611836Y-118839785D01*
X57780256Y-119022738D01*
X57976491Y-119175474D01*
X58195190Y-119293828D01*
X58430386Y-119374571D01*
X58675665Y-119415500D01*
X58924335Y-119415500D01*
X59169614Y-119374571D01*
X59404810Y-119293828D01*
X59623509Y-119175474D01*
X59819744Y-119022738D01*
X59988164Y-118839785D01*
X60124173Y-118631607D01*
X60224063Y-118403881D01*
X60285108Y-118162821D01*
X60292463Y-118074057D01*
X60305643Y-117915005D01*
X60305643Y-117914994D01*
X60285109Y-117667187D01*
X60285108Y-117667184D01*
X60285108Y-117667179D01*
X60252568Y-117538683D01*
X60255193Y-117468863D01*
X60285091Y-117420564D01*
X60865670Y-116839986D01*
X75250001Y-116839986D01*
X75260494Y-116942697D01*
X75315641Y-117109119D01*
X75315643Y-117109124D01*
X75407684Y-117258345D01*
X75531654Y-117382315D01*
X75680881Y-117474359D01*
X75749999Y-117497262D01*
X75750000Y-117497262D01*
X75750000Y-116815000D01*
X75250001Y-116815000D01*
X75250001Y-116839986D01*
X60865670Y-116839986D01*
X62144114Y-115561543D01*
X62220775Y-115446811D01*
X62223686Y-115439785D01*
X62252386Y-115370495D01*
X62273580Y-115319328D01*
X62300500Y-115183994D01*
X62300500Y-115046006D01*
X62300500Y-109635923D01*
X62317113Y-109573923D01*
X62336987Y-109539500D01*
X62381250Y-109462835D01*
X62436497Y-109292803D01*
X62455185Y-109115000D01*
X62436497Y-108937197D01*
X62381250Y-108767165D01*
X62291859Y-108612335D01*
X62245003Y-108560296D01*
X62172235Y-108479478D01*
X62172232Y-108479476D01*
X62172231Y-108479475D01*
X62172230Y-108479474D01*
X62159577Y-108470281D01*
X62116914Y-108414953D01*
X62110935Y-108345339D01*
X62143541Y-108283544D01*
X62197867Y-108250890D01*
X62315398Y-108216744D01*
X62456865Y-108133081D01*
X62573081Y-108016865D01*
X62656744Y-107875398D01*
X62702598Y-107717569D01*
X62705500Y-107680694D01*
X62705500Y-107652000D01*
X62725185Y-107584961D01*
X62777989Y-107539206D01*
X62829500Y-107528000D01*
X62875270Y-107528000D01*
X62942309Y-107547685D01*
G37*
%TD.AperFunction*%
%TA.AperFunction,Conductor*%
G36*
X86042539Y-88134685D02*
G01*
X86088294Y-88187489D01*
X86099500Y-88239000D01*
X86099500Y-99736113D01*
X86079815Y-99803152D01*
X86027011Y-99848907D01*
X85957853Y-99858851D01*
X85894297Y-99829826D01*
X85856523Y-99771048D01*
X85856424Y-99770709D01*
X85851745Y-99754604D01*
X85851744Y-99754603D01*
X85851744Y-99754602D01*
X85768081Y-99613135D01*
X85768079Y-99613133D01*
X85768076Y-99613129D01*
X85651870Y-99496923D01*
X85651862Y-99496917D01*
X85573681Y-99450681D01*
X85510398Y-99413256D01*
X85510397Y-99413255D01*
X85510396Y-99413255D01*
X85510393Y-99413254D01*
X85352566Y-99367400D01*
X85352217Y-99367337D01*
X85352039Y-99367247D01*
X85346485Y-99365634D01*
X85346784Y-99364602D01*
X85289806Y-99335926D01*
X85254285Y-99275760D01*
X85250500Y-99245356D01*
X85250500Y-98725855D01*
X85260487Y-98680802D01*
X85259731Y-98680552D01*
X85262001Y-98673698D01*
X85262003Y-98673697D01*
X85315349Y-98512708D01*
X85325500Y-98413345D01*
X85325499Y-97816656D01*
X85315349Y-97717292D01*
X85314569Y-97714939D01*
X85259732Y-97549447D01*
X85260487Y-97549196D01*
X85250500Y-97504143D01*
X85250500Y-97111197D01*
X85270185Y-97044158D01*
X85282352Y-97028223D01*
X85291859Y-97017665D01*
X85381250Y-96862835D01*
X85436497Y-96692803D01*
X85455185Y-96515000D01*
X85436497Y-96337197D01*
X85381250Y-96167165D01*
X85291859Y-96012335D01*
X85245003Y-95960296D01*
X85172235Y-95879478D01*
X85172232Y-95879476D01*
X85172231Y-95879475D01*
X85172230Y-95879474D01*
X85027593Y-95774388D01*
X84864267Y-95701671D01*
X84864265Y-95701670D01*
X84736594Y-95674533D01*
X84689391Y-95664500D01*
X84510609Y-95664500D01*
X84479954Y-95671015D01*
X84335733Y-95701670D01*
X84335728Y-95701672D01*
X84172408Y-95774387D01*
X84027768Y-95879475D01*
X83908140Y-96012336D01*
X83818750Y-96167164D01*
X83818747Y-96167170D01*
X83763504Y-96337192D01*
X83763503Y-96337194D01*
X83744815Y-96515000D01*
X83763503Y-96692805D01*
X83763504Y-96692807D01*
X83818747Y-96862829D01*
X83818748Y-96862830D01*
X83818750Y-96862835D01*
X83832887Y-96887322D01*
X83849500Y-96949320D01*
X83849500Y-97128734D01*
X83829815Y-97195773D01*
X83790598Y-97234272D01*
X83696956Y-97292031D01*
X83696953Y-97292033D01*
X83687324Y-97301663D01*
X83626000Y-97335146D01*
X83556308Y-97330159D01*
X83511965Y-97301660D01*
X83502731Y-97292426D01*
X83358489Y-97203455D01*
X83358482Y-97203452D01*
X83275000Y-97175789D01*
X83275000Y-99054210D01*
X83358481Y-99026548D01*
X83358484Y-99026547D01*
X83502731Y-98937573D01*
X83511959Y-98928345D01*
X83573279Y-98894856D01*
X83642971Y-98899835D01*
X83687327Y-98928339D01*
X83696956Y-98937968D01*
X83790598Y-98995728D01*
X83837322Y-99047674D01*
X83849500Y-99101265D01*
X83849500Y-99419191D01*
X83829815Y-99486230D01*
X83813181Y-99506872D01*
X83720006Y-99600047D01*
X83658683Y-99633532D01*
X83588991Y-99628548D01*
X83563434Y-99615468D01*
X83456816Y-99544228D01*
X83456804Y-99544222D01*
X83423876Y-99530582D01*
X83383650Y-99503703D01*
X83376870Y-99496923D01*
X83376862Y-99496917D01*
X83298681Y-99450681D01*
X83235398Y-99413256D01*
X83235397Y-99413255D01*
X83235396Y-99413255D01*
X83235393Y-99413254D01*
X83077573Y-99367402D01*
X83077567Y-99367401D01*
X83040701Y-99364500D01*
X83040694Y-99364500D01*
X81884306Y-99364500D01*
X81884298Y-99364500D01*
X81847432Y-99367401D01*
X81847426Y-99367402D01*
X81689606Y-99413254D01*
X81689603Y-99413255D01*
X81548137Y-99496917D01*
X81548129Y-99496923D01*
X81431923Y-99613129D01*
X81431917Y-99613137D01*
X81348255Y-99754603D01*
X81348254Y-99754606D01*
X81302402Y-99912426D01*
X81302401Y-99912432D01*
X81299500Y-99949298D01*
X81299500Y-100273998D01*
X81279815Y-100341037D01*
X81227011Y-100386792D01*
X81157853Y-100396736D01*
X81094297Y-100367711D01*
X81069962Y-100339096D01*
X81022573Y-100262268D01*
X80902732Y-100142427D01*
X80902728Y-100142424D01*
X80758492Y-100053457D01*
X80758481Y-100053452D01*
X80650000Y-100017505D01*
X80650000Y-100490000D01*
X81152834Y-100490000D01*
X81177063Y-100471203D01*
X81246658Y-100465020D01*
X81308548Y-100497445D01*
X81341465Y-100552025D01*
X81348255Y-100575396D01*
X81348256Y-100575399D01*
X81349426Y-100577377D01*
X81349869Y-100579126D01*
X81351353Y-100582554D01*
X81350799Y-100582793D01*
X81366603Y-100645102D01*
X81351249Y-100697395D01*
X81351817Y-100697641D01*
X81349827Y-100702239D01*
X81349428Y-100703599D01*
X81348722Y-100704791D01*
X81348718Y-100704801D01*
X81316704Y-100815000D01*
X81483639Y-100815000D01*
X81546760Y-100832268D01*
X81562523Y-100841590D01*
X81689602Y-100916744D01*
X81731224Y-100928836D01*
X81847426Y-100962597D01*
X81847429Y-100962597D01*
X81847431Y-100962598D01*
X81884306Y-100965500D01*
X82338500Y-100965500D01*
X82405539Y-100985185D01*
X82451294Y-101037989D01*
X82462500Y-101089500D01*
X82462500Y-101140500D01*
X82442815Y-101207539D01*
X82390011Y-101253294D01*
X82338500Y-101264500D01*
X81884298Y-101264500D01*
X81847432Y-101267401D01*
X81847426Y-101267402D01*
X81689606Y-101313254D01*
X81689603Y-101313255D01*
X81546760Y-101397732D01*
X81483639Y-101415000D01*
X81301142Y-101415000D01*
X81285735Y-101426498D01*
X81289197Y-101427543D01*
X81334556Y-101480687D01*
X81340457Y-101496761D01*
X81348719Y-101525202D01*
X81349421Y-101526388D01*
X81349687Y-101527440D01*
X81351818Y-101532363D01*
X81351024Y-101532706D01*
X81366604Y-101594112D01*
X81350993Y-101647284D01*
X81351355Y-101647441D01*
X81350087Y-101650370D01*
X81349427Y-101652620D01*
X81348259Y-101654594D01*
X81348254Y-101654607D01*
X81302402Y-101812426D01*
X81302401Y-101812432D01*
X81300610Y-101835196D01*
X81275725Y-101900484D01*
X81219494Y-101941955D01*
X81149768Y-101946441D01*
X81088686Y-101912518D01*
X81071454Y-101890563D01*
X81022970Y-101811959D01*
X81022967Y-101811955D01*
X81013339Y-101802327D01*
X80979854Y-101741004D01*
X80984838Y-101671312D01*
X81013345Y-101626959D01*
X81022572Y-101617732D01*
X81115339Y-101467337D01*
X81117864Y-101468894D01*
X81155121Y-101426542D01*
X81181293Y-101419068D01*
X81149568Y-101401685D01*
X81139632Y-101390000D01*
X79260789Y-101390000D01*
X79288452Y-101473482D01*
X79288455Y-101473489D01*
X79377426Y-101617731D01*
X79386660Y-101626965D01*
X79420145Y-101688288D01*
X79415161Y-101757980D01*
X79386663Y-101802324D01*
X79377033Y-101811953D01*
X79377029Y-101811959D01*
X79288001Y-101956294D01*
X79287996Y-101956305D01*
X79234651Y-102117290D01*
X79224500Y-102216647D01*
X79224500Y-102763337D01*
X79224501Y-102763355D01*
X79234650Y-102862707D01*
X79234651Y-102862710D01*
X79287996Y-103023694D01*
X79288001Y-103023705D01*
X79377029Y-103168040D01*
X79377032Y-103168044D01*
X79496955Y-103287967D01*
X79496959Y-103287970D01*
X79641294Y-103376998D01*
X79641297Y-103376999D01*
X79641303Y-103377003D01*
X79802292Y-103430349D01*
X79901655Y-103440500D01*
X80498344Y-103440499D01*
X80498352Y-103440498D01*
X80498355Y-103440498D01*
X80552760Y-103434940D01*
X80597708Y-103430349D01*
X80758697Y-103377003D01*
X80758698Y-103377001D01*
X80765552Y-103374731D01*
X80765802Y-103375487D01*
X80810855Y-103365500D01*
X81638000Y-103365500D01*
X81705039Y-103385185D01*
X81750794Y-103437989D01*
X81762000Y-103489500D01*
X81762000Y-109340500D01*
X81742315Y-109407539D01*
X81689511Y-109453294D01*
X81638000Y-109464500D01*
X81337231Y-109464500D01*
X81270192Y-109444815D01*
X81249550Y-109428182D01*
X81198550Y-109377182D01*
X81143656Y-109322288D01*
X81053019Y-109266383D01*
X80994336Y-109230187D01*
X80994331Y-109230185D01*
X80992862Y-109229698D01*
X80827797Y-109175001D01*
X80827795Y-109175000D01*
X80725010Y-109164500D01*
X79674998Y-109164500D01*
X79674980Y-109164501D01*
X79572203Y-109175000D01*
X79572200Y-109175001D01*
X79405668Y-109230185D01*
X79405663Y-109230187D01*
X79256342Y-109322289D01*
X79132289Y-109446342D01*
X79111161Y-109480597D01*
X79059213Y-109527321D01*
X79005622Y-109539500D01*
X65927011Y-109539500D01*
X65859972Y-109519815D01*
X65814217Y-109467011D01*
X65804273Y-109397853D01*
X65809080Y-109377182D01*
X65826917Y-109322288D01*
X65836497Y-109292803D01*
X65836497Y-109292801D01*
X65838505Y-109286622D01*
X65841310Y-109287533D01*
X65868304Y-109237354D01*
X65868662Y-109236993D01*
X66744114Y-108361543D01*
X66820775Y-108246811D01*
X66873580Y-108119329D01*
X66893961Y-108016865D01*
X66900500Y-107983993D01*
X66900500Y-107885908D01*
X66920185Y-107818869D01*
X66964271Y-107780363D01*
X66963187Y-107778605D01*
X66969332Y-107774814D01*
X66969334Y-107774814D01*
X67118656Y-107682712D01*
X67118664Y-107682703D01*
X67123085Y-107679209D01*
X67187879Y-107653066D01*
X67256522Y-107666103D01*
X67276915Y-107679209D01*
X67281339Y-107682707D01*
X67281344Y-107682712D01*
X67430666Y-107774814D01*
X67597203Y-107829999D01*
X67699991Y-107840500D01*
X68700008Y-107840499D01*
X68700016Y-107840498D01*
X68700019Y-107840498D01*
X68756302Y-107834748D01*
X68802797Y-107829999D01*
X68969334Y-107774814D01*
X69118656Y-107682712D01*
X69242712Y-107558656D01*
X69334814Y-107409334D01*
X69389999Y-107242797D01*
X69400500Y-107140009D01*
X69400499Y-106514992D01*
X69389999Y-106412203D01*
X69334814Y-106245666D01*
X69242712Y-106096344D01*
X69148695Y-106002327D01*
X69115210Y-105941004D01*
X69120194Y-105871312D01*
X69148695Y-105826964D01*
X69242317Y-105733342D01*
X69334356Y-105584124D01*
X69334358Y-105584119D01*
X69361405Y-105502500D01*
X68324000Y-105502500D01*
X68256961Y-105482815D01*
X68211206Y-105430011D01*
X68200000Y-105378500D01*
X68200000Y-105002500D01*
X67824000Y-105002500D01*
X67756961Y-104982815D01*
X67711206Y-104930011D01*
X67700000Y-104878500D01*
X67700000Y-104502500D01*
X68700000Y-104502500D01*
X69361404Y-104502500D01*
X69334358Y-104420880D01*
X69334356Y-104420875D01*
X69242315Y-104271654D01*
X69118345Y-104147684D01*
X68969124Y-104055643D01*
X68969119Y-104055641D01*
X68802697Y-104000494D01*
X68802690Y-104000493D01*
X68700000Y-103990002D01*
X68700000Y-104502500D01*
X67700000Y-104502500D01*
X67700000Y-103990003D01*
X67699999Y-103990002D01*
X67597302Y-104000494D01*
X67430880Y-104055641D01*
X67430875Y-104055643D01*
X67281649Y-104147687D01*
X67277305Y-104151122D01*
X67212507Y-104177255D01*
X67143866Y-104164207D01*
X67123497Y-104151116D01*
X67118660Y-104147292D01*
X67118656Y-104147288D01*
X66969334Y-104055186D01*
X66802797Y-104000001D01*
X66802795Y-104000000D01*
X66700010Y-103989500D01*
X65699998Y-103989500D01*
X65699980Y-103989501D01*
X65597203Y-104000000D01*
X65597200Y-104000001D01*
X65430668Y-104055185D01*
X65430663Y-104055187D01*
X65281342Y-104147289D01*
X65187681Y-104240951D01*
X65126358Y-104274436D01*
X65056666Y-104269452D01*
X65012319Y-104240951D01*
X64918657Y-104147289D01*
X64918656Y-104147288D01*
X64769334Y-104055186D01*
X64602797Y-104000001D01*
X64602795Y-104000000D01*
X64500010Y-103989500D01*
X63499998Y-103989500D01*
X63499980Y-103989501D01*
X63397203Y-104000000D01*
X63397200Y-104000001D01*
X63230668Y-104055185D01*
X63230663Y-104055187D01*
X63081342Y-104147289D01*
X62962951Y-104265681D01*
X62901628Y-104299166D01*
X62875270Y-104302000D01*
X60596531Y-104302000D01*
X60461203Y-104328918D01*
X60461193Y-104328921D01*
X60333718Y-104381722D01*
X60218980Y-104458387D01*
X60218979Y-104458388D01*
X59399188Y-105278181D01*
X59337865Y-105311666D01*
X59311507Y-105314500D01*
X59149298Y-105314500D01*
X59112432Y-105317401D01*
X59112426Y-105317402D01*
X58954606Y-105363254D01*
X58954603Y-105363255D01*
X58813140Y-105446915D01*
X58806974Y-105451699D01*
X58805174Y-105449379D01*
X58755913Y-105476230D01*
X58686225Y-105471193D01*
X58653992Y-105450461D01*
X58652722Y-105452100D01*
X58646552Y-105447314D01*
X58505196Y-105363717D01*
X58505193Y-105363715D01*
X58395001Y-105331701D01*
X58395000Y-105331702D01*
X58395000Y-108248295D01*
X58505905Y-108216076D01*
X58575775Y-108216275D01*
X58634445Y-108254217D01*
X58663288Y-108317856D01*
X58664500Y-108335152D01*
X58664500Y-108348994D01*
X58664500Y-108348996D01*
X58664499Y-108348996D01*
X58691418Y-108484322D01*
X58691421Y-108484332D01*
X58744222Y-108611807D01*
X58820887Y-108726545D01*
X58820888Y-108726546D01*
X59732054Y-109637711D01*
X59765539Y-109699034D01*
X59760555Y-109768725D01*
X59718683Y-109824659D01*
X59653219Y-109849076D01*
X59585356Y-109834447D01*
X59404614Y-109736635D01*
X59404603Y-109736630D01*
X59169493Y-109655916D01*
X58924293Y-109615000D01*
X58675707Y-109615000D01*
X58430506Y-109655916D01*
X58195396Y-109736630D01*
X58195385Y-109736635D01*
X58152143Y-109760036D01*
X58152143Y-109760037D01*
X59065872Y-110673766D01*
X59079736Y-110699156D01*
X58992993Y-110649075D01*
X58865826Y-110615000D01*
X58734174Y-110615000D01*
X58607007Y-110649075D01*
X58492993Y-110714901D01*
X58399901Y-110807993D01*
X58334075Y-110922007D01*
X58300000Y-111049174D01*
X58300000Y-111180826D01*
X58334075Y-111307993D01*
X58399901Y-111422007D01*
X58492993Y-111515099D01*
X58607007Y-111580925D01*
X58734174Y-111615000D01*
X58865826Y-111615000D01*
X58992993Y-111580925D01*
X59083634Y-111528592D01*
X59065871Y-111556233D01*
X58152143Y-112469960D01*
X58152143Y-112469962D01*
X58195395Y-112493369D01*
X58430506Y-112574083D01*
X58675707Y-112615000D01*
X58924293Y-112615000D01*
X59169493Y-112574083D01*
X59404603Y-112493369D01*
X59404614Y-112493364D01*
X59623228Y-112375057D01*
X59623231Y-112375055D01*
X59699337Y-112315819D01*
X59764331Y-112290176D01*
X59832871Y-112303742D01*
X59883196Y-112352210D01*
X59899500Y-112413672D01*
X59899500Y-113173479D01*
X59879815Y-113240518D01*
X59863181Y-113261160D01*
X59839444Y-113284897D01*
X59778121Y-113318382D01*
X59708429Y-113313398D01*
X59675601Y-113295070D01*
X59632032Y-113261160D01*
X59623509Y-113254526D01*
X59503568Y-113189617D01*
X59404811Y-113136172D01*
X59404802Y-113136169D01*
X59169616Y-113055429D01*
X58924335Y-113014500D01*
X58675665Y-113014500D01*
X58430383Y-113055429D01*
X58195197Y-113136169D01*
X58195188Y-113136172D01*
X57976493Y-113254524D01*
X57780257Y-113407261D01*
X57611833Y-113590217D01*
X57475826Y-113798393D01*
X57375936Y-114026118D01*
X57344706Y-114149446D01*
X57309166Y-114209602D01*
X57246746Y-114240994D01*
X57177262Y-114233656D01*
X57122777Y-114189917D01*
X57100588Y-114123664D01*
X57100500Y-114119006D01*
X57100500Y-111508955D01*
X57120185Y-111441916D01*
X57172989Y-111396161D01*
X57242147Y-111386217D01*
X57305703Y-111415242D01*
X57343477Y-111474020D01*
X57344706Y-111478515D01*
X57376411Y-111603716D01*
X57445856Y-111762036D01*
X58092894Y-111115000D01*
X57445856Y-110467962D01*
X57445855Y-110467962D01*
X57376413Y-110626279D01*
X57376412Y-110626281D01*
X57344706Y-110751485D01*
X57309166Y-110811640D01*
X57246745Y-110843032D01*
X57177262Y-110835694D01*
X57122777Y-110791955D01*
X57100588Y-110725702D01*
X57100500Y-110721044D01*
X57100500Y-107909306D01*
X57120185Y-107842267D01*
X57172989Y-107796512D01*
X57242147Y-107786568D01*
X57305703Y-107815593D01*
X57339669Y-107868445D01*
X57340618Y-107868035D01*
X57343119Y-107873814D01*
X57343477Y-107874371D01*
X57343577Y-107874713D01*
X57343717Y-107875196D01*
X57427314Y-108016552D01*
X57427321Y-108016561D01*
X57543438Y-108132678D01*
X57543447Y-108132685D01*
X57684801Y-108216281D01*
X57795000Y-108248296D01*
X57795000Y-105331702D01*
X57794998Y-105331701D01*
X57684806Y-105363715D01*
X57684803Y-105363717D01*
X57543447Y-105447314D01*
X57543438Y-105447321D01*
X57427321Y-105563438D01*
X57427314Y-105563447D01*
X57343717Y-105704803D01*
X57343576Y-105705290D01*
X57343361Y-105705626D01*
X57340618Y-105711965D01*
X57339595Y-105711522D01*
X57305968Y-105764175D01*
X57242495Y-105793380D01*
X57173309Y-105783633D01*
X57120375Y-105738028D01*
X57100500Y-105671045D01*
X57100500Y-102961096D01*
X57120185Y-102894057D01*
X57172989Y-102848302D01*
X57242147Y-102838358D01*
X57305703Y-102867383D01*
X57338769Y-102918835D01*
X57340156Y-102918235D01*
X57343255Y-102925396D01*
X57426917Y-103066862D01*
X57426923Y-103066870D01*
X57543129Y-103183076D01*
X57543133Y-103183079D01*
X57543135Y-103183081D01*
X57684602Y-103266744D01*
X57726224Y-103278836D01*
X57842426Y-103312597D01*
X57842429Y-103312597D01*
X57842431Y-103312598D01*
X57879306Y-103315500D01*
X57879314Y-103315500D01*
X58310686Y-103315500D01*
X58310694Y-103315500D01*
X58347569Y-103312598D01*
X58347571Y-103312597D01*
X58347573Y-103312597D01*
X58432345Y-103287968D01*
X58505398Y-103266744D01*
X58646865Y-103183081D01*
X58646870Y-103183075D01*
X58653031Y-103178298D01*
X58654933Y-103180750D01*
X58703579Y-103154155D01*
X58773274Y-103159104D01*
X58805695Y-103179940D01*
X58806969Y-103178298D01*
X58813132Y-103183078D01*
X58813135Y-103183081D01*
X58954602Y-103266744D01*
X58996224Y-103278836D01*
X59112426Y-103312597D01*
X59112429Y-103312597D01*
X59112431Y-103312598D01*
X59149306Y-103315500D01*
X59149314Y-103315500D01*
X59580686Y-103315500D01*
X59580694Y-103315500D01*
X59617569Y-103312598D01*
X59617571Y-103312597D01*
X59617573Y-103312597D01*
X59702345Y-103287968D01*
X59775398Y-103266744D01*
X59916865Y-103183081D01*
X59916870Y-103183075D01*
X59923031Y-103178298D01*
X59924933Y-103180750D01*
X59973579Y-103154155D01*
X60043274Y-103159104D01*
X60075695Y-103179940D01*
X60076969Y-103178298D01*
X60083132Y-103183078D01*
X60083135Y-103183081D01*
X60224602Y-103266744D01*
X60266224Y-103278836D01*
X60382426Y-103312597D01*
X60382429Y-103312597D01*
X60382431Y-103312598D01*
X60419306Y-103315500D01*
X60419314Y-103315500D01*
X60850686Y-103315500D01*
X60850694Y-103315500D01*
X60887569Y-103312598D01*
X60887571Y-103312597D01*
X60887573Y-103312597D01*
X60972345Y-103287968D01*
X61045398Y-103266744D01*
X61186865Y-103183081D01*
X61186870Y-103183075D01*
X61193031Y-103178298D01*
X61194933Y-103180750D01*
X61243579Y-103154155D01*
X61313274Y-103159104D01*
X61345695Y-103179940D01*
X61346969Y-103178298D01*
X61353132Y-103183078D01*
X61353135Y-103183081D01*
X61494602Y-103266744D01*
X61536224Y-103278836D01*
X61652426Y-103312597D01*
X61652429Y-103312597D01*
X61652431Y-103312598D01*
X61689306Y-103315500D01*
X61689314Y-103315500D01*
X62120686Y-103315500D01*
X62120694Y-103315500D01*
X62157569Y-103312598D01*
X62157571Y-103312597D01*
X62157573Y-103312597D01*
X62242345Y-103287968D01*
X62315398Y-103266744D01*
X62456865Y-103183081D01*
X62573081Y-103066865D01*
X62656744Y-102925398D01*
X62702598Y-102767569D01*
X62705500Y-102730694D01*
X62705500Y-100949306D01*
X62702598Y-100912431D01*
X62679544Y-100833081D01*
X62656745Y-100754606D01*
X62656744Y-100754603D01*
X62656744Y-100754602D01*
X62634425Y-100716862D01*
X62622768Y-100697150D01*
X62605500Y-100634030D01*
X62605500Y-100490000D01*
X79260789Y-100490000D01*
X79750000Y-100490000D01*
X79750000Y-100017505D01*
X79641518Y-100053452D01*
X79641507Y-100053457D01*
X79497271Y-100142424D01*
X79497267Y-100142427D01*
X79377426Y-100262268D01*
X79288455Y-100406510D01*
X79288452Y-100406517D01*
X79260789Y-100490000D01*
X62605500Y-100490000D01*
X62605500Y-100151004D01*
X62578581Y-100015677D01*
X62578580Y-100015676D01*
X62578580Y-100015672D01*
X62578578Y-100015667D01*
X62525778Y-99888195D01*
X62525771Y-99888182D01*
X62470782Y-99805886D01*
X62449112Y-99773454D01*
X62449109Y-99773451D01*
X61668851Y-98993194D01*
X61641175Y-98942510D01*
X61638505Y-98943378D01*
X61624953Y-98901670D01*
X61581250Y-98767165D01*
X61491859Y-98612335D01*
X61449238Y-98565000D01*
X81902505Y-98565000D01*
X81938452Y-98673481D01*
X81938457Y-98673492D01*
X82027424Y-98817728D01*
X82027427Y-98817732D01*
X82147267Y-98937572D01*
X82147271Y-98937575D01*
X82291515Y-99026547D01*
X82291518Y-99026548D01*
X82374999Y-99054210D01*
X82375000Y-99054210D01*
X82375000Y-98565000D01*
X81902505Y-98565000D01*
X61449238Y-98565000D01*
X61445003Y-98560296D01*
X61372235Y-98479478D01*
X61372232Y-98479476D01*
X61372231Y-98479475D01*
X61372230Y-98479474D01*
X61227593Y-98374388D01*
X61064267Y-98301671D01*
X61064265Y-98301670D01*
X60936594Y-98274533D01*
X60889391Y-98264500D01*
X60710609Y-98264500D01*
X60679954Y-98271015D01*
X60535733Y-98301670D01*
X60535728Y-98301672D01*
X60372408Y-98374387D01*
X60227768Y-98479475D01*
X60108140Y-98612336D01*
X60018750Y-98767164D01*
X60018747Y-98767171D01*
X59978326Y-98891576D01*
X59938888Y-98949252D01*
X59874530Y-98976450D01*
X59809962Y-98966538D01*
X59664267Y-98901671D01*
X59664265Y-98901670D01*
X59536594Y-98874533D01*
X59489391Y-98864500D01*
X59310609Y-98864500D01*
X59279954Y-98871015D01*
X59135733Y-98901670D01*
X59135728Y-98901672D01*
X58972408Y-98974388D01*
X58972403Y-98974390D01*
X58872885Y-99046695D01*
X58807079Y-99070175D01*
X58739025Y-99054349D01*
X58727114Y-99046695D01*
X58703749Y-99029719D01*
X58627593Y-98974388D01*
X58464267Y-98901671D01*
X58464265Y-98901670D01*
X58336594Y-98874533D01*
X58289391Y-98864500D01*
X58110609Y-98864500D01*
X58079954Y-98871015D01*
X57935733Y-98901670D01*
X57935728Y-98901672D01*
X57772408Y-98974387D01*
X57627768Y-99079475D01*
X57508140Y-99212336D01*
X57418750Y-99367164D01*
X57418747Y-99367170D01*
X57363504Y-99537192D01*
X57363503Y-99537194D01*
X57347821Y-99686403D01*
X57337290Y-99711996D01*
X57343477Y-99721623D01*
X57347820Y-99743591D01*
X57350959Y-99773454D01*
X57363503Y-99892805D01*
X57363504Y-99892807D01*
X57418747Y-100062829D01*
X57418750Y-100062835D01*
X57469654Y-100151004D01*
X57482887Y-100173923D01*
X57499500Y-100235923D01*
X57499500Y-100489191D01*
X57479815Y-100556230D01*
X57463181Y-100576872D01*
X57426923Y-100613129D01*
X57426917Y-100613137D01*
X57343255Y-100754603D01*
X57340156Y-100761765D01*
X57338699Y-100761134D01*
X57305968Y-100812385D01*
X57242495Y-100841590D01*
X57173309Y-100831843D01*
X57120375Y-100786238D01*
X57100500Y-100719255D01*
X57100500Y-99756558D01*
X57112523Y-99715609D01*
X57102523Y-99695748D01*
X57100500Y-99673441D01*
X57100500Y-97665000D01*
X81902505Y-97665000D01*
X82375000Y-97665000D01*
X82375000Y-97175789D01*
X82291517Y-97203452D01*
X82291510Y-97203455D01*
X82147268Y-97292426D01*
X82027427Y-97412267D01*
X82027424Y-97412271D01*
X81938457Y-97556507D01*
X81938452Y-97556518D01*
X81902505Y-97665000D01*
X57100500Y-97665000D01*
X57100500Y-88239000D01*
X57120185Y-88171961D01*
X57172989Y-88126206D01*
X57224500Y-88115000D01*
X85975500Y-88115000D01*
X86042539Y-88134685D01*
G37*
%TD.AperFunction*%
%TD*%
M02*
